<svg width="25" height="25" viewBox="0 0 25 25" fill="none" xmlns="http://www.w3.org/2000/svg">
<path fill-rule="evenodd" clip-rule="evenodd" d="M12.875 0.875C13.2286 0.875 13.5678 1.01548 13.8178 1.26552C14.0679 1.51557 14.2083 1.85471 14.2083 2.20833V12.875C14.2083 13.2286 14.0679 13.5678 13.8178 13.8178C13.5678 14.0679 13.2286 14.2083 12.875 14.2083H2.20833C1.85471 14.2083 1.51557 14.0679 1.26552 13.8178C1.01548 13.5678 0.875 13.2286 0.875 12.875C0.875 12.5214 1.01548 12.1822 1.26552 11.9322C1.51557 11.6821 1.85471 11.5417 2.20833 11.5417H11.5417V2.20833C11.5417 1.85471 11.6821 1.51557 11.9322 1.26552C12.1822 1.01548 12.5214 0.875 12.875 0.875V0.875Z" fill="white"/>
<path fill-rule="evenodd" clip-rule="evenodd" d="M11.5416 12.875C11.5416 12.5214 11.6821 12.1823 11.9322 11.9322C12.1822 11.6822 12.5213 11.5417 12.875 11.5417H23.5416C23.8952 11.5417 24.2344 11.6822 24.4844 11.9322C24.7345 12.1823 24.875 12.5214 24.875 12.875C24.875 13.2286 24.7345 13.5678 24.4844 13.8178C24.2344 14.0679 23.8952 14.2084 23.5416 14.2084H14.2083V23.5417C14.2083 23.8953 14.0678 24.2344 13.8178 24.4845C13.5677 24.7345 13.2286 24.875 12.875 24.875C12.5213 24.875 12.1822 24.7345 11.9322 24.4845C11.6821 24.2344 11.5416 23.8953 11.5416 23.5417V12.875Z" fill="white"/>
</svg>
