<svg width="24" height="24" viewBox="0 0 24 24" fill="none" xmlns="http://www.w3.org/2000/svg">
<g id="description_24px">
<path id="icon/image/rotate_90_degrees_ccw_24px" fill-rule="evenodd" clip-rule="evenodd" d="M13.1883 5.05085C14.929 5.05085 16.6774 5.87947 18.0019 7.53672C20.666 10.8418 20.666 16.209 18.0019 19.5141C16.6774 21.1714 14.929 22 13.1883 22C12.0605 22 10.9328 21.6422 9.91107 20.9454L11.0388 19.5424C11.72 19.919 12.4541 20.1168 13.1883 20.1168C14.543 20.1168 15.8978 19.4765 16.9347 18.1864C19.0009 15.6158 19.0009 11.435 16.9347 8.86441C15.8978 7.57439 14.543 6.93409 13.1883 6.93409V9.98493L9.97918 5.99247L13.1883 2V5.05085ZM8.90445 7.32017L4 13.4313L8.91201 19.533L13.824 13.4313L8.90445 7.32017ZM6.14191 13.4312L8.91201 9.98492L11.6745 13.4312L8.90444 16.8776L6.14191 13.4312Z" fill="#0BCAD4"/>
</g>
</svg>
