<svg width="20" height="20" viewBox="0 0 20 20" fill="none" xmlns="http://www.w3.org/2000/svg">
<path d="M6.25 11.25H11.25V12.5H6.25V11.25Z" fill="#495A75"/>
<path d="M6.25 8.125H13.75V9.375H6.25V8.125Z" fill="#495A75"/>
<path d="M6.25 14.375H9.375V15.625H6.25V14.375Z" fill="#495A75"/>
<path d="M16.5455 2.14286H14.3636V1.42857C14.3636 1.04969 14.2104 0.686328 13.9376 0.418419C13.6648 0.15051 13.2949 0 12.9091 0H7.09091C6.70514 0 6.33517 0.15051 6.06239 0.418419C5.78961 0.686328 5.63636 1.04969 5.63636 1.42857V2.14286H3.45455C3.06878 2.14286 2.69881 2.29337 2.42603 2.56128C2.15325 2.82919 2 3.19255 2 3.57143V18.5714C2 18.9503 2.15325 19.3137 2.42603 19.5816C2.69881 19.8495 3.06878 20 3.45455 20H16.5455C16.9312 20 17.3012 19.8495 17.574 19.5816C17.8468 19.3137 18 18.9503 18 18.5714V3.57143C18 3.19255 17.8468 2.82919 17.574 2.56128C17.3012 2.29337 16.9312 2.14286 16.5455 2.14286V2.14286ZM7.09091 1.42857H12.9091V4.28571H7.09091V1.42857ZM16.5455 18.5714H3.45455V3.57143H5.63636V5.71429H14.3636V3.57143H16.5455V18.5714Z" fill="#495A75"/>
</svg>
