<svg width="146" height="115" viewBox="0 0 146 115" fill="none" xmlns="http://www.w3.org/2000/svg">
<g id="Group 24" filter="url(#filter0_d)">
<g id="Group 20">
<rect id="Rectangle 13" x="4" width="138" height="107" rx="30" fill="#0AA8B0"/>
<g id="Group 26">
<path id="Vector" d="M16.116 48.9375C16.235 55.5133 18.9818 56.2252 22.3549 55.5393C26.2083 54.7558 29.371 52.3001 30.9298 49.051L32.0048 46.8102C32.7195 45.3206 32.7436 43.6379 32.0717 42.1323C31.3999 40.6267 30.0871 39.4217 28.4222 38.7822H28.4222C27.5979 38.4655 26.7119 38.2973 25.8149 38.287C24.9179 38.2767 24.0273 38.4247 23.1942 38.7223C22.3611 39.02 21.6016 39.4616 20.9592 40.0219C20.3168 40.5822 19.804 41.2502 19.4501 41.9878C15.9909 43.2037 15.3076 45.721 16.116 48.9375Z" fill="#2F2E41"/>
<path id="Vector_2" d="M37.8054 35.7026L38.8407 34.135C38.9672 33.9435 39.0435 33.729 39.064 33.5074C39.0846 33.2858 39.0487 33.0629 38.9593 32.8555C38.8698 32.648 38.729 32.4614 38.5474 32.3096C38.3658 32.1579 38.1481 32.0448 37.9107 31.9791V31.9791C37.6602 31.9096 37.3947 31.8948 37.1365 31.9358C36.8782 31.9768 36.6347 32.0724 36.4261 32.2147C36.2175 32.357 36.0499 32.5418 35.9374 32.7538C35.8248 32.9658 35.7705 33.1987 35.779 33.4333L35.8398 35.1184L30.9743 47.0493L33.6276 47.545L37.8054 35.7026Z" fill="#9F616A"/>
<path id="Vector_3" d="M12.2084 65.1146L10.9341 66.5343C10.7784 66.7076 10.6687 66.9103 10.6131 67.127C10.5575 67.3437 10.5575 67.5689 10.613 67.7856C10.6686 68.0023 10.7783 68.205 10.9338 68.3784C11.0894 68.5518 11.2868 68.6914 11.5113 68.7867V68.7867C11.7483 68.8874 12.0086 68.9359 12.2708 68.9283C12.5329 68.9206 12.7892 68.857 13.0184 68.7428C13.2475 68.6285 13.4427 68.4669 13.5879 68.2715C13.7331 68.076 13.8239 67.8523 13.8529 67.6191L14.061 65.9435L20.7765 54.7544L18.2292 53.9256L12.2084 65.1146Z" fill="#9F616A"/>
<path id="Vector_4" d="M20.0817 76.9253L20.2692 78.9414L20.3132 79.4117L32.7856 78.3384C33.2155 78.295 33.6279 78.1615 33.9893 77.9487C34.3507 77.7359 34.6509 77.4498 34.8655 77.1137C35.0801 76.7775 35.203 76.4008 35.2242 76.0141C35.2455 75.6275 35.1645 75.2418 34.9878 74.8884L30.9655 67.1618L29.576 64.493L23.5552 63.2498C18.5904 66.65 23.0573 70.4025 28.6775 74.1984C28.8975 74.3476 29.1198 74.4968 29.3445 74.646L20.0817 76.9253Z" fill="#2F2E41"/>
<path id="Vector_5" d="M15.8791 83.9065C16.031 83.9259 16.186 83.9101 16.3292 83.8605C16.4723 83.811 16.5989 83.7293 16.6966 83.6234L20.7764 79.2044L20.5448 77.1324L19.1537 76.3855C19.04 76.3245 18.9127 76.2863 18.7807 76.2736C18.6488 76.261 18.5153 76.2742 18.3897 76.3124C18.264 76.3505 18.1491 76.4127 18.053 76.4946C17.9569 76.5765 17.8819 76.6761 17.8332 76.7866L15.1723 82.8184C15.1226 82.931 15.102 83.0523 15.1122 83.173C15.1224 83.2938 15.163 83.4109 15.231 83.5157C15.299 83.6204 15.3927 83.7099 15.5049 83.7776C15.6171 83.8453 15.7451 83.8894 15.8791 83.9065V83.9065Z" fill="#2F2E41"/>
<path id="Vector_6" opacity="0.2" d="M19.387 76.5109L19.6186 78.9973L20.2693 78.9414L32.0909 77.924C32.5209 77.8806 32.9333 77.7471 33.2947 77.5343C33.6561 77.3215 33.9563 77.0354 34.1708 76.6992C34.3854 76.3631 34.5083 75.9864 34.5296 75.5997C34.5508 75.2131 34.4698 74.8274 34.2932 74.474L30.9655 67.8083V67.1618L29.5761 64.493L23.5553 63.2498C18.5904 66.65 23.0574 70.4025 28.6776 74.1984L28.6498 74.2316L19.387 76.5109Z" fill="black"/>
<path id="Vector_7" d="M14.7213 83.0777C14.8733 83.0972 15.0283 83.0813 15.1715 83.0318C15.3146 82.9822 15.4412 82.9005 15.5389 82.7946L19.6187 78.3756L19.3871 76.3036L17.996 75.5567C17.8822 75.4957 17.755 75.4575 17.623 75.4448C17.4911 75.4322 17.3576 75.4454 17.232 75.4836C17.1063 75.5217 16.9914 75.5839 16.8953 75.6658C16.7992 75.7477 16.7242 75.8473 16.6755 75.9578L14.0146 81.9896C13.9649 82.1022 13.9443 82.2235 13.9545 82.3443C13.9647 82.465 14.0053 82.5822 14.0733 82.6869C14.1413 82.7916 14.235 82.8811 14.3472 82.9488C14.4594 83.0165 14.5873 83.0606 14.7213 83.0777V83.0777Z" fill="#2F2E41"/>
<path id="Vector_8" d="M18.9239 76.0964L19.1555 78.5828L31.6278 77.5092C32.0577 77.4659 32.4701 77.3324 32.8315 77.1197C33.1929 76.9069 33.4932 76.6209 33.7078 76.2848C33.9225 75.9487 34.0455 75.5721 34.0669 75.1855C34.0883 74.7989 34.0075 74.4132 33.831 74.0597L30.5024 67.3938V63.6641L22.3974 62.4209C17.2372 65.9546 22.265 69.8692 28.1867 73.8171L18.9239 76.0964Z" fill="#2F2E41"/>
<path id="Vector_9" d="M26.7973 46.8805C28.7157 46.8805 30.2708 45.489 30.2708 43.7724C30.2708 42.0559 28.7157 40.6644 26.7973 40.6644C24.8789 40.6644 23.3237 42.0559 23.3237 43.7724C23.3237 45.489 24.8789 46.8805 26.7973 46.8805Z" fill="#9F616A"/>
<path id="Vector_10" d="M22.1658 48.9527L27.0287 51.8535L31.197 51.0247L28.8813 48.9527V45.8446L25.1762 45.6374C25.0984 46.8785 24.3036 48.0143 22.1658 48.9527Z" fill="#9F616A"/>
<path id="Vector_11" d="M21.4712 63.457L30.5024 64.493L32.5865 55.7904C33.5547 53.4804 32.9992 51.4394 31.2066 49.617C31.1381 49.3103 30.9555 49.0334 30.6885 48.8314C30.4216 48.6295 30.0861 48.5144 29.7367 48.5049L28.8814 48.5383C28.9782 51.2863 26.7154 50.6244 23.3237 48.3311L22.9142 48.441C22.3848 48.5831 21.9302 48.8911 21.6337 49.3085C21.3373 49.7259 21.2187 50.2249 21.2997 50.7141L21.6731 52.9697C21.8315 53.8639 22.0775 54.7439 22.4083 55.5995C23.3342 58.0756 23.0033 60.6969 21.4712 63.457Z" fill="#15C7C7"/>
<path id="Vector_12" d="M17.303 54.1328L21.4712 55.376L23.3238 49.3671L22.6962 49.1118C22.1758 48.9002 21.585 48.8736 21.0436 49.0375C20.5022 49.2013 20.0507 49.5434 19.7808 49.9942L17.303 54.1328Z" fill="#15C7C7"/>
<path id="Vector_13" d="M29.576 48.5382L31.8918 50.8174L34.6706 46.8805L31.197 45.223L29.576 48.5382Z" fill="#15C7C7"/>
<path id="Vector_14" d="M22.7446 42.8402C24.9274 43.5766 27.2569 43.5003 29.6917 42.8402V40.3537H22.7446V42.8402Z" fill="#2F2E41"/>
<path id="Vector_15" d="M131.079 85.5226L128.684 86.4154L112.72 66.9522L101.145 86.7725L98.1521 86.2369L106.933 58.9171H117.11L131.079 85.5226Z" fill="#2F2E41"/>
<path id="Vector_16" d="M134.292 90.0629C134.159 90.0953 134.02 90.1039 133.884 90.0882C133.747 90.0724 133.616 90.0327 133.497 89.9713L128.446 87.3695C128.31 87.2993 128.194 87.2019 128.106 87.0849C128.019 86.968 127.962 86.8346 127.942 86.6951C127.921 86.5555 127.937 86.4136 127.987 86.2803C128.038 86.147 128.122 86.0259 128.233 85.9264L128.684 85.5226L131.079 85.344L134.74 88.4886C134.873 88.603 134.97 88.7469 135.021 88.9057C135.071 89.0645 135.074 89.2325 135.028 89.3926C134.983 89.5526 134.891 89.699 134.761 89.8167C134.632 89.9345 134.47 90.0194 134.292 90.0629Z" fill="#2F2E41"/>
<path id="Vector_17" d="M95.1388 90.7771C95.2716 90.8095 95.4102 90.8181 95.5467 90.8024C95.6831 90.7867 95.8148 90.7469 95.934 90.6855L100.984 88.0837C101.121 88.0135 101.237 87.9161 101.325 87.7992C101.412 87.6822 101.468 87.5488 101.489 87.4093C101.51 87.2698 101.494 87.1278 101.443 86.9946C101.393 86.8613 101.309 86.7402 101.198 86.6407L100.746 86.2368L98.3516 86.0582L94.6908 89.2028C94.5576 89.3172 94.4608 89.4611 94.4101 89.6199C94.3594 89.7787 94.3567 89.9467 94.4022 90.1068C94.4478 90.2668 94.5399 90.4132 94.6694 90.531C94.7988 90.6487 94.9608 90.7337 95.1388 90.7771V90.7771Z" fill="#2F2E41"/>
<path id="Vector_18" d="M100.148 30.5258L99.15 31.0615L97.0823 28.055C96.9553 27.8703 96.8798 27.661 96.8621 27.4448C96.8445 27.2286 96.8852 27.0117 96.9808 26.8125C97.0765 26.6133 97.2243 26.4376 97.4117 26.3002C97.5992 26.1628 97.8208 26.0678 98.0579 26.0231C98.2688 25.9834 98.4866 25.9845 98.697 26.0263C98.9073 26.0681 99.1052 26.1497 99.2774 26.2655C99.4496 26.3814 99.5921 26.5288 99.6954 26.698C99.7987 26.8672 99.8604 27.0542 99.8763 27.2464L100.148 30.5258Z" fill="#FFB9B9"/>
<path id="Vector_19" d="M127.788 53.9331L128.202 52.96L131.904 54.1788C132.132 54.2536 132.336 54.3763 132.499 54.5365C132.662 54.6967 132.78 54.8896 132.843 55.0991C132.905 55.3086 132.91 55.5284 132.858 55.7401C132.806 55.9518 132.697 56.1491 132.542 56.3154V56.3154C132.403 56.4633 132.231 56.583 132.037 56.6665C131.843 56.75 131.631 56.7954 131.416 56.7996C131.2 56.8039 130.986 56.7668 130.788 56.691C130.59 56.6152 130.413 56.5024 130.267 56.3601L127.788 53.9331Z" fill="#FFB9B9"/>
<path id="Vector_20" d="M112.121 41.2395C113.774 41.2395 115.115 40.0403 115.115 38.561C115.115 37.0818 113.774 35.8826 112.121 35.8826C110.468 35.8826 109.128 37.0818 109.128 38.561C109.128 40.0403 110.468 41.2395 112.121 41.2395Z" fill="#FFB9B9"/>
<path id="Vector_21" d="M114.715 44.275H110.525V40.1681L114.117 39.811L114.715 44.275Z" fill="#FFB9B9"/>
<path id="Vector_22" d="M117.709 59.9884H106.334C106.735 54.3095 107.053 48.8215 106.334 45.7035L106.995 42.8628C107.087 42.4692 107.341 42.1209 107.706 41.8871C108.072 41.6533 108.522 41.5512 108.968 41.6011L110.525 41.7752C111.579 43.4332 112.852 43.4172 114.316 41.9537H116.191C116.441 41.9537 116.688 41.9983 116.919 42.085C117.149 42.1716 117.358 42.2984 117.533 42.4581C117.708 42.6178 117.845 42.8071 117.938 43.015C118.03 43.2228 118.075 43.4451 118.07 43.6686C118.558 45.6694 118.721 47.7229 118.552 49.7653L117.709 59.9884Z" fill="#3F3D56"/>
<path id="Vector_23" d="M98.5512 30.5257L100.148 29.8115L108.729 42.4894L106.334 45.7034L98.5512 30.5257Z" fill="#3F3D56"/>
<path id="Vector_24" d="M127.81 54.4411L129.175 53.4113L121.925 44.3217C121.216 43.4325 120.238 42.7425 119.107 42.3325C117.975 41.9225 116.736 41.8095 115.535 42.0068L115.306 42.0444L118.048 46.3368L121.658 48.7827L127.81 54.4411Z" fill="#3F3D56"/>
<path id="Vector_25" d="M115.583 36.98C115.583 36.98 116.142 35.8789 114.688 35.3784C114.688 35.3784 113.457 33.5767 110.996 34.7778C110.996 34.7778 109.318 35.3784 109.318 36.98C109.318 38.5816 108.759 38.8819 108.759 38.8819C108.759 38.8819 109.592 38.1172 109.816 37.5166C110.039 36.9161 111.779 36.7798 112.451 37.3804C113.122 37.981 114.8 37.8809 114.8 37.8809L114.688 40.083C114.688 40.083 115.247 38.7818 115.471 38.7818C115.695 38.7818 115.919 36.98 115.583 36.98Z" fill="#2F2E41"/>
<path id="Vector_26" d="M23.8591 96.5159C29.2059 96.5159 33.5403 96.3139 33.5403 96.0647C33.5403 95.8155 29.2059 95.6135 23.8591 95.6135C18.5124 95.6135 14.178 95.8155 14.178 96.0647C14.178 96.3139 18.5124 96.5159 23.8591 96.5159Z" fill="#E6E6E6"/>
<path id="Vector_27" d="M115.307 96.9183C125.422 96.9183 133.622 96.5361 133.622 96.0647C133.622 95.5933 125.422 95.2111 115.307 95.2111C105.191 95.2111 96.9909 95.5933 96.9909 96.0647C96.9909 96.5361 105.191 96.9183 115.307 96.9183Z" fill="#E6E6E6"/>
<path id="Vector_28" d="M45.8488 34.7887C48.3871 34.7887 50.4448 32.9475 50.4448 30.6763C50.4448 28.4051 48.3871 26.564 45.8488 26.564C43.3106 26.564 41.2529 28.4051 41.2529 30.6763C41.2529 32.9475 43.3106 34.7887 45.8488 34.7887Z" fill="white"/>
<path id="Vector_29" d="M98.577 31.4263L38.7066 38.1893C38.4126 38.2221 38.1203 38.1066 37.8939 37.8681C37.6674 37.6296 37.5252 37.2876 37.4985 36.9172L36.1675 18.1986C36.1415 17.8281 36.2331 17.4597 36.4224 17.1742C36.6116 16.8888 36.8829 16.7096 37.1768 16.6759L97.0472 9.91287C97.3412 9.88011 97.6335 9.99564 97.8599 10.2341C98.0864 10.4726 98.2286 10.8146 98.2553 11.1851L99.5863 29.9036C99.6123 30.2741 99.5206 30.6425 99.3314 30.928C99.1422 31.2134 98.8709 31.3926 98.577 31.4263V31.4263Z" fill="#15C7C7"/>
<path id="STMIK Insan Pembangunan" d="M60.2765 19.5966C60.0243 19.6207 59.7799 19.6089 59.5432 19.5612C59.3099 19.5132 59.1184 19.4344 58.9687 19.3248C58.8998 19.2778 58.8607 19.2129 58.8516 19.1301C58.8449 19.0705 58.856 19.0192 58.8848 18.9763C58.9132 18.93 58.9506 18.9047 58.9971 18.9003C59.0435 18.8958 59.1023 18.912 59.1735 18.9487C59.493 19.1391 59.842 19.2163 60.2203 19.1801C60.4857 19.1548 60.6843 19.0856 60.8159 18.9726C60.9476 18.8596 61.0031 18.7103 60.9826 18.5248C60.9664 18.379 60.8879 18.276 60.7471 18.2158C60.6063 18.1556 60.3862 18.1063 60.0868 18.0679C59.8015 18.0349 59.565 17.9889 59.3774 17.9298C59.1897 17.8707 59.0373 17.7815 58.9201 17.6621C58.8059 17.5391 58.7375 17.3765 58.7151 17.1744C58.6927 16.9724 58.7276 16.7882 58.8198 16.622C58.915 16.4522 59.0574 16.3148 59.2469 16.2096C59.4361 16.1011 59.6584 16.0347 59.9139 16.0103C60.1495 15.9878 60.3705 16.0001 60.577 16.0474C60.7834 16.0946 60.9635 16.1762 61.1172 16.2921C61.1898 16.3421 61.2305 16.4068 61.2393 16.4863C61.2456 16.5426 61.2329 16.5941 61.2011 16.6406C61.1727 16.6869 61.1353 16.7122 61.0888 16.7167C61.0457 16.7208 60.9886 16.7045 60.9174 16.6677C60.7519 16.5664 60.5984 16.4973 60.4568 16.4606C60.3182 16.4203 60.1544 16.4092 59.9652 16.4272C59.7097 16.4517 59.5165 16.5237 59.3856 16.6433C59.2543 16.7597 59.1989 16.9106 59.2195 17.0961C59.2371 17.2552 59.3136 17.3701 59.4489 17.4408C59.5838 17.5083 59.7943 17.5618 60.0804 17.6015C60.3797 17.6398 60.623 17.6869 60.8103 17.7427C61.0005 17.7948 61.1557 17.8788 61.2758 17.9945C61.3989 18.1066 61.4713 18.2604 61.493 18.4559C61.5151 18.6547 61.4783 18.8373 61.3828 19.0038C61.2902 19.1667 61.1474 19.3008 60.9546 19.4063C60.7647 19.5082 60.5386 19.5716 60.2765 19.5966ZM63.2578 19.2968C63.1815 19.3041 63.1159 19.2869 63.0609 19.2453C63.009 19.2 62.9788 19.1393 62.9703 19.0631L62.655 16.2205L61.6596 16.3156C61.5003 16.3308 61.4127 16.2672 61.3969 16.1247C61.3892 16.0552 61.4033 16.0003 61.439 15.96C61.4781 15.9194 61.5358 15.8955 61.6122 15.8882L64.1207 15.6486C64.1971 15.6413 64.2571 15.654 64.301 15.6866C64.3482 15.7189 64.3756 15.7699 64.3834 15.8394C64.3992 15.9819 64.3274 16.0607 64.1681 16.0759L63.1727 16.171L63.488 19.0136C63.4964 19.0898 63.4802 19.155 63.4392 19.2091C63.3979 19.2599 63.3374 19.2892 63.2578 19.2968ZM67.8981 15.2626C67.9711 15.2556 68.0336 15.2748 68.0856 15.32C68.1372 15.362 68.1672 15.421 68.1756 15.4972L68.5141 18.5485C68.5225 18.6247 68.5076 18.6864 68.4692 18.7336C68.4342 18.7805 68.3802 18.8074 68.3072 18.8144C68.2375 18.821 68.1803 18.8047 68.1357 18.7655C68.0911 18.7262 68.0646 18.6685 68.0562 18.5923L67.7999 16.2814L67.0299 18.2283C66.9797 18.3502 66.9048 18.416 66.8053 18.4255C66.7057 18.435 66.618 18.3848 66.5421 18.2749L65.3582 16.5348L65.6123 18.8257C65.6207 18.9019 65.6074 18.9635 65.5724 19.0103C65.5374 19.0572 65.4833 19.0841 65.4103 19.0911C65.3407 19.0978 65.2819 19.0816 65.2339 19.0427C65.189 19.0001 65.1625 18.9424 65.1544 18.8695L64.8159 15.8182C64.8075 15.742 64.8239 15.6785 64.8652 15.6277C64.9062 15.5735 64.9631 15.543 65.0361 15.536C65.139 15.5262 65.2286 15.5779 65.3049 15.6911L66.7463 17.8486L67.6741 15.4648C67.7239 15.3395 67.7986 15.2721 67.8981 15.2626ZM69.6153 18.6894C69.539 18.6967 69.475 18.6794 69.4234 18.6374C69.3718 18.5955 69.3416 18.5348 69.3328 18.4552L68.996 15.4189C68.9876 15.3427 69.004 15.2792 69.0453 15.2283C69.0862 15.1742 69.1449 15.1435 69.2212 15.1362C69.3008 15.1286 69.3664 15.1458 69.418 15.1877C69.4696 15.2296 69.4999 15.2904 69.5087 15.3699L69.8455 18.4063C69.8543 18.4858 69.838 18.5509 69.7967 18.6018C69.7587 18.6523 69.6983 18.6815 69.6153 18.6894ZM73.2558 17.9248C73.3181 17.9724 73.3527 18.0277 73.3597 18.0906C73.3667 18.1536 73.3478 18.2106 73.3032 18.2618C73.2619 18.3126 73.2097 18.341 73.1467 18.347C73.0836 18.353 73.0226 18.3321 72.9636 18.2842L71.0148 16.8582L71.1724 18.2795C71.1812 18.359 71.165 18.4242 71.1237 18.475C71.0857 18.5255 71.0252 18.5547 70.9423 18.5626C70.8659 18.5699 70.802 18.5526 70.7504 18.5107C70.6988 18.4687 70.6686 18.408 70.6598 18.3285L70.323 15.2921C70.3145 15.2159 70.331 15.1524 70.3723 15.1016C70.4132 15.0474 70.4718 15.0167 70.5482 15.0094C70.6278 15.0018 70.6934 15.019 70.745 15.0609C70.7966 15.1029 70.8268 15.1636 70.8356 15.2431L70.9867 16.6048L72.5125 14.8971C72.5538 14.8463 72.606 14.8179 72.6691 14.8118C72.7321 14.8058 72.7894 14.8238 72.841 14.8657C72.8926 14.9077 72.9217 14.9584 72.9283 15.0181C72.9353 15.081 72.9136 15.1417 72.863 15.2001L71.5264 16.6637L73.2558 17.9248ZM45.0823 28.0642C45.0059 28.0715 44.942 28.0541 44.8904 28.0122C44.8388 27.9703 44.8086 27.9095 44.7998 27.83L44.463 24.7936C44.4545 24.7174 44.471 24.6539 44.5123 24.6031C44.5532 24.549 44.6118 24.5183 44.6882 24.511C44.7678 24.5034 44.8334 24.5205 44.885 24.5625C44.9366 24.6044 44.9668 24.6651 44.9756 24.7447L45.3124 27.781C45.3212 27.8606 45.305 27.9257 45.2637 27.9765C45.2257 28.027 45.1652 28.0563 45.0823 28.0642ZM47.1263 25.3327C47.707 25.2772 48.0336 25.5758 48.106 26.2285L48.2493 27.5206C48.2577 27.5968 48.2411 27.6586 48.1994 27.7061C48.1607 27.75 48.1015 27.7757 48.0219 27.7834C47.9456 27.7906 47.8818 27.775 47.8306 27.7363C47.7826 27.6974 47.7546 27.6415 47.7466 27.5686L47.606 26.3014C47.5832 26.096 47.525 25.9492 47.4314 25.861C47.3411 25.7726 47.2097 25.7366 47.0372 25.753C46.8347 25.7724 46.6791 25.8509 46.5703 25.9885C46.4615 26.1261 46.4189 26.3009 46.4424 26.513L46.5719 27.6808C46.58 27.7537 46.5632 27.8139 46.5215 27.8614C46.4832 27.9086 46.4258 27.9358 46.3495 27.9431C46.2732 27.9504 46.2094 27.9347 46.1582 27.8961C46.1069 27.8575 46.0773 27.8017 46.0692 27.7288L45.8449 25.7062C45.8371 25.6367 45.8541 25.5781 45.8958 25.5306C45.9404 25.4795 45.9992 25.4504 46.0722 25.4434C46.1452 25.4365 46.2057 25.4525 46.2536 25.4914C46.3015 25.5304 46.3293 25.5846 46.3371 25.6542L46.3597 25.8579C46.4231 25.7046 46.522 25.583 46.6562 25.4931C46.7904 25.4033 46.9472 25.3498 47.1263 25.3327ZM49.8107 27.6225C49.4722 27.6548 49.1875 27.6117 48.9563 27.4932C48.8926 27.4625 48.8452 27.4285 48.8143 27.3913C48.7866 27.3537 48.77 27.3101 48.7645 27.2604C48.7587 27.2074 48.7686 27.1612 48.7944 27.122C48.8203 27.0827 48.8564 27.0608 48.9029 27.0563C48.946 27.0522 49.017 27.0722 49.1157 27.1164C49.2212 27.1599 49.3222 27.1937 49.4188 27.218C49.5187 27.2419 49.64 27.2471 49.7826 27.2335C49.9419 27.2182 50.0632 27.1782 50.1466 27.1133C50.2299 27.0484 50.2659 26.9646 50.2545 26.8619C50.2472 26.7957 50.223 26.7444 50.1821 26.7081C50.1445 26.6716 50.0809 26.6425 49.9914 26.6209C49.9014 26.596 49.7698 26.5734 49.5965 26.5532C49.2975 26.5181 49.0775 26.4537 48.9363 26.3601C48.7981 26.2628 48.7187 26.1214 48.6981 25.9359C48.6823 25.7934 48.7096 25.6619 48.7801 25.5413C48.8502 25.4175 48.9547 25.3171 49.0938 25.2402C49.2328 25.1633 49.3952 25.116 49.581 25.0982C49.7138 25.0855 49.8452 25.0914 49.9753 25.1158C50.1051 25.1369 50.2218 25.1759 50.3253 25.233C50.4429 25.2954 50.507 25.3747 50.5177 25.4708C50.5236 25.5238 50.5119 25.5701 50.4828 25.6097C50.457 25.649 50.4225 25.6707 50.3794 25.6748C50.3495 25.6777 50.3189 25.6739 50.2876 25.6635C50.2562 25.6531 50.214 25.6354 50.161 25.6103C50.0655 25.5659 49.9763 25.5325 49.8933 25.5103C49.8137 25.4878 49.7158 25.4821 49.5997 25.4932C49.4603 25.5065 49.3508 25.5471 49.2711 25.615C49.1948 25.6825 49.1623 25.7676 49.1737 25.8703C49.184 25.9631 49.2303 26.0324 49.3125 26.0781C49.3976 26.1202 49.5506 26.1541 49.7714 26.1799C49.9989 26.205 50.179 26.2414 50.3117 26.289C50.4444 26.3366 50.5422 26.4025 50.6053 26.4869C50.6712 26.5677 50.7117 26.676 50.7268 26.8118C50.7507 27.0271 50.6787 27.2098 50.5109 27.3597C50.3461 27.5061 50.1127 27.5937 49.8107 27.6225ZM52.1066 24.8569C52.4285 24.8262 52.6764 24.8845 52.8504 25.032C53.0277 25.1791 53.1347 25.4183 53.1714 25.7496L53.3142 27.0367C53.3226 27.1129 53.3077 27.1746 53.2693 27.2218C53.2306 27.2657 53.1731 27.2912 53.0967 27.2985C53.0237 27.3055 52.9633 27.2895 52.9154 27.2506C52.8675 27.2116 52.8395 27.1557 52.8314 27.0828L52.811 26.8989C52.7634 27.0441 52.6807 27.1608 52.5631 27.2491C52.4484 27.3337 52.3081 27.3839 52.1422 27.3998C51.9829 27.415 51.8334 27.3975 51.6937 27.3472C51.5536 27.2936 51.439 27.2125 51.3498 27.1038C51.264 26.9948 51.2131 26.8691 51.1973 26.7267C51.1779 26.5511 51.2074 26.4093 51.286 26.3014C51.3675 26.1898 51.5104 26.1025 51.7147 26.0394C51.9223 25.9761 52.2102 25.9268 52.5785 25.8916L52.693 25.8807L52.677 25.7366C52.6564 25.551 52.6034 25.4205 52.5179 25.345C52.4324 25.2694 52.305 25.2397 52.1358 25.2559C52.0197 25.267 51.9118 25.2924 51.8123 25.332C51.7127 25.3717 51.6047 25.4255 51.4881 25.4936C51.404 25.5518 51.3438 25.5827 51.3073 25.5862C51.2575 25.5909 51.214 25.5767 51.1768 25.5434C51.1429 25.5098 51.1228 25.4648 51.1165 25.4085C51.111 25.3588 51.1195 25.3145 51.142 25.2755C51.1675 25.2329 51.2097 25.1904 51.2687 25.1479C51.3779 25.0739 51.5084 25.0112 51.6603 24.9598C51.8119 24.9052 51.9606 24.8709 52.1066 24.8569ZM52.1905 27.0185C52.373 27.0011 52.5155 26.9255 52.618 26.7918C52.7202 26.6548 52.7604 26.4886 52.7388 26.2931L52.7244 26.1639L52.6348 26.1725C52.376 26.1972 52.1782 26.2278 52.0414 26.2643C51.9046 26.3008 51.8095 26.3501 51.756 26.4121C51.7022 26.4709 51.6809 26.5516 51.6923 26.6543C51.7055 26.7735 51.7595 26.8671 51.8542 26.9351C51.949 27.0031 52.061 27.0309 52.1905 27.0185ZM55.059 24.5749C55.6397 24.5194 55.9662 24.818 56.0386 25.4707L56.1819 26.7627C56.1904 26.8389 56.1737 26.9008 56.1321 26.9483C56.0933 26.9922 56.0342 27.0179 55.9545 27.0255C55.8782 27.0328 55.8144 27.0171 55.7632 26.9785C55.7153 26.9396 55.6873 26.8836 55.6792 26.8108L55.5386 25.5435C55.5159 25.3381 55.4577 25.1913 55.364 25.1032C55.2738 25.0147 55.1423 24.9787 54.9698 24.9952C54.7674 25.0145 54.6118 25.093 54.503 25.2307C54.3941 25.3683 54.3515 25.5431 54.375 25.7551L54.5045 26.923C54.5126 26.9959 54.4958 27.0561 54.4542 27.1036C54.4158 27.1508 54.3585 27.178 54.2821 27.1853C54.2058 27.1926 54.142 27.1769 54.0908 27.1383C54.0396 27.0996 54.0099 27.0439 54.0018 26.971L53.7775 24.9484C53.7698 24.8788 53.7868 24.8203 53.8284 24.7728C53.8731 24.7216 53.9319 24.6926 54.0049 24.6856C54.0779 24.6786 54.1383 24.6946 54.1863 24.7336C54.2342 24.7725 54.262 24.8268 54.2697 24.8964L54.2923 25.1001C54.3558 24.9467 54.4546 24.8251 54.5889 24.7353C54.7231 24.6455 54.8798 24.592 55.059 24.5749ZM58.522 26.7802C58.4457 26.7875 58.3818 26.7702 58.3302 26.7283C58.2786 26.6863 58.2484 26.6256 58.2395 26.5461L57.9044 23.5246C57.896 23.4484 57.9109 23.3867 57.9493 23.3395C57.9906 23.2887 58.0511 23.2595 58.1307 23.2519L59.3302 23.1373C59.7019 23.1018 60.0007 23.1653 60.2266 23.3279C60.4525 23.4904 60.5841 23.739 60.6212 24.0736C60.6579 24.4049 60.5837 24.6732 60.3986 24.8784C60.2134 25.0835 59.935 25.2039 59.5634 25.2394L58.6227 25.3293L58.7522 26.4971C58.761 26.5766 58.7448 26.6418 58.7035 26.6926C58.6655 26.7431 58.605 26.7723 58.522 26.7802ZM59.4629 24.8321C59.954 24.7852 60.1758 24.5481 60.1284 24.1207C60.0814 23.6966 59.8123 23.5081 59.3212 23.555L58.4353 23.6396L58.5769 24.9168L59.4629 24.8321ZM63.2036 25.6902C63.25 25.6857 63.2902 25.7003 63.3241 25.7339C63.358 25.7675 63.3781 25.8124 63.3843 25.8688C63.395 25.9648 63.3443 26.0517 63.2322 26.1294C63.1234 26.2067 63.0013 26.2703 62.866 26.32C62.734 26.3695 62.6049 26.4002 62.4789 26.4123C62.0939 26.449 61.778 26.3671 61.5311 26.1663C61.2838 25.9623 61.1386 25.6665 61.0956 25.2788C61.0681 25.0304 61.0917 24.8054 61.1666 24.6041C61.2449 24.4024 61.3661 24.2402 61.5302 24.1174C61.6976 23.9942 61.8941 23.9219 62.1198 23.9003C62.4449 23.8693 62.7137 23.9491 62.926 24.1397C63.1383 24.3304 63.2641 24.6029 63.3034 24.9574C63.3181 25.0899 63.2657 25.1619 63.1462 25.1733L61.6082 25.3203C61.6984 25.8306 61.9741 26.0637 62.4353 26.0197C62.5581 26.008 62.6624 25.9812 62.7483 25.9396C62.8343 25.8979 62.9241 25.8458 63.0177 25.7832C63.0269 25.7757 63.052 25.7599 63.0929 25.7359C63.1368 25.7083 63.1737 25.693 63.2036 25.6902ZM62.1705 24.2671C61.978 24.2855 61.8305 24.3615 61.728 24.4952C61.6255 24.6289 61.5749 24.8078 61.5763 25.032L62.8604 24.9093C62.8255 24.685 62.7483 24.5183 62.6289 24.4092C62.5124 24.2964 62.3596 24.2491 62.1705 24.2671ZM66.5162 23.4803C67.0604 23.4283 67.3687 23.7287 67.4411 24.3813L67.5844 25.6734C67.5929 25.7496 67.5762 25.8115 67.5346 25.859C67.4925 25.9032 67.4333 25.9289 67.357 25.9362C67.284 25.9432 67.2221 25.929 67.1712 25.8937C67.12 25.8551 67.0901 25.7976 67.0817 25.7214L66.9389 24.4343C66.9165 24.2322 66.8638 24.09 66.7809 24.0075C66.6976 23.9217 66.578 23.8862 66.4221 23.9011C66.2396 23.9186 66.1022 23.9953 66.01 24.1314C65.9174 24.2641 65.883 24.4381 65.9069 24.6535L66.0365 25.8213C66.0449 25.8975 66.0283 25.9593 65.9866 26.0069C65.9446 26.0511 65.8854 26.0768 65.8091 26.0841C65.7361 26.0911 65.6741 26.0769 65.6233 26.0416C65.572 26.0029 65.5422 25.9455 65.5337 25.8693L65.391 24.5822C65.3686 24.3801 65.3159 24.2378 65.233 24.1554C65.1497 24.0696 65.0301 24.0341 64.8741 24.049C64.6916 24.0665 64.5526 24.1434 64.457 24.2797C64.3645 24.4124 64.3301 24.5865 64.354 24.8018L64.4835 25.9697C64.492 26.0459 64.4754 26.1077 64.4337 26.1552C64.3916 26.1994 64.3341 26.225 64.2611 26.232C64.1881 26.2389 64.1245 26.2249 64.0703 26.1899C64.0191 26.1513 63.9893 26.0939 63.9808 26.0177L63.7565 23.9951C63.7484 23.9222 63.7668 23.8618 63.8118 23.814C63.8568 23.7662 63.9142 23.739 63.9839 23.7323C64.0535 23.7256 64.1123 23.7418 64.1603 23.7807C64.2111 23.816 64.2406 23.8702 64.2487 23.943L64.2691 24.1269C64.3266 23.9808 64.4161 23.8651 64.5374 23.7799C64.6587 23.6946 64.804 23.6439 64.9732 23.6277C65.1591 23.61 65.3159 23.6335 65.4438 23.6983C65.5751 23.7628 65.6794 23.8716 65.7567 24.025C65.8139 23.8755 65.9093 23.7526 66.0428 23.6561C66.1759 23.5564 66.3337 23.4978 66.5162 23.4803ZM69.325 23.212C69.5373 23.1917 69.7305 23.2252 69.9045 23.3123C70.0785 23.3995 70.2207 23.5332 70.3313 23.7135C70.4451 23.8935 70.516 24.1093 70.5439 24.3611C70.5715 24.6096 70.5495 24.8344 70.4779 25.0354C70.4096 25.2361 70.2984 25.3974 70.1442 25.5193C69.9934 25.6408 69.8135 25.7116 69.6044 25.7315C69.4219 25.749 69.2568 25.7263 69.1089 25.6634C68.9608 25.5972 68.8421 25.4947 68.7529 25.3559L68.775 25.5547C68.783 25.6275 68.7664 25.6894 68.7251 25.7402C68.6868 25.7874 68.6294 25.8146 68.5531 25.8219C68.4768 25.8292 68.413 25.8136 68.3618 25.7749C68.3102 25.733 68.2803 25.6756 68.2722 25.6027L67.9316 22.5315C67.9235 22.4586 67.9403 22.3984 67.982 22.3509C68.027 22.3031 68.0876 22.2755 68.164 22.2683C68.237 22.2613 68.2974 22.2773 68.3453 22.3162C68.3962 22.3515 68.4255 22.404 68.4332 22.4736L68.5743 23.7457C68.6312 23.593 68.7248 23.4702 68.8554 23.3774C68.9859 23.2846 69.1425 23.2294 69.325 23.212ZM69.4409 25.3454C69.6565 25.3248 69.8157 25.2326 69.9182 25.0688C70.0241 24.9046 70.0618 24.6851 70.0313 24.4101C70.0011 24.1384 69.9183 23.9354 69.7826 23.8011C69.6467 23.6634 69.4692 23.605 69.2502 23.6259C69.0311 23.6469 68.8702 23.7376 68.7673 23.8981C68.6677 24.0583 68.6331 24.2758 68.6636 24.5508C68.6941 24.8258 68.7757 25.0323 68.9084 25.1703C69.0444 25.3079 69.2219 25.3663 69.4409 25.3454ZM71.982 22.9582C72.3038 22.9274 72.5517 22.9858 72.7257 23.1332C72.903 23.2803 73.01 23.5195 73.0468 23.8508L73.1895 25.1379C73.198 25.2141 73.183 25.2758 73.1447 25.323C73.1059 25.3669 73.0484 25.3925 72.9721 25.3998C72.8991 25.4068 72.8386 25.3908 72.7907 25.3518C72.7428 25.3129 72.7148 25.257 72.7067 25.1841L72.6863 25.0002C72.6387 25.1454 72.5561 25.2621 72.4384 25.3503C72.3237 25.4349 72.1834 25.4852 72.0175 25.501C71.8583 25.5162 71.7088 25.4987 71.5691 25.4484C71.429 25.3949 71.3143 25.3137 71.2252 25.2051C71.1393 25.0961 71.0885 24.9704 71.0727 24.8279C71.0532 24.6523 71.0827 24.5105 71.1613 24.4026C71.2428 24.291 71.3857 24.2037 71.59 24.1407C71.7976 24.0773 72.0855 24.028 72.4539 23.9929L72.5683 23.9819L72.5524 23.8378C72.5318 23.6523 72.4787 23.5217 72.3932 23.4462C72.3077 23.3707 72.1804 23.341 72.0111 23.3572C71.895 23.3682 71.7871 23.3936 71.6876 23.4333C71.588 23.4729 71.48 23.5268 71.3635 23.5948C71.2794 23.6531 71.2191 23.6839 71.1826 23.6874C71.1328 23.6922 71.0893 23.6779 71.0521 23.6446C71.0182 23.611 70.9981 23.5661 70.9919 23.5098C70.9863 23.4601 70.9948 23.4157 71.0173 23.3768C71.0428 23.3342 71.085 23.2916 71.144 23.2491C71.2532 23.1751 71.3837 23.1124 71.5356 23.0611C71.6872 23.0064 71.836 22.9721 71.982 22.9582ZM72.0658 25.1197C72.2483 25.1023 72.3908 25.0267 72.4934 24.8931C72.5955 24.7561 72.6358 24.5899 72.6141 24.3944L72.5998 24.2652L72.5102 24.2737C72.2513 24.2985 72.0535 24.3291 71.9167 24.3656C71.78 24.4021 71.6848 24.4514 71.6313 24.5134C71.5775 24.5721 71.5563 24.6528 71.5677 24.7555C71.5809 24.8748 71.6349 24.9684 71.7296 25.0363C71.8243 25.1043 71.9364 25.1321 72.0658 25.1197ZM74.9343 22.6761C75.515 22.6206 75.8415 22.9192 75.9139 23.5719L76.0572 24.864C76.0657 24.9402 76.0491 25.002 76.0074 25.0495C75.9687 25.0934 75.9095 25.1192 75.8299 25.1268C75.7535 25.1341 75.6898 25.1184 75.6385 25.0798C75.5906 25.0408 75.5626 24.9849 75.5545 24.912L75.414 23.6448C75.3912 23.4394 75.333 23.2926 75.2394 23.2044C75.1491 23.116 75.0177 23.08 74.8451 23.0965C74.6427 23.1158 74.4871 23.1943 74.3783 23.3319C74.2695 23.4695 74.2268 23.6444 74.2503 23.8564L74.3799 25.0242C74.388 25.0971 74.3712 25.1573 74.3295 25.2048C74.2911 25.252 74.2338 25.2792 74.1575 25.2865C74.0811 25.2938 74.0174 25.2782 73.9661 25.2395C73.9149 25.2009 73.8852 25.1451 73.8772 25.0722L73.6528 23.0497C73.6451 22.9801 73.6621 22.9215 73.7038 22.874C73.7484 22.8229 73.8072 22.7938 73.8802 22.7869C73.9532 22.7799 74.0137 22.7959 74.0616 22.8348C74.1095 22.8738 74.1373 22.928 74.145 22.9976L74.1676 23.2014C74.2311 23.048 74.3299 22.9264 74.4642 22.8365C74.5984 22.7467 74.7551 22.6932 74.9343 22.6761ZM78.505 22.345C78.5813 22.3377 78.6436 22.3552 78.6919 22.3975C78.7431 22.4361 78.7728 22.4919 78.7809 22.5648L79.0069 24.6023C79.048 24.9733 78.9795 25.2628 78.8014 25.4707C78.6266 25.6782 78.3467 25.8004 77.9618 25.8371C77.6034 25.8714 77.2972 25.832 77.0433 25.719C76.9128 25.6611 76.8422 25.5842 76.8315 25.4881C76.8253 25.4318 76.8351 25.384 76.8609 25.3447C76.89 25.3051 76.9278 25.283 76.9743 25.2786C77.0174 25.2745 77.0882 25.2928 77.1866 25.3336C77.3123 25.3785 77.4283 25.411 77.5344 25.431C77.641 25.4543 77.7656 25.4591 77.9083 25.4455C78.3662 25.4017 78.5696 25.1496 78.5185 24.6891L78.4761 24.3065C78.4226 24.4589 78.3291 24.5833 78.1956 24.6798C78.0617 24.7729 77.9002 24.8285 77.7111 24.8466C77.4987 24.8669 77.3041 24.8353 77.1271 24.7517C76.9502 24.6682 76.8052 24.5397 76.692 24.3664C76.5822 24.1927 76.5141 23.9866 76.4876 23.7481C76.4612 23.5096 76.4843 23.2948 76.557 23.1037C76.6297 22.9126 76.7418 22.7596 76.8934 22.6446C77.0479 22.5261 77.2314 22.4567 77.4437 22.4364C77.6296 22.4186 77.7966 22.4429 77.9447 22.5091C78.0963 22.5749 78.2166 22.6773 78.3058 22.8161L78.2826 22.6074C78.2745 22.5345 78.2897 22.4744 78.328 22.4272C78.3697 22.3797 78.4287 22.3523 78.505 22.345ZM77.7864 24.4376C78.0021 24.417 78.1634 24.3296 78.2704 24.1754C78.3774 24.0212 78.4169 23.8183 78.389 23.5665C78.3614 23.318 78.2784 23.1284 78.1398 22.9977C78.0042 22.8633 77.8268 22.8066 77.6078 22.8275C77.3888 22.8484 77.2242 22.9361 77.1139 23.0906C77.0069 23.2448 76.9674 23.4478 76.9953 23.6996C77.0233 23.9514 77.1082 24.1425 77.2501 24.2729C77.392 24.4033 77.5707 24.4582 77.7864 24.4376ZM81.3358 22.0746C81.4121 22.0673 81.4742 22.0831 81.5221 22.1221C81.5733 22.1607 81.6032 22.2181 81.6116 22.2943L81.836 24.3169C81.8437 24.3865 81.8267 24.4451 81.785 24.4926C81.7434 24.5401 81.6844 24.5675 81.608 24.5748C81.5384 24.5814 81.4797 24.5669 81.4322 24.5313C81.3843 24.4923 81.3565 24.4381 81.3487 24.3685L81.3278 24.1797C81.2669 24.3261 81.1725 24.4423 81.0445 24.5281C80.9199 24.6137 80.7746 24.6644 80.6087 24.6803C80.018 24.7367 79.6867 24.4402 79.6147 23.7909L79.4714 22.4988C79.4629 22.4226 79.4779 22.3609 79.5162 22.3137C79.5579 22.2662 79.6186 22.2387 79.6982 22.2311C79.7745 22.2238 79.8367 22.2396 79.8846 22.2785C79.9358 22.3172 79.9656 22.3746 79.9741 22.4508L80.1169 23.7379C80.1385 23.9334 80.1943 24.0737 80.2843 24.1588C80.3742 24.244 80.5021 24.2786 80.668 24.2628C80.8638 24.2441 81.0128 24.1662 81.1149 24.0292C81.2204 23.8919 81.2616 23.7189 81.2385 23.5102L81.1089 22.3424C81.1008 22.2695 81.1176 22.2093 81.1593 22.1618C81.2006 22.111 81.2594 22.0819 81.3358 22.0746ZM83.596 21.8486C84.1767 21.7932 84.5033 22.0918 84.5757 22.7444L84.719 24.0365C84.7274 24.1127 84.7108 24.1745 84.6691 24.2221C84.6304 24.2659 84.5712 24.2917 84.4916 24.2993C84.4153 24.3066 84.3515 24.2909 84.3003 24.2523C84.2523 24.2133 84.2243 24.1574 84.2163 24.0845L84.0757 22.8173C84.0529 22.6119 83.9947 22.4651 83.9011 22.377C83.8108 22.2885 83.6794 22.2525 83.5069 22.269C83.3044 22.2883 83.1488 22.3668 83.04 22.5044C82.9312 22.642 82.8886 22.8169 82.9121 23.0289L83.0416 24.1967C83.0497 24.2696 83.0329 24.3298 82.9912 24.3773C82.9529 24.4245 82.8955 24.4518 82.8192 24.4591C82.7429 24.4663 82.6791 24.4507 82.6279 24.412C82.5766 24.3734 82.547 24.3177 82.5389 24.2448L82.3146 22.2222C82.3068 22.1526 82.3238 22.0941 82.3655 22.0465C82.4101 21.9954 82.4689 21.9664 82.5419 21.9594C82.6149 21.9524 82.6754 21.9684 82.7233 22.0073C82.7712 22.0463 82.7991 22.1005 82.8068 22.1701L82.8294 22.3739C82.8928 22.2205 82.9917 22.0989 83.1259 22.0091C83.2601 21.9192 83.4169 21.8658 83.596 21.8486ZM86.1752 21.6022C86.497 21.5715 86.7449 21.6298 86.9189 21.7773C87.0962 21.9244 87.2032 22.1636 87.2399 22.4949L87.3827 23.782C87.3912 23.8582 87.3762 23.9199 87.3378 23.9671C87.2991 24.011 87.2416 24.0366 87.1653 24.0439C87.0923 24.0508 87.0318 24.0348 86.9839 23.9959C86.936 23.9569 86.908 23.901 86.8999 23.8281L86.8795 23.6443C86.8319 23.7894 86.7493 23.9061 86.6316 23.9944C86.5169 24.079 86.3766 24.1292 86.2107 24.1451C86.0515 24.1603 85.902 24.1428 85.7622 24.0925C85.6222 24.0389 85.5075 23.9578 85.4184 23.8491C85.3325 23.7402 85.2817 23.6144 85.2659 23.472C85.2464 23.2964 85.2759 23.1546 85.3545 23.0467C85.436 22.9351 85.5789 22.8478 85.7832 22.7847C85.9908 22.7214 86.2787 22.6721 86.6471 22.6369L86.7615 22.626L86.7456 22.4819C86.725 22.2963 86.6719 22.1658 86.5864 22.0903C86.5009 22.0147 86.3736 21.9851 86.2043 22.0012C86.0882 22.0123 85.9803 22.0377 85.8808 22.0773C85.7812 22.117 85.6732 22.1708 85.5567 22.2389C85.4726 22.2971 85.4123 22.328 85.3758 22.3315C85.326 22.3362 85.2825 22.322 85.2453 22.2887C85.2114 22.2551 85.1913 22.2102 85.1851 22.1538C85.1795 22.1042 85.188 22.0598 85.2105 22.0208C85.236 21.9782 85.2782 21.9357 85.3372 21.8932C85.4464 21.8192 85.5769 21.7565 85.7288 21.7051C85.8804 21.6505 86.0292 21.6162 86.1752 21.6022ZM86.259 23.7638C86.4415 23.7464 86.584 23.6708 86.6865 23.5372C86.7887 23.4002 86.829 23.2339 86.8073 23.0385L86.793 22.9093L86.7034 22.9178C86.4445 22.9425 86.2467 22.9732 86.1099 23.0097C85.9731 23.0462 85.878 23.0954 85.8245 23.1575C85.7707 23.2162 85.7495 23.2969 85.7608 23.3996C85.7741 23.5189 85.828 23.6125 85.9228 23.6804C86.0175 23.7484 86.1296 23.7762 86.259 23.7638ZM89.1275 21.3202C89.7082 21.2647 90.0347 21.5633 90.1071 22.216L90.2504 23.5081C90.2589 23.5843 90.2423 23.6461 90.2006 23.6936C90.1619 23.7375 90.1027 23.7632 90.023 23.7708C89.9467 23.7781 89.8829 23.7625 89.8317 23.7238C89.7838 23.6849 89.7558 23.629 89.7477 23.5561L89.6072 22.2889C89.5844 22.0834 89.5262 21.9367 89.4326 21.8485C89.3423 21.76 89.2109 21.7241 89.0383 21.7405C88.8359 21.7599 88.6803 21.8384 88.5715 21.976C88.4627 22.1136 88.42 22.2884 88.4435 22.5005L88.5731 23.6683C88.5812 23.7412 88.5644 23.8014 88.5227 23.8489C88.4843 23.8961 88.427 23.9233 88.3507 23.9306C88.2743 23.9379 88.2106 23.9222 88.1593 23.8836C88.1081 23.845 88.0784 23.7892 88.0704 23.7163L87.846 21.6937C87.8383 21.6242 87.8553 21.5656 87.897 21.5181C87.9416 21.467 88.0004 21.4379 88.0734 21.4309C88.1464 21.424 88.2069 21.44 88.2548 21.4789C88.3027 21.5179 88.3305 21.5721 88.3382 21.6417L88.3608 21.8454C88.4243 21.6921 88.5231 21.5704 88.6574 21.4806C88.7916 21.3908 88.9483 21.3373 89.1275 21.3202Z" fill="black"/>
</g>
<g id="Group 20_2">
<g id="Group">
<g id="Group 21">
<path id="Vector_30" d="M89.4235 51.1063L89.4781 51.2237L89.6134 51.2221L92.6154 51.1885C94.8776 51.1631 96.7265 52.8487 96.7475 54.9353L96.8011 60.2532C96.8221 62.3399 95.0075 64.0667 92.7454 64.0921L89.7249 64.1259L89.5888 64.1275L89.537 64.2468C87.3041 69.3614 82.5889 73.1365 76.9415 74.448L76.7828 74.4848L76.7843 74.6403L76.8024 76.4333C76.8234 78.52 75.0089 80.2467 72.7467 80.2721C70.4845 80.2975 68.6357 78.6118 68.6147 76.5252C68.5936 74.4397 70.4194 72.7116 72.6983 72.686C79.4295 72.6105 85.4198 68.5787 87.6038 62.6462C87.604 62.6458 87.6041 62.6454 87.6043 62.645L87.6094 62.6317L87.6098 62.6307C88.4907 60.3068 88.7128 57.7502 88.2525 55.2369C88.113 54.3923 87.877 53.5725 87.5446 52.7764L87.5335 52.7499C87.5334 52.7494 87.5332 52.7489 87.533 52.7484C85.4738 47.5513 80.3745 43.7839 74.5362 43.1446C69.0194 42.5361 63.6418 44.5511 60.1464 48.5438C56.588 52.6071 55.6197 57.8802 57.4865 63.0017L57.4865 63.0018L58.0262 64.4817L52.4266 64.5445C50.1644 64.5699 48.3156 62.8842 48.2945 60.7976L48.241 55.4796C48.22 53.393 50.0344 51.6662 52.2966 51.6408L55.2487 51.6077L55.384 51.6062L55.4363 51.4873C56.1165 49.9425 57.0522 48.4748 58.2378 47.1204C62.269 42.5157 68.479 40.1797 74.8332 40.8934L74.8339 40.8935C81.2412 41.5935 86.8427 45.5733 89.4235 51.1063Z" fill="#0AA8B0" stroke="white"/>
<path id="Ellipse 10" d="M72.747 69.6573C80.2029 69.5737 86.1918 64.02 86.1237 57.2529C86.0555 50.4858 79.956 45.0678 72.5001 45.1515C65.0442 45.2351 59.0553 50.7887 59.1234 57.5558C59.1916 64.323 65.2911 69.741 72.747 69.6573Z" fill="#D5E7FF"/>
<path id="SI Consult" d="M63.0467 59.04C62.7933 59.04 62.5517 59.005 62.3217 58.935C62.095 58.865 61.9133 58.7683 61.7767 58.645C61.7133 58.5917 61.6817 58.5233 61.6817 58.44C61.6817 58.38 61.6983 58.33 61.7317 58.29C61.765 58.2467 61.805 58.225 61.8517 58.225C61.8983 58.225 61.955 58.2467 62.0217 58.29C62.3183 58.51 62.6567 58.62 63.0367 58.62C63.3033 58.62 63.5083 58.57 63.6517 58.47C63.795 58.37 63.8667 58.2267 63.8667 58.04C63.8667 57.8933 63.8 57.7833 63.6667 57.71C63.5333 57.6367 63.32 57.5667 63.0267 57.5C62.7467 57.44 62.5167 57.3717 62.3367 57.295C62.1567 57.2183 62.015 57.115 61.9117 56.985C61.8117 56.8517 61.7617 56.6833 61.7617 56.48C61.7617 56.2767 61.8167 56.0967 61.9267 55.94C62.04 55.78 62.1967 55.6567 62.3967 55.57C62.5967 55.48 62.825 55.435 63.0817 55.435C63.3183 55.435 63.5367 55.4683 63.7367 55.535C63.9367 55.6017 64.1067 55.7 64.2467 55.83C64.3133 55.8867 64.3467 55.955 64.3467 56.035C64.3467 56.0917 64.3283 56.1417 64.2917 56.185C64.2583 56.2283 64.2183 56.25 64.1717 56.25C64.1283 56.25 64.0733 56.2283 64.0067 56.185C63.8533 56.0683 63.7083 55.985 63.5717 55.935C63.4383 55.8817 63.2767 55.855 63.0867 55.855C62.83 55.855 62.63 55.9083 62.4867 56.015C62.3433 56.1183 62.2717 56.2633 62.2717 56.45C62.2717 56.61 62.335 56.7317 62.4617 56.815C62.5883 56.895 62.7917 56.9683 63.0717 57.035C63.365 57.1017 63.6017 57.1717 63.7817 57.245C63.965 57.315 64.11 57.4133 64.2167 57.54C64.3267 57.6633 64.3817 57.8233 64.3817 58.02C64.3817 58.22 64.325 58.3983 64.2117 58.555C64.1017 58.7083 63.945 58.8283 63.7417 58.915C63.5417 58.9983 63.31 59.04 63.0467 59.04ZM65.2714 59.025C65.1948 59.025 65.1331 59.0017 65.0864 58.955C65.0398 58.9083 65.0164 58.845 65.0164 58.765L65.0164 55.71C65.0164 55.6333 65.0398 55.5717 65.0864 55.525C65.1331 55.475 65.1948 55.45 65.2714 55.45C65.3514 55.45 65.4148 55.4733 65.4614 55.52C65.5081 55.5667 65.5314 55.63 65.5314 55.71L65.5314 58.765C65.5314 58.845 65.5081 58.9083 65.4614 58.955C65.4181 59.0017 65.3548 59.025 65.2714 59.025ZM69.2028 59.04C68.8661 59.04 68.5728 58.9683 68.3228 58.825C68.0728 58.6783 67.8811 58.47 67.7478 58.2C67.6145 57.9267 67.5478 57.605 67.5478 57.235C67.5478 56.8683 67.6145 56.55 67.7478 56.28C67.8811 56.0067 68.0728 55.7983 68.3228 55.655C68.5728 55.5083 68.8661 55.435 69.2028 55.435C69.4228 55.435 69.6311 55.47 69.8278 55.54C70.0245 55.6067 70.1961 55.705 70.3428 55.835C70.4061 55.885 70.4378 55.9517 70.4378 56.035C70.4378 56.095 70.4211 56.1467 70.3878 56.19C70.3545 56.23 70.3145 56.25 70.2678 56.25C70.2111 56.25 70.1561 56.2283 70.1028 56.185C69.9428 56.065 69.7961 55.9817 69.6628 55.935C69.5328 55.885 69.3845 55.86 69.2178 55.86C68.8511 55.86 68.5695 55.9783 68.3728 56.215C68.1761 56.4517 68.0778 56.7917 68.0778 57.235C68.0778 57.6817 68.1761 58.0233 68.3728 58.26C68.5695 58.4967 68.8511 58.615 69.2178 58.615C69.3778 58.615 69.5228 58.59 69.6528 58.54C69.7861 58.49 69.9361 58.4067 70.1028 58.29C70.1695 58.2467 70.2245 58.225 70.2678 58.225C70.3145 58.225 70.3545 58.2467 70.3878 58.29C70.4211 58.33 70.4378 58.38 70.4378 58.44C70.4378 58.5233 70.4061 58.59 70.3428 58.64C70.1961 58.77 70.0245 58.87 69.8278 58.94C69.6311 59.0067 69.4228 59.04 69.2028 59.04ZM72.0028 59.035C71.7628 59.035 71.5511 58.9833 71.3678 58.88C71.1878 58.7767 71.0478 58.63 70.9478 58.44C70.8511 58.2467 70.8028 58.0233 70.8028 57.77C70.8028 57.5133 70.8511 57.29 70.9478 57.1C71.0478 56.9067 71.1878 56.7583 71.3678 56.655C71.5511 56.5517 71.7628 56.5 72.0028 56.5C72.2428 56.5 72.4528 56.5517 72.6328 56.655C72.8161 56.7583 72.9561 56.9067 73.0528 57.1C73.1528 57.29 73.2028 57.5133 73.2028 57.77C73.2028 58.0233 73.1528 58.2467 73.0528 58.44C72.9561 58.63 72.8161 58.7767 72.6328 58.88C72.4528 58.9833 72.2428 59.035 72.0028 59.035ZM72.0028 58.635C72.2261 58.635 72.3961 58.5617 72.5128 58.415C72.6328 58.2683 72.6928 58.0533 72.6928 57.77C72.6928 57.49 72.6328 57.2767 72.5128 57.13C72.3928 56.98 72.2228 56.905 72.0028 56.905C71.7828 56.905 71.6128 56.98 71.4928 57.13C71.3728 57.2767 71.3128 57.49 71.3128 57.77C71.3128 58.0533 71.3711 58.2683 71.4878 58.415C71.6078 58.5617 71.7794 58.635 72.0028 58.635ZM75.08 56.5C75.6634 56.5 75.955 56.8283 75.955 57.485L75.955 58.785C75.955 58.8617 75.9317 58.9217 75.885 58.965C75.8417 59.005 75.78 59.025 75.7 59.025C75.6234 59.025 75.5617 59.0033 75.515 58.96C75.4717 58.9167 75.45 58.8583 75.45 58.785L75.45 57.51C75.45 57.3033 75.4084 57.1517 75.325 57.055C75.245 56.9583 75.1184 56.91 74.945 56.91C74.7417 56.91 74.5784 56.9733 74.455 57.1C74.3317 57.2267 74.27 57.3967 74.27 57.61L74.27 58.785C74.27 58.8583 74.2467 58.9167 74.2 58.96C74.1567 59.0033 74.0967 59.025 74.02 59.025C73.9434 59.025 73.8817 59.0033 73.835 58.96C73.7884 58.9167 73.765 58.8583 73.765 58.785L73.765 56.75C73.765 56.68 73.7884 56.6233 73.835 56.58C73.885 56.5333 73.9467 56.51 74.02 56.51C74.0934 56.51 74.1517 56.5317 74.195 56.575C74.2384 56.6183 74.26 56.675 74.26 56.745L74.26 56.95C74.34 56.8033 74.4517 56.6917 74.595 56.615C74.7384 56.5383 74.9 56.5 75.08 56.5ZM77.4959 59.035C77.1559 59.035 76.8776 58.965 76.6609 58.825C76.6009 58.7883 76.5576 58.75 76.5309 58.71C76.5076 58.67 76.4959 58.625 76.4959 58.575C76.4959 58.5217 76.5109 58.4767 76.5409 58.44C76.5709 58.4033 76.6092 58.385 76.6559 58.385C76.6992 58.385 76.7676 58.4117 76.8609 58.465C76.9609 58.5183 77.0576 58.5617 77.1509 58.595C77.2476 58.6283 77.3676 58.645 77.5109 58.645C77.6709 58.645 77.7959 58.6167 77.8859 58.56C77.9759 58.5033 78.0209 58.4233 78.0209 58.32C78.0209 58.2533 78.0026 58.2 77.9659 58.16C77.9326 58.12 77.8726 58.085 77.7859 58.055C77.6992 58.0217 77.5709 57.9867 77.4009 57.95C77.1076 57.8867 76.8959 57.8017 76.7659 57.695C76.6392 57.585 76.5759 57.4367 76.5759 57.25C76.5759 57.1067 76.6176 56.9783 76.7009 56.865C76.7842 56.7483 76.8992 56.6583 77.0459 56.595C77.1926 56.5317 77.3592 56.5 77.5459 56.5C77.6792 56.5 77.8092 56.5183 77.9359 56.555C78.0626 56.5883 78.1742 56.6383 78.2709 56.705C78.3809 56.7783 78.4359 56.8633 78.4359 56.96C78.4359 57.0133 78.4192 57.0583 78.3859 57.095C78.3559 57.1317 78.3192 57.15 78.2759 57.15C78.2459 57.15 78.2159 57.1433 78.1859 57.13C78.1559 57.1167 78.1159 57.095 78.0659 57.065C77.9759 57.0117 77.8909 56.97 77.8109 56.94C77.7342 56.91 77.6376 56.895 77.5209 56.895C77.3809 56.895 77.2676 56.925 77.1809 56.985C77.0976 57.045 77.0559 57.1267 77.0559 57.23C77.0559 57.3233 77.0942 57.3967 77.1709 57.45C77.2509 57.5 77.3992 57.5483 77.6159 57.595C77.8392 57.6417 78.0142 57.695 78.1409 57.755C78.2676 57.815 78.3576 57.89 78.4109 57.98C78.4676 58.0667 78.4959 58.1783 78.4959 58.315C78.4959 58.5317 78.4042 58.7067 78.2209 58.84C78.0409 58.97 77.7992 59.035 77.4959 59.035ZM80.948 56.51C81.0247 56.51 81.0847 56.5317 81.128 56.575C81.1747 56.6183 81.198 56.6783 81.198 56.755L81.198 58.79C81.198 58.86 81.1747 58.9167 81.128 58.96C81.0813 59.0033 81.0197 59.025 80.943 59.025C80.873 59.025 80.8163 59.005 80.773 58.965C80.7297 58.9217 80.708 58.865 80.708 58.795L80.708 58.605C80.6313 58.745 80.5247 58.8517 80.388 58.925C80.2547 58.9983 80.1047 59.035 79.938 59.035C79.3447 59.035 79.048 58.7083 79.048 58.055L79.048 56.755C79.048 56.6783 79.0697 56.6183 79.113 56.575C79.1597 56.5317 79.223 56.51 79.303 56.51C79.3797 56.51 79.4397 56.5317 79.483 56.575C79.5297 56.6183 79.553 56.6783 79.553 56.755L79.553 58.05C79.553 58.2467 79.593 58.3917 79.673 58.485C79.753 58.5783 79.8763 58.625 80.043 58.625C80.2397 58.625 80.3963 58.5617 80.513 58.435C80.633 58.3083 80.693 58.14 80.693 57.93L80.693 56.755C80.693 56.6817 80.7163 56.6233 80.763 56.58C80.8097 56.5333 80.8713 56.51 80.948 56.51ZM82.1597 59.025C82.0864 59.025 82.0247 59.005 81.9747 58.965C81.928 58.925 81.9047 58.865 81.9047 58.785L81.9047 55.695C81.9047 55.615 81.928 55.555 81.9747 55.515C82.0247 55.4717 82.0864 55.45 82.1597 55.45C82.233 55.45 82.293 55.4717 82.3397 55.515C82.3864 55.555 82.4097 55.615 82.4097 55.695L82.4097 58.785C82.4097 58.865 82.3864 58.925 82.3397 58.965C82.293 59.005 82.233 59.025 82.1597 59.025ZM84.3106 58.64C84.384 58.6467 84.4356 58.6667 84.4656 58.7C84.499 58.73 84.5156 58.7733 84.5156 58.83C84.5156 58.8967 84.489 58.9483 84.4356 58.985C84.3856 59.0183 84.3106 59.0317 84.2106 59.025L84.0756 59.015C83.8056 58.995 83.604 58.9133 83.4706 58.77C83.3373 58.6233 83.2706 58.4083 83.2706 58.125L83.2706 56.95L82.9706 56.95C82.824 56.95 82.7506 56.885 82.7506 56.755C82.7506 56.695 82.769 56.6483 82.8056 56.615C82.8456 56.5783 82.9006 56.56 82.9706 56.56L83.2706 56.56L83.2706 56.045C83.2706 55.9683 83.2923 55.9083 83.3356 55.865C83.3823 55.8217 83.444 55.8 83.5206 55.8C83.5973 55.8 83.659 55.8217 83.7056 55.865C83.7523 55.9083 83.7756 55.9683 83.7756 56.045L83.7756 56.56L84.2706 56.56C84.3406 56.56 84.394 56.5783 84.4306 56.615C84.4706 56.6483 84.4906 56.695 84.4906 56.755C84.4906 56.8183 84.4706 56.8667 84.4306 56.9C84.394 56.9333 84.3406 56.95 84.2706 56.95L83.7756 56.95L83.7756 58.16C83.7756 58.3167 83.8073 58.4317 83.8706 58.505C83.9373 58.5783 84.0373 58.62 84.1706 58.63L84.3106 58.64Z" fill="black"/>
</g>
</g>
</g>
</g>
</g>
<defs>
<filter id="filter0_d" x="0" y="0" width="146" height="115" filterUnits="userSpaceOnUse" color-interpolation-filters="sRGB">
<feFlood flood-opacity="0" result="BackgroundImageFix"/>
<feColorMatrix in="SourceAlpha" type="matrix" values="0 0 0 0 0 0 0 0 0 0 0 0 0 0 0 0 0 0 127 0"/>
<feOffset dy="4"/>
<feGaussianBlur stdDeviation="2"/>
<feColorMatrix type="matrix" values="0 0 0 0 0 0 0 0 0 0 0 0 0 0 0 0 0 0 0.25 0"/>
<feBlend mode="normal" in2="BackgroundImageFix" result="effect1_dropShadow"/>
<feBlend mode="normal" in="SourceGraphic" in2="effect1_dropShadow" result="shape"/>
</filter>
</defs>
</svg>
