<svg width="176" height="133" viewBox="0 0 176 133" fill="none" xmlns="http://www.w3.org/2000/svg">
<g id="Group 24" filter="url(#filter0_d)">
<g id="Group 20">
<rect id="Rectangle 13" x="4" width="168" height="125" rx="30" fill="#ACCEFF"/>
<g id="Group 26">
<path id="Vector" d="M18.7499 57.1699C18.8948 64.8519 22.2387 65.6836 26.3451 64.8824C31.0362 63.9671 34.8865 61.0982 36.7841 57.3025L38.0929 54.6848C38.9629 52.9445 38.9922 50.9788 38.1743 49.2199C37.3564 47.4611 35.7582 46.0533 33.7314 45.3062H33.7314C32.7279 44.9363 31.6493 44.7398 30.5573 44.7278C29.4652 44.7158 28.3811 44.8886 27.3669 45.2363C26.3526 45.5841 25.4281 46.0999 24.646 46.7545C23.864 47.409 23.2397 48.1894 22.8089 49.0511C18.5976 50.4716 17.7658 53.4124 18.7499 57.1699Z" fill="#2F2E41"/>
<path id="Vector_2" d="M45.1544 41.7086L46.4148 39.8772C46.5687 39.6536 46.6616 39.403 46.6866 39.1441C46.7116 38.8852 46.668 38.6249 46.5591 38.3825C46.4501 38.1402 46.2787 37.9222 46.0576 37.7449C45.8366 37.5676 45.5716 37.4355 45.2826 37.3587V37.3587C44.9776 37.2776 44.6544 37.2602 44.34 37.3081C44.0256 37.356 43.7291 37.4677 43.4752 37.6339C43.2213 37.8002 43.0173 38.0161 42.8803 38.2637C42.7432 38.5114 42.6771 38.7835 42.6874 39.0576L42.7615 41.0261L36.8383 54.9642L40.0683 55.5432L45.1544 41.7086Z" fill="#9F616A"/>
<path id="Vector_3" d="M13.9929 76.0685L12.4415 77.727C12.252 77.9295 12.1185 78.1662 12.0508 78.4194C11.9831 78.6725 11.9831 78.9356 12.0507 79.1888C12.1183 79.442 12.2518 79.6787 12.4412 79.8813C12.6306 80.0838 12.8709 80.2469 13.1442 80.3583V80.3583C13.4327 80.4759 13.7497 80.5326 14.0688 80.5237C14.3879 80.5148 14.7 80.4405 14.9789 80.307C15.2578 80.1735 15.4955 79.9847 15.6723 79.7564C15.849 79.528 15.9596 79.2667 15.9948 78.9942L16.2481 77.0367L24.4236 63.9654L21.3225 62.9972L13.9929 76.0685Z" fill="#9F616A"/>
<path id="Vector_4" d="M23.5776 89.8659L23.806 92.2211L23.8595 92.7706L39.0433 91.5168C39.5666 91.4661 40.0687 91.3101 40.5087 91.0615C40.9487 90.8129 41.3141 90.4787 41.5753 90.086C41.8365 89.6933 41.9862 89.2532 42.012 88.8015C42.0379 88.3498 41.9393 87.8992 41.7242 87.4864L36.8275 78.46L35.136 75.3422L27.8063 73.8898C21.7621 77.8621 27.2002 82.2458 34.0422 86.6804C34.31 86.8546 34.5806 87.0289 34.8541 87.2032L23.5776 89.8659Z" fill="#2F2E41"/>
<path id="Vector_5" d="M18.4615 98.0216C18.6465 98.0443 18.8352 98.0258 19.0095 97.9679C19.1837 97.91 19.3378 97.8146 19.4568 97.6909L24.4234 92.5285L24.1415 90.1079L22.4481 89.2354C22.3095 89.164 22.1546 89.1194 21.9939 89.1047C21.8333 89.0899 21.6708 89.1054 21.5179 89.1499C21.3649 89.1945 21.225 89.2672 21.1081 89.3628C20.9911 89.4585 20.8998 89.5749 20.8404 89.7039L17.601 96.7504C17.5405 96.882 17.5155 97.0236 17.5279 97.1647C17.5403 97.3058 17.5898 97.4427 17.6726 97.565C17.7554 97.6873 17.8694 97.7919 18.006 97.871C18.1426 97.9501 18.2984 98.0016 18.4615 98.0216V98.0216Z" fill="#2F2E41"/>
<path id="Vector_6" opacity="0.2" d="M22.732 89.3818L23.0139 92.2865L23.8061 92.2212L38.1976 91.0326C38.721 90.982 39.2231 90.826 39.663 90.5774C40.103 90.3288 40.4685 89.9945 40.7297 89.6018C40.9909 89.2092 41.1405 88.7691 41.1664 88.3174C41.1923 87.8657 41.0937 87.4151 40.8786 87.0023L36.8276 79.2152V78.46L35.1361 75.3422L27.8064 73.8898C21.7622 77.8621 27.2003 82.2458 34.0423 86.6804L34.0084 86.7191L22.732 89.3818Z" fill="black"/>
<path id="Vector_7" d="M17.052 97.0534C17.237 97.0761 17.4257 97.0576 17.6 96.9997C17.7743 96.9418 17.9283 96.8464 18.0474 96.7227L23.014 91.5603L22.7321 89.1397L21.0386 88.2672C20.9001 88.1958 20.7451 88.1512 20.5845 88.1365C20.4239 88.1217 20.2614 88.1372 20.1084 88.1817C19.9555 88.2263 19.8156 88.299 19.6986 88.3946C19.5817 88.4903 19.4903 88.6067 19.431 88.7357L16.1916 95.7822C16.1311 95.9138 16.1061 96.0555 16.1185 96.1965C16.1309 96.3376 16.1803 96.4745 16.2631 96.5968C16.3459 96.7191 16.4599 96.8238 16.5966 96.9028C16.7332 96.9819 16.8889 97.0334 17.052 97.0534V97.0534Z" fill="#2F2E41"/>
<path id="Vector_8" d="M22.1682 88.8976L22.4501 91.8024L37.6338 90.5481C38.1571 90.4975 38.6592 90.3416 39.0992 90.093C39.5392 89.8445 39.9046 89.5104 40.166 89.1177C40.4273 88.7251 40.5771 88.2851 40.6031 87.8335C40.6292 87.3818 40.5308 86.9312 40.3159 86.5184L36.2637 78.731V74.3739L26.3968 72.9216C20.1148 77.0497 26.2356 81.6228 33.4446 86.2349L22.1682 88.8976Z" fill="#2F2E41"/>
<path id="Vector_9" d="M31.7532 54.7669C34.0886 54.7669 35.9819 53.1413 35.9819 51.136C35.9819 49.1307 34.0886 47.5051 31.7532 47.5051C29.4178 47.5051 27.5245 49.1307 27.5245 51.136C27.5245 53.1413 29.4178 54.7669 31.7532 54.7669Z" fill="#9F616A"/>
<path id="Vector_10" d="M26.1149 57.1877L32.035 60.5765L37.1094 59.6083L34.2903 57.1877V53.5568L29.7797 53.3147C29.685 54.7646 28.7174 56.0915 26.1149 57.1877Z" fill="#9F616A"/>
<path id="Vector_11" d="M25.2692 74.132L36.2638 75.3423L38.801 65.1757C39.9797 62.4771 39.3034 60.0928 37.1211 57.9637C37.0377 57.6054 36.8153 57.282 36.4903 57.046C36.1654 56.8101 35.7569 56.6757 35.3316 56.6646L34.2904 56.7035C34.4082 59.9139 31.6535 59.1407 27.5245 56.4615L27.0259 56.5899C26.3814 56.7559 25.8281 57.1157 25.4671 57.6033C25.1062 58.091 24.9618 58.6739 25.0605 59.2455L25.5151 61.8804C25.7079 62.925 26.0073 63.9531 26.41 64.9526C27.5372 67.8452 27.1344 70.9075 25.2692 74.132Z" fill="#15C7C7"/>
<path id="Vector_12" d="M20.1949 63.2392L25.2693 64.6915L27.5246 57.6717L26.7605 57.3735C26.1271 57.1263 25.4078 57.0953 24.7487 57.2867C24.0895 57.4782 23.5399 57.8777 23.2113 58.4044L20.1949 63.2392Z" fill="#15C7C7"/>
<path id="Vector_13" d="M35.136 56.7036L37.9552 59.3662L41.3381 54.767L37.1094 52.8306L35.136 56.7036Z" fill="#15C7C7"/>
<path id="Vector_14" d="M26.8195 50.0469C29.4768 50.9073 32.3127 50.8181 35.2768 50.0469V47.1422H26.8195V50.0469Z" fill="#2F2E41"/>
<path id="Vector_15" d="M158.705 99.9095L155.79 100.953L136.354 78.2152L122.264 101.37L118.62 100.744L129.309 68.8283H141.699L158.705 99.9095Z" fill="#2F2E41"/>
<path id="Vector_16" d="M162.616 105.214C162.454 105.251 162.286 105.261 162.12 105.243C161.953 105.225 161.793 105.178 161.648 105.107L155.5 102.067C155.334 101.985 155.192 101.871 155.086 101.735C154.979 101.598 154.911 101.442 154.886 101.279C154.86 101.116 154.879 100.95 154.941 100.795C155.002 100.639 155.105 100.498 155.24 100.381L155.79 99.9095L158.705 99.7009L163.162 103.374C163.324 103.508 163.442 103.676 163.503 103.862C163.565 104.047 163.568 104.244 163.513 104.43C163.457 104.617 163.345 104.788 163.188 104.926C163.03 105.064 162.833 105.163 162.616 105.214Z" fill="#2F2E41"/>
<path id="Vector_17" d="M114.952 106.048C115.113 106.086 115.282 106.096 115.448 106.078C115.614 106.059 115.775 106.013 115.92 105.941L122.068 102.902C122.234 102.819 122.376 102.706 122.482 102.569C122.589 102.432 122.657 102.277 122.682 102.114C122.707 101.951 122.688 101.785 122.627 101.629C122.565 101.473 122.463 101.332 122.328 101.216L121.778 100.744L118.863 100.535L114.406 104.209C114.244 104.342 114.126 104.511 114.064 104.696C114.003 104.882 113.999 105.078 114.055 105.265C114.11 105.452 114.223 105.623 114.38 105.76C114.538 105.898 114.735 105.997 114.952 106.048V106.048Z" fill="#2F2E41"/>
<path id="Vector_18" d="M121.049 35.6609L119.835 36.2867L117.318 32.7744C117.163 32.5587 117.071 32.3143 117.05 32.0617C117.028 31.809 117.078 31.5557 117.194 31.323C117.31 31.0903 117.49 30.885 117.719 30.7245C117.947 30.564 118.217 30.453 118.505 30.4008C118.762 30.3544 119.027 30.3557 119.283 30.4045C119.539 30.4534 119.78 30.5487 119.99 30.684C120.199 30.8193 120.373 30.9916 120.499 31.1892C120.624 31.3869 120.7 31.6053 120.719 31.8299L121.049 35.6609Z" fill="#FFB9B9"/>
<path id="Vector_19" d="M154.698 63.0059L155.202 61.8691L159.71 63.2929C159.986 63.3804 160.235 63.5237 160.434 63.7108C160.632 63.8979 160.776 64.1234 160.852 64.3681C160.928 64.6128 160.934 64.8696 160.871 65.1169C160.807 65.3642 160.675 65.5947 160.485 65.789V65.789C160.317 65.9617 160.108 66.1016 159.871 66.1991C159.635 66.2967 159.377 66.3497 159.115 66.3547C158.853 66.3596 158.592 66.3164 158.351 66.2278C158.11 66.1393 157.894 66.0074 157.717 65.8412L154.698 63.0059Z" fill="#FFB9B9"/>
<path id="Vector_20" d="M135.626 48.1769C137.639 48.1769 139.27 46.776 139.27 45.0479C139.27 43.3198 137.639 41.9189 135.626 41.9189C133.613 41.9189 131.982 43.3198 131.982 45.0479C131.982 46.776 133.613 48.1769 135.626 48.1769Z" fill="#FFB9B9"/>
<path id="Vector_21" d="M138.784 51.7231H133.682V46.9254L138.055 46.5081L138.784 51.7231Z" fill="#FFB9B9"/>
<path id="Vector_22" d="M142.428 70.0799H128.58C129.069 63.4457 129.455 57.0345 128.58 53.3919L129.386 50.0734C129.497 49.6136 129.806 49.2066 130.251 48.9335C130.696 48.6604 131.245 48.5411 131.787 48.5994L133.682 48.8028C134.965 50.7397 136.516 50.721 138.298 49.0114H140.58C140.884 49.0114 141.186 49.0635 141.466 49.1646C141.747 49.2658 142.001 49.414 142.214 49.6006C142.427 49.7871 142.594 50.0083 142.707 50.2511C142.819 50.4939 142.874 50.7535 142.868 51.0148C143.462 53.3521 143.66 55.751 143.455 58.137L142.428 70.0799Z" fill="#3F3D56"/>
<path id="Vector_23" d="M119.106 35.6608L121.049 34.8265L131.496 49.637L128.581 53.3917L119.106 35.6608Z" fill="#3F3D56"/>
<path id="Vector_24" d="M154.726 63.5994L156.387 62.3964L147.561 51.7777C146.698 50.7389 145.507 49.9328 144.13 49.4538C142.752 48.9749 141.244 48.8429 139.782 49.0734L139.503 49.1173L142.841 54.1318L147.236 56.9892L154.726 63.5994Z" fill="#3F3D56"/>
<path id="Vector_25" d="M139.84 43.2009C139.84 43.2009 140.521 41.9146 138.751 41.3299C138.751 41.3299 137.253 39.2251 134.256 40.6283C134.256 40.6283 132.214 41.3299 132.214 43.2009C132.214 45.0719 131.533 45.4227 131.533 45.4227C131.533 45.4227 132.547 44.5295 132.819 43.8278C133.091 43.1262 135.21 42.967 136.027 43.6687C136.844 44.3703 138.887 44.2533 138.887 44.2533L138.751 46.826C138.751 46.826 139.432 45.3058 139.704 45.3058C139.976 45.3058 140.249 43.2009 139.84 43.2009Z" fill="#2F2E41"/>
<path id="Vector_26" d="M28.1763 112.752C34.6854 112.752 39.962 112.516 39.962 112.225C39.962 111.934 34.6854 111.698 28.1763 111.698C21.6672 111.698 16.3906 111.934 16.3906 112.225C16.3906 112.516 21.6672 112.752 28.1763 112.752Z" fill="#B1B7C2"/>
<path id="Vector_27" d="M139.504 113.222C151.818 113.222 161.801 112.776 161.801 112.225C161.801 111.674 151.818 111.228 139.504 111.228C127.189 111.228 117.206 111.674 117.206 112.225C117.206 112.776 127.189 113.222 139.504 113.222Z" fill="#B1B7C2"/>
<path id="Vector_28" d="M54.9464 40.6409C58.0365 40.6409 60.5414 38.4901 60.5414 35.8368C60.5414 33.1835 58.0365 31.0327 54.9464 31.0327C51.8564 31.0327 49.3514 33.1835 49.3514 35.8368C49.3514 38.4901 51.8564 40.6409 54.9464 40.6409Z" fill="white"/>
<path id="Vector_29" d="M119.137 36.7129L46.2515 44.6137C45.8936 44.652 45.5378 44.517 45.2621 44.2384C44.9864 43.9598 44.8133 43.5603 44.7808 43.1275L43.1604 21.26C43.1288 20.8271 43.2404 20.3968 43.4707 20.0633C43.7011 19.7298 44.0314 19.5205 44.3892 19.4812L117.275 11.5804C117.633 11.5421 117.989 11.6771 118.264 11.9557C118.54 12.2343 118.713 12.6338 118.746 13.0666L120.366 34.9341C120.398 35.3669 120.286 35.7973 120.056 36.1308C119.825 36.4643 119.495 36.6736 119.137 36.7129V36.7129Z" fill="#15C7C7"/>
<path id="STMIK Insan Pembangunan" d="M72.8809 24.6373C72.5281 24.6735 72.1854 24.6595 71.8528 24.5952C71.5248 24.5305 71.2548 24.4222 71.0427 24.2705C70.9451 24.2055 70.889 24.1151 70.8743 23.9994C70.8637 23.9161 70.8782 23.8442 70.9175 23.7839C70.9563 23.7189 71.0082 23.6831 71.0732 23.6764C71.1382 23.6698 71.2209 23.6917 71.3214 23.7424C71.7733 24.0055 72.2638 24.1098 72.7931 24.0554C73.1644 24.0172 73.4411 23.9184 73.6231 23.759C73.8051 23.5996 73.8797 23.3902 73.8468 23.131C73.821 22.9273 73.7088 22.784 73.5102 22.7013C73.3116 22.6185 73.0022 22.5518 72.5819 22.5013C72.1814 22.458 71.8491 22.396 71.5849 22.3153C71.3207 22.2346 71.1052 22.1114 70.9384 21.9456C70.7757 21.7748 70.6764 21.5481 70.6406 21.2657C70.6048 20.9833 70.6497 20.7255 70.7753 20.4921C70.9049 20.2537 71.1014 20.0599 71.3647 19.9109C71.6274 19.7573 71.9374 19.6621 72.2949 19.6253C72.6245 19.5914 72.9344 19.6065 73.2247 19.6704C73.5149 19.7344 73.769 19.8466 73.9869 20.0071C74.0897 20.0763 74.1482 20.1664 74.1622 20.2775C74.1722 20.3562 74.1555 20.4283 74.1121 20.4937C74.0733 20.5587 74.0214 20.5945 73.9564 20.6012C73.896 20.6074 73.8156 20.5852 73.7152 20.5345C73.4811 20.3945 73.2645 20.2995 73.0653 20.2496C72.8702 20.1946 72.6404 20.1807 72.3758 20.208C72.0184 20.2447 71.7492 20.3474 71.5684 20.5161C71.387 20.6801 71.3127 20.8918 71.3456 21.151C71.3737 21.3733 71.4834 21.5332 71.6744 21.6308C71.8649 21.7237 72.161 21.7965 72.5627 21.849C72.9829 21.8996 73.3249 21.9629 73.5885 22.039C73.8561 22.1099 74.0754 22.2258 74.2462 22.3864C74.4211 22.542 74.5259 22.7563 74.5605 23.0294C74.5957 23.3072 74.5482 23.563 74.418 23.7968C74.2918 24.0256 74.0947 24.2147 73.8268 24.3641C73.563 24.5085 73.2477 24.5996 72.8809 24.6373ZM77.0514 24.1873C76.9447 24.1983 76.8524 24.175 76.7745 24.1173C76.7007 24.0546 76.6571 23.97 76.6436 23.8635L76.1399 19.8913L74.7473 20.0345C74.5245 20.0574 74.4004 19.9693 74.3752 19.7702C74.3629 19.673 74.3813 19.5961 74.4306 19.5394C74.4845 19.4823 74.5648 19.4482 74.6716 19.4372L78.1811 19.0764C78.2878 19.0654 78.3723 19.0825 78.4345 19.1277C78.5013 19.1724 78.5408 19.2434 78.5532 19.3406C78.5784 19.5397 78.4796 19.6507 78.2568 19.6736L76.8641 19.8168L77.3677 23.789C77.3812 23.8955 77.3599 23.9868 77.3037 24.0629C77.2469 24.1344 77.1628 24.1759 77.0514 24.1873ZM83.4651 18.4979C83.5672 18.4874 83.6551 18.5135 83.7289 18.5763C83.8021 18.6344 83.8455 18.7167 83.859 18.8232L84.3996 23.0871C84.4131 23.1936 84.3935 23.28 84.3408 23.3464C84.2927 23.4123 84.2176 23.4505 84.1155 23.461C84.018 23.471 83.9376 23.4488 83.8742 23.3944C83.8109 23.3399 83.7725 23.2594 83.759 23.153L83.3496 19.9238L82.3132 22.6544C82.2455 22.8255 82.1421 22.9182 82.0028 22.9325C81.8635 22.9469 81.7395 22.8775 81.6308 22.7246L79.9341 20.3031L80.34 23.5045C80.3535 23.611 80.3362 23.6972 80.2881 23.7631C80.2401 23.829 80.165 23.8672 80.0628 23.8777C79.9654 23.8877 79.8826 23.8658 79.8146 23.8118C79.7507 23.7527 79.7123 23.6722 79.6994 23.5704L79.1588 19.3065C79.1453 19.2 79.1669 19.111 79.2237 19.0395C79.2799 18.9634 79.359 18.9201 79.4612 18.9096C79.6051 18.8948 79.7317 18.9662 79.841 19.1238L81.9076 22.1263L83.1556 18.783C83.2226 18.6073 83.3258 18.5122 83.4651 18.4979ZM85.9456 23.2729C85.8388 23.2838 85.7488 23.2603 85.6756 23.2021C85.6024 23.144 85.5587 23.0594 85.5447 22.9483L85.0067 18.7052C84.9932 18.5987 85.0148 18.5098 85.0716 18.4383C85.1278 18.3621 85.2093 18.3186 85.316 18.3076C85.4275 18.2961 85.5198 18.3195 85.593 18.3776C85.6662 18.4357 85.7098 18.5204 85.7239 18.6315L86.2619 22.8745C86.276 22.9856 86.2546 23.0769 86.1978 23.1484C86.1457 23.2194 86.0616 23.2609 85.9456 23.2729ZM91.0295 22.1662C91.1178 22.2322 91.1676 22.3091 91.1787 22.3971C91.1899 22.4851 91.1647 22.565 91.1033 22.637C91.0465 22.7085 90.974 22.7488 90.8858 22.7579C90.7976 22.7669 90.7117 22.7382 90.628 22.6718L87.8665 20.6975L88.1183 22.6836C88.1324 22.7947 88.111 22.886 88.0543 22.9575C88.0021 23.0286 87.918 23.07 87.802 23.082C87.6952 23.093 87.6052 23.0694 87.532 23.0112C87.4588 22.9531 87.4152 22.8685 87.4011 22.7574L86.8631 18.5143C86.8496 18.4079 86.8713 18.3189 86.928 18.2474C86.9842 18.1713 87.0657 18.1277 87.1725 18.1167C87.2839 18.1053 87.3762 18.1286 87.4494 18.1867C87.5226 18.2449 87.5663 18.3295 87.5803 18.4406L87.8216 20.3434L89.9222 17.9395C89.979 17.868 90.0515 17.8277 90.1397 17.8187C90.2279 17.8096 90.3086 17.8341 90.3818 17.8923C90.455 17.9504 90.4969 18.0211 90.5075 18.1045C90.5186 18.1924 90.4894 18.2775 90.4199 18.3597L88.5791 20.4203L91.0295 22.1662ZM51.8021 36.8334C51.6953 36.8444 51.6054 36.8208 51.5321 36.7627C51.4589 36.7045 51.4153 36.6199 51.4012 36.5088L50.8632 32.2658C50.8497 32.1593 50.8714 32.0703 50.9282 31.9988C50.9843 31.9227 51.0658 31.8791 51.1726 31.8682C51.284 31.8567 51.3763 31.88 51.4495 31.9382C51.5227 31.9963 51.5664 32.0809 51.5805 32.192L52.1184 36.4351C52.1325 36.5462 52.1112 36.6375 52.0544 36.709C52.0023 36.78 51.9182 36.8215 51.8021 36.8334ZM54.6066 32.9924C55.4189 32.9089 55.883 33.3231 55.9986 34.2352L56.2275 36.0407C56.241 36.1472 56.2191 36.2339 56.1617 36.3007C56.1084 36.3625 56.0261 36.3991 55.9146 36.4106C55.8079 36.4215 55.7182 36.4003 55.6456 36.3468C55.5776 36.2928 55.5371 36.2149 55.5242 36.113L55.2997 34.3422C55.2633 34.0552 55.1786 33.8505 55.0455 33.7282C54.9171 33.6053 54.7321 33.5564 54.4908 33.5812C54.2076 33.6103 53.9913 33.7216 53.8418 33.9152C53.6924 34.1088 53.6364 34.3538 53.674 34.6501L53.8809 36.282C53.8938 36.3838 53.8716 36.4682 53.8142 36.5351C53.7615 36.6015 53.6818 36.6401 53.575 36.6511C53.4682 36.6621 53.3785 36.6408 53.3059 36.5873C53.2333 36.5338 53.1905 36.4562 53.1776 36.3543L52.8192 33.5279C52.8069 33.4307 52.8294 33.3487 52.8868 33.2818C52.9482 33.2098 53.03 33.1686 53.1321 33.1581C53.2342 33.1476 53.3193 33.1693 53.3873 33.2233C53.4552 33.2773 53.4954 33.3529 53.5077 33.4501L53.5438 33.7348C53.6294 33.5197 53.7653 33.3486 53.9514 33.2216C54.1375 33.0946 54.3559 33.0182 54.6066 32.9924ZM58.4174 36.1673C57.9439 36.216 57.544 36.1586 57.2176 35.9952C57.1276 35.9529 57.0605 35.9058 57.0163 35.8541C56.9767 35.8019 56.9526 35.741 56.9438 35.6716C56.9344 35.5975 56.9473 35.5329 56.9827 35.4776C57.018 35.4224 57.0681 35.3915 57.1331 35.3848C57.1935 35.3786 57.2933 35.4058 57.4327 35.4666C57.5814 35.5263 57.7236 35.5726 57.8595 35.6056C58 35.638 58.17 35.644 58.3696 35.6235C58.5925 35.6006 58.7616 35.5433 58.8769 35.4517C58.9923 35.3601 59.0409 35.2426 59.0227 35.0991C59.0109 35.0065 58.976 34.935 58.9179 34.8847C58.8644 34.8339 58.7747 34.7939 58.6487 34.7647C58.5222 34.7308 58.3373 34.7005 58.0941 34.674C57.6744 34.628 57.3646 34.5402 57.1648 34.4107C56.969 34.2761 56.8547 34.0791 56.8219 33.8199C56.7966 33.6208 56.832 33.4366 56.9281 33.2673C57.0237 33.0933 57.168 32.9518 57.3611 32.8429C57.5542 32.7339 57.7807 32.666 58.0407 32.6393C58.2264 32.6202 58.4106 32.6271 58.5935 32.6599C58.7758 32.688 58.9401 32.7415 59.0864 32.8202C59.2525 32.9063 59.3441 33.0165 59.3611 33.1508C59.3705 33.2248 59.3552 33.2897 59.3153 33.3454C59.2799 33.4006 59.2321 33.4313 59.1718 33.4376C59.13 33.4418 59.087 33.4369 59.0429 33.4227C58.9988 33.4084 58.9393 33.3841 58.8643 33.3496C58.7296 33.2884 58.6039 33.2427 58.4872 33.2125C58.3751 33.1818 58.2379 33.1748 58.0754 33.1915C57.8804 33.2115 57.7279 33.2694 57.6177 33.3652C57.5123 33.4604 57.4686 33.5798 57.4868 33.7234C57.5032 33.853 57.5695 33.9493 57.6857 34.0124C57.8059 34.0704 58.021 34.1163 58.331 34.1501C58.6502 34.1829 58.9033 34.232 59.0903 34.2972C59.2773 34.3624 59.4158 34.4536 59.5059 34.571C59.6001 34.6832 59.6592 34.8343 59.6833 35.0241C59.7214 35.325 59.6246 35.5812 59.3928 35.7926C59.165 35.999 58.8399 36.1238 58.4174 36.1673ZM61.574 32.276C62.0243 32.2297 62.3729 32.3088 62.6198 32.5132C62.8714 32.7171 63.0266 33.0506 63.0853 33.5135L63.3133 35.3121C63.3268 35.4186 63.3072 35.5051 63.2545 35.5714C63.2012 35.6332 63.1211 35.6696 63.0144 35.6806C62.9122 35.6911 62.8272 35.6693 62.7592 35.6153C62.6912 35.5614 62.6508 35.4834 62.6379 35.3816L62.6053 35.1246C62.5417 35.3282 62.4285 35.4922 62.2656 35.6168C62.1068 35.7364 61.9113 35.808 61.6792 35.8319C61.4564 35.8548 61.2465 35.8318 61.0497 35.763C60.8523 35.6895 60.6899 35.5772 60.5626 35.4261C60.4399 35.2746 60.3659 35.0993 60.3407 34.9002C60.3096 34.6549 60.3479 34.4563 60.4556 34.3045C60.5674 34.1476 60.7657 34.0241 61.0506 33.9338C61.34 33.8431 61.7424 33.7712 62.2577 33.7182L62.4178 33.7018L62.3923 33.5004C62.3594 33.2411 62.2823 33.0591 62.1608 32.9543C62.0394 32.8496 61.8603 32.8094 61.6235 32.8337C61.4611 32.8504 61.3105 32.887 61.1719 32.9435C61.0333 32.9999 60.8831 33.0763 60.7213 33.1727C60.6047 33.255 60.5209 33.2988 60.4699 33.3041C60.4002 33.3112 60.339 33.2917 60.2861 33.2456C60.2379 33.199 60.2088 33.1363 60.1988 33.0576C60.19 32.9881 60.2009 32.9261 60.2316 32.8713C60.2663 32.8115 60.3246 32.7515 60.4063 32.6915C60.5576 32.5869 60.7392 32.4979 60.9509 32.4245C61.162 32.3465 61.3697 32.297 61.574 32.276ZM61.7385 35.2982C61.9938 35.2719 62.1918 35.1648 62.3326 34.9768C62.4728 34.7842 62.5255 34.5513 62.4909 34.2781L62.468 34.0976L62.3427 34.1105C61.9806 34.1477 61.7041 34.1926 61.5133 34.245C61.3224 34.2975 61.1902 34.3673 61.1166 34.4546C61.0424 34.5373 61.0144 34.6504 61.0326 34.7939C61.0538 34.9606 61.1314 35.0909 61.2656 35.185C61.3998 35.2791 61.5574 35.3168 61.7385 35.2982ZM65.7043 31.8513C66.5167 31.7678 66.9807 32.1821 67.0963 33.0941L67.3253 34.8996C67.3388 35.0061 67.3168 35.0928 67.2595 35.1597C67.2062 35.2214 67.1238 35.258 67.0124 35.2695C66.9056 35.2805 66.8159 35.2592 66.7433 35.2057C66.6753 35.1517 66.6349 35.0738 66.622 34.9719L66.3974 33.2011C66.361 32.9141 66.2763 32.7094 66.1432 32.5871C66.0148 32.4643 65.8299 32.4153 65.5885 32.4401C65.3053 32.4692 65.089 32.5806 64.9396 32.7742C64.7901 32.9677 64.7341 33.2127 64.7717 33.509L64.9786 35.1409C64.9915 35.2428 64.9693 35.3271 64.912 35.394C64.8592 35.4604 64.7795 35.4991 64.6727 35.51C64.566 35.521 64.4763 35.4998 64.4036 35.4463C64.331 35.3928 64.2882 35.3151 64.2753 35.2132L63.917 32.3869C63.9047 32.2896 63.9272 32.2076 63.9845 32.1407C64.0459 32.0687 64.1277 32.0275 64.2298 32.017C64.332 32.0065 64.417 32.0282 64.485 32.0822C64.553 32.1362 64.5931 32.2118 64.6055 32.309L64.6416 32.5937C64.7272 32.3786 64.863 32.2075 65.0491 32.0805C65.2352 31.9535 65.4536 31.8771 65.7043 31.8513ZM70.6044 34.9001C70.4976 34.9111 70.4076 34.8876 70.3344 34.8294C70.2612 34.7713 70.2175 34.6867 70.2034 34.5756L69.6681 30.3534C69.6546 30.2469 69.6742 30.1604 69.727 30.094C69.7837 30.0226 69.8678 29.9811 69.9792 29.9696L71.6574 29.7971C72.1773 29.7436 72.5973 29.8294 72.9174 30.0544C73.2375 30.2795 73.4272 30.6258 73.4865 31.0934C73.5452 31.5563 73.4471 31.9322 73.1921 32.2211C72.9372 32.5099 72.5497 32.6811 72.0298 32.7346L70.7138 32.8699L70.9207 34.5018C70.9347 34.6129 70.9134 34.7042 70.8566 34.7757C70.8045 34.8467 70.7204 34.8882 70.6044 34.9001ZM71.8801 32.166C72.5672 32.0954 72.8728 31.7615 72.7971 31.1643C72.722 30.5717 72.3409 30.3107 71.6539 30.3813L70.4144 30.5088L70.6407 32.2935L71.8801 32.166ZM77.1398 33.3277C77.2048 33.321 77.2614 33.341 77.3096 33.3876C77.3579 33.4343 77.387 33.4969 77.397 33.5756C77.414 33.7099 77.3448 33.8319 77.1894 33.9417C77.0387 34.051 76.8691 34.1411 76.6805 34.2121C76.4967 34.2826 76.3165 34.3269 76.1401 34.345C75.6016 34.4004 75.1572 34.289 74.8069 34.0108C74.4559 33.7279 74.2461 33.3157 74.1774 32.774C74.1334 32.4268 74.1617 32.112 74.2623 31.8297C74.3675 31.5468 74.5337 31.3187 74.761 31.1452C74.9929 30.9713 75.2667 30.8681 75.5823 30.8357C76.0373 30.7889 76.4155 30.8977 76.7171 31.1622C77.0187 31.4266 77.2009 31.8066 77.2637 32.3019C77.2872 32.4871 77.2154 32.5883 77.0482 32.6055L74.8966 32.8267C75.034 33.5395 75.4253 33.8628 76.0706 33.7964C76.2423 33.7788 76.388 33.7403 76.5074 33.6812C76.6269 33.622 76.7516 33.5482 76.8814 33.4598C76.8942 33.4491 76.929 33.4268 76.9858 33.3928C77.0467 33.3537 77.098 33.332 77.1398 33.3277ZM75.6614 31.3481C75.3922 31.3758 75.1872 31.4836 75.0464 31.6717C74.9056 31.8597 74.8387 32.1104 74.8455 32.4239L76.642 32.2392C76.5882 31.9258 76.4764 31.6935 76.3068 31.5421C76.1411 31.3856 75.926 31.3209 75.6614 31.3481ZM81.733 30.2033C82.4943 30.125 82.9328 30.5419 83.0484 31.4539L83.2773 33.2594C83.2908 33.3659 83.2689 33.4526 83.2115 33.5195C83.1536 33.5817 83.0712 33.6183 82.9645 33.6293C82.8623 33.6398 82.7753 33.6206 82.7032 33.5717C82.6306 33.5182 82.5875 33.4382 82.574 33.3317L82.346 31.5331C82.3102 31.2507 82.2333 31.0523 82.1153 30.9378C81.9968 30.8187 81.8284 30.7703 81.6102 30.7927C81.3549 30.819 81.1641 30.9277 81.0379 31.1189C80.911 31.3055 80.8667 31.5492 80.9048 31.8502L81.1117 33.4821C81.1252 33.5886 81.1033 33.6753 81.046 33.7421C80.988 33.8044 80.9057 33.841 80.7989 33.8519C80.6968 33.8624 80.6097 33.8433 80.5376 33.7944C80.465 33.7409 80.422 33.6609 80.4085 33.5544L80.1804 31.7558C80.1446 31.4734 80.0677 31.275 79.9497 31.1605C79.8312 31.0413 79.6628 30.993 79.4446 31.0154C79.1893 31.0417 78.9962 31.1506 78.8653 31.3423C78.7385 31.5289 78.6941 31.7726 78.7323 32.0735L78.9392 33.7055C78.9527 33.812 78.9308 33.8986 78.8734 33.9655C78.8155 34.0277 78.7354 34.0641 78.6333 34.0746C78.5312 34.0851 78.4418 34.0662 78.3651 34.0178C78.2925 33.9643 78.2494 33.8843 78.2359 33.7778L77.8776 30.9514C77.8646 30.8496 77.8892 30.765 77.9512 30.6976C78.0132 30.6303 78.0929 30.5916 78.1904 30.5816C78.2879 30.5715 78.3706 30.5935 78.4386 30.6475C78.5107 30.6964 78.5531 30.7717 78.566 30.8736L78.5986 31.1305C78.6761 30.9256 78.7989 30.7629 78.967 30.6424C79.1352 30.522 79.3376 30.4495 79.5744 30.4252C79.8343 30.3985 80.0546 30.4298 80.2352 30.5191C80.4205 30.6079 80.569 30.7591 80.6807 30.9727C80.7576 30.7632 80.8885 30.5902 81.0735 30.454C81.2578 30.3131 81.4777 30.2295 81.733 30.2033ZM85.6624 29.7992C85.9595 29.7687 86.2309 29.8135 86.4765 29.9336C86.7222 30.0537 86.9244 30.2393 87.0832 30.4903C87.2467 30.7408 87.3507 31.042 87.3953 31.3939C87.4393 31.7411 87.4134 32.0556 87.3174 32.3375C87.2261 32.6189 87.0738 32.8456 86.8605 33.0176C86.6518 33.1892 86.4012 33.29 86.1088 33.32C85.8535 33.3463 85.6216 33.3162 85.4131 33.2298C85.204 33.1387 85.0355 32.9966 84.9076 32.8034L84.9428 33.0812C84.9557 33.183 84.9338 33.2697 84.877 33.3412C84.8243 33.4076 84.7445 33.4462 84.6378 33.4572C84.531 33.4682 84.4413 33.4469 84.3687 33.3934C84.2955 33.3353 84.2524 33.2553 84.2395 33.1535L83.6954 28.8618C83.6825 28.76 83.7047 28.6756 83.7621 28.6087C83.8241 28.5414 83.9084 28.5022 84.0152 28.4913C84.1173 28.4808 84.2024 28.5025 84.2704 28.5565C84.3424 28.6054 84.3846 28.6784 84.3969 28.7756L84.6223 30.5534C84.6986 30.3392 84.8272 30.1665 85.0081 30.0353C85.189 29.9042 85.4071 29.8255 85.6624 29.7992ZM85.8712 32.7817C86.173 32.7507 86.3939 32.6201 86.534 32.3899C86.6788 32.1593 86.7268 31.8519 86.6781 31.4676C86.63 31.088 86.5094 30.8049 86.3165 30.6184C86.1229 30.4272 85.873 30.3474 85.5666 30.3789C85.2602 30.4104 85.0367 30.5389 84.896 30.7644C84.7599 30.9895 84.7162 31.2941 84.7649 31.6784C84.8137 32.0626 84.9325 32.3506 85.1214 32.5422C85.3149 32.7334 85.5648 32.8132 85.8712 32.7817ZM89.3795 29.417C89.8298 29.3707 90.1785 29.4498 90.4254 29.6542C90.677 29.8582 90.8321 30.1916 90.8908 30.6546L91.1189 32.4532C91.1324 32.5596 91.1128 32.6461 91.06 32.7125C91.0067 32.7742 90.9267 32.8106 90.8199 32.8216C90.7178 32.8321 90.6327 32.8103 90.5648 32.7564C90.4968 32.7024 90.4563 32.6245 90.4434 32.5226L90.4108 32.2657C90.3473 32.4692 90.2341 32.6332 90.0712 32.7579C89.9123 32.8774 89.7168 32.9491 89.4847 32.9729C89.2619 32.9958 89.0521 32.9729 88.8552 32.904C88.6578 32.8305 88.4954 32.7182 88.3681 32.5672C88.2455 32.4156 88.1715 32.2403 88.1463 32.0412C88.1151 31.7959 88.1535 31.5973 88.2612 31.4455C88.373 31.2886 88.5713 31.1651 88.8561 31.0748C89.1456 30.9841 89.548 30.9122 90.0632 30.8592L90.2234 30.8428L90.1979 30.6414C90.165 30.3821 90.0878 30.2001 89.9664 30.0954C89.8449 29.9906 89.6658 29.9504 89.4291 29.9747C89.2666 29.9914 89.1161 30.028 88.9774 30.0845C88.8388 30.141 88.6886 30.2174 88.5268 30.3137C88.4103 30.3961 88.3265 30.4399 88.2754 30.4451C88.2058 30.4523 88.1445 30.4328 88.0917 30.3866C88.0434 30.34 88.0143 30.2773 88.0043 30.1986C87.9955 30.1292 88.0065 30.0671 88.0372 30.0123C88.0719 29.9525 88.1301 29.8926 88.2119 29.8326C88.3632 29.7279 88.5447 29.6389 88.7564 29.5655C88.9676 29.4875 89.1753 29.438 89.3795 29.417ZM89.544 32.4392C89.7994 32.413 89.9974 32.3058 90.1382 32.1178C90.2783 31.9252 90.3311 31.6923 90.2965 31.4192L90.2736 31.2386L90.1482 31.2515C89.7861 31.2887 89.5097 31.3336 89.3188 31.386C89.1279 31.4385 88.9957 31.5084 88.9221 31.5956C88.848 31.6783 88.82 31.7914 88.8382 31.9349C88.8593 32.1016 88.937 32.232 89.0712 32.326C89.2054 32.4201 89.363 32.4578 89.544 32.4392ZM93.5099 28.9924C94.3222 28.9088 94.7863 29.3231 94.9019 30.2351L95.1308 32.0407C95.1443 32.1471 95.1224 32.2338 95.065 32.3007C95.0117 32.3624 94.9294 32.399 94.8179 32.4105C94.7112 32.4215 94.6215 32.4002 94.5489 32.3467C94.4809 32.2927 94.4404 32.2148 94.4275 32.113L94.203 30.3421C94.1666 30.0551 94.0819 29.8504 93.9488 29.7281C93.8204 29.6053 93.6354 29.5563 93.394 29.5811C93.1109 29.6102 92.8946 29.7216 92.7451 29.9152C92.5956 30.1088 92.5397 30.3537 92.5773 30.65L92.7842 32.2819C92.7971 32.3838 92.7749 32.4681 92.7175 32.535C92.6648 32.6014 92.585 32.6401 92.4783 32.6511C92.3715 32.662 92.2818 32.6408 92.2092 32.5873C92.1366 32.5338 92.0938 32.4561 92.0809 32.3542L91.7225 29.5279C91.7102 29.4307 91.7327 29.3486 91.7901 29.2817C91.8515 29.2098 91.9333 29.1685 92.0354 29.158C92.1375 29.1475 92.2226 29.1693 92.2906 29.2232C92.3585 29.2772 92.3987 29.3528 92.411 29.45L92.4471 29.7348C92.5327 29.5196 92.6686 29.3485 92.8547 29.2215C93.0408 29.0945 93.2592 29.0181 93.5099 28.9924ZM98.5055 28.4928C98.6123 28.4818 98.6999 28.5056 98.7685 28.5642C98.8411 28.6177 98.8839 28.6954 98.8968 28.7972L99.2578 31.6445C99.3235 32.163 99.2339 32.5685 98.9888 32.861C98.7484 33.1531 98.3589 33.3268 97.8204 33.3821C97.319 33.4337 96.8892 33.3817 96.5309 33.2263C96.3468 33.1467 96.2463 33.0398 96.2292 32.9056C96.2193 32.8269 96.2319 32.7599 96.2673 32.7047C96.3072 32.649 96.3597 32.6178 96.4247 32.6111C96.485 32.6049 96.5846 32.6298 96.7234 32.6859C96.9005 32.7474 97.0636 32.7916 97.2128 32.8185C97.3626 32.85 97.5373 32.8555 97.7369 32.835C98.3775 32.7691 98.6571 32.4144 98.5755 31.7709L98.5077 31.2362C98.436 31.4499 98.3077 31.6249 98.1228 31.7612C97.9372 31.8928 97.7122 31.9722 97.4476 31.9994C97.1505 32.03 96.8771 31.9877 96.6273 31.8727C96.3776 31.7577 96.1716 31.5795 96.0094 31.3383C95.8517 31.0965 95.7518 30.809 95.7095 30.4757C95.6673 30.1423 95.695 29.8417 95.7927 29.5737C95.8904 29.3057 96.0442 29.0906 96.254 28.9283C96.4679 28.7609 96.7235 28.6619 97.0206 28.6314C97.2805 28.6047 97.515 28.6368 97.7241 28.7279C97.9378 28.8185 98.1086 28.9604 98.2366 29.1536L98.1996 28.8619C98.1867 28.76 98.2066 28.6759 98.2593 28.6095C98.3167 28.5427 98.3987 28.5037 98.5055 28.4928ZM97.5443 31.4267C97.846 31.3957 98.0701 31.2718 98.2167 31.055C98.3632 30.8383 98.4141 30.554 98.3695 30.2022C98.3255 29.8549 98.205 29.5906 98.008 29.4092C97.815 29.2227 97.5654 29.1452 97.259 29.1767C96.9526 29.2082 96.7238 29.3326 96.5727 29.5498C96.4261 29.7665 96.3752 30.0508 96.4198 30.4026C96.4644 30.7545 96.5875 31.0209 96.7892 31.2018C96.9908 31.3828 97.2425 31.4577 97.5443 31.4267ZM102.466 28.0856C102.572 28.0746 102.66 28.0961 102.728 28.1501C102.8 28.2036 102.844 28.2836 102.857 28.3901L103.215 31.2164C103.228 31.3137 103.205 31.3957 103.148 31.4626C103.09 31.5294 103.008 31.5684 102.902 31.5793C102.804 31.5894 102.722 31.5697 102.654 31.5203C102.586 31.4664 102.546 31.3908 102.534 31.2935L102.5 31.0297C102.418 31.2351 102.288 31.3985 102.111 31.5199C101.938 31.6409 101.736 31.7133 101.504 31.7371C100.677 31.8221 100.207 31.4109 100.092 30.5035L99.8628 28.6979C99.8493 28.5914 99.8689 28.505 99.9216 28.4386C99.979 28.3717 100.063 28.3326 100.175 28.3211C100.282 28.3102 100.369 28.3317 100.437 28.3856C100.51 28.4391 100.553 28.5191 100.566 28.6256L100.794 30.4242C100.829 30.6974 100.91 30.893 101.038 31.0112C101.166 31.1294 101.346 31.1765 101.578 31.1527C101.852 31.1245 102.059 31.0141 102.199 30.8215C102.344 30.6284 102.398 30.386 102.361 30.0943L102.154 28.4624C102.141 28.3605 102.163 28.2762 102.22 28.2093C102.277 28.1378 102.359 28.0966 102.466 28.0856ZM105.628 27.7464C106.44 27.6629 106.904 28.0771 107.02 28.9892L107.249 30.7947C107.262 30.9012 107.24 30.9879 107.183 31.0547C107.129 31.1165 107.047 31.1531 106.936 31.1645C106.829 31.1755 106.739 31.1543 106.667 31.1008C106.599 31.0468 106.558 30.9689 106.545 30.867L106.321 29.0962C106.284 28.8092 106.2 28.6045 106.067 28.4821C105.938 28.3593 105.753 28.3104 105.512 28.3352C105.229 28.3643 105.012 28.4756 104.863 28.6692C104.713 28.8628 104.657 29.1078 104.695 29.404L104.902 31.036C104.915 31.1378 104.893 31.2222 104.835 31.2891C104.783 31.3554 104.703 31.3941 104.596 31.4051C104.489 31.4161 104.4 31.3948 104.327 31.3413C104.254 31.2878 104.212 31.2101 104.199 31.1083L103.84 28.2819C103.828 28.1847 103.85 28.1027 103.908 28.0358C103.969 27.9638 104.051 27.9226 104.153 27.9121C104.255 27.9016 104.34 27.9233 104.408 27.9773C104.476 28.0313 104.516 28.1069 104.529 28.2041L104.565 28.4888C104.65 28.2737 104.786 28.1026 104.972 27.9756C105.159 27.8486 105.377 27.7722 105.628 27.7464ZM109.236 27.3754C109.686 27.3291 110.035 27.4082 110.282 27.6126C110.533 27.8165 110.688 28.15 110.747 28.6129L110.975 30.4115C110.989 30.518 110.969 30.6045 110.916 30.6708C110.863 30.7326 110.783 30.769 110.676 30.7799C110.574 30.7904 110.489 30.7687 110.421 30.7147C110.353 30.6607 110.313 30.5828 110.3 30.481L110.267 30.224C110.204 30.4276 110.09 30.5916 109.927 30.7162C109.769 30.8357 109.573 30.9074 109.341 30.9313C109.118 30.9542 108.908 30.9312 108.711 30.8624C108.514 30.7889 108.352 30.6766 108.224 30.5255C108.102 30.374 108.028 30.1987 108.003 29.9996C107.971 29.7542 108.01 29.5557 108.117 29.4039C108.229 29.247 108.428 29.1234 108.712 29.0332C109.002 28.9425 109.404 28.8706 109.919 28.8176L110.08 28.8012L110.054 28.5998C110.021 28.3405 109.944 28.1585 109.823 28.0537C109.701 27.949 109.522 27.9088 109.285 27.9331C109.123 27.9498 108.972 27.9864 108.834 28.0429C108.695 28.0993 108.545 28.1757 108.383 28.2721C108.267 28.3544 108.183 28.3982 108.132 28.4035C108.062 28.4106 108.001 28.3911 107.948 28.345C107.9 28.2984 107.871 28.2357 107.861 28.157C107.852 28.0875 107.863 28.0254 107.893 27.9707C107.928 27.9109 107.986 27.8509 108.068 27.7909C108.219 27.6863 108.401 27.5973 108.613 27.5239C108.824 27.4459 109.032 27.3964 109.236 27.3754ZM109.4 30.3976C109.656 30.3713 109.854 30.2642 109.994 30.0762C110.135 29.8836 110.187 29.6507 110.153 29.3775L110.13 29.197L110.004 29.2099C109.642 29.2471 109.366 29.2919 109.175 29.3444C108.984 29.3969 108.852 29.4667 108.778 29.554C108.704 29.6367 108.676 29.7498 108.694 29.8933C108.716 30.06 108.793 30.1903 108.927 30.2844C109.062 30.3785 109.219 30.4162 109.4 30.3976ZM113.366 26.9507C114.178 26.8672 114.643 27.2814 114.758 28.1935L114.987 29.999C115.001 30.1055 114.979 30.1922 114.921 30.259C114.868 30.3208 114.786 30.3574 114.674 30.3689C114.567 30.3798 114.478 30.3586 114.405 30.3051C114.337 30.2511 114.297 30.1732 114.284 30.0713L114.059 28.3005C114.023 28.0135 113.938 27.8088 113.805 27.6865C113.677 27.5637 113.492 27.5147 113.25 27.5395C112.967 27.5686 112.751 27.68 112.601 27.8735C112.452 28.0671 112.396 28.3121 112.434 28.6084L112.64 30.2403C112.653 30.3422 112.631 30.4265 112.574 30.4934C112.521 30.5598 112.441 30.5985 112.335 30.6094C112.228 30.6204 112.138 30.5992 112.065 30.5456C111.993 30.4921 111.95 30.4145 111.937 30.3126L111.579 27.4862C111.566 27.389 111.589 27.307 111.646 27.2401C111.708 27.1681 111.79 27.1269 111.892 27.1164C111.994 27.1059 112.079 27.1276 112.147 27.1816C112.215 27.2356 112.255 27.3112 112.267 27.4084L112.303 27.6931C112.389 27.478 112.525 27.3069 112.711 27.1799C112.897 27.0529 113.115 26.9765 113.366 26.9507Z" fill="black"/>
</g>
<g id="Group 20_2">
<g id="Group">
<g id="Group 21">
<path id="Vector_30" d="M107.994 59.7036L108.06 59.8407L108.225 59.839L111.88 59.7996C114.634 59.77 116.884 61.7391 116.91 64.1768L116.975 70.3893C117.001 72.827 114.792 74.8443 112.038 74.8739L108.361 74.9135L108.195 74.9153L108.132 75.0548C105.414 81.0297 99.6735 85.4398 92.7984 86.972L92.6051 87.015L92.607 87.1966L92.629 89.2913C92.6546 91.7289 90.4457 93.7462 87.6917 93.7759C84.9377 93.8055 82.6869 91.8363 82.6613 89.3986C82.6358 86.9622 84.8584 84.9435 87.6327 84.9136C95.8273 84.8254 103.12 80.1153 105.779 73.1849C105.779 73.1844 105.779 73.1839 105.779 73.1834L105.785 73.1679L105.786 73.1668C106.858 70.4519 107.129 67.4652 106.568 64.5291C106.398 63.5424 106.111 62.5847 105.706 61.6547L105.693 61.6237C105.693 61.6232 105.693 61.6226 105.692 61.622C103.186 55.5506 96.9776 51.1495 89.8702 50.4026C83.1541 49.6917 76.6074 52.0457 72.3522 56.7101C68.0202 61.457 66.8414 67.6171 69.1141 73.6002L69.1141 73.6002L69.7711 75.3291L62.9542 75.4025C60.2002 75.4321 57.9494 73.4629 57.9238 71.0252L57.8586 64.8127C57.833 62.375 60.0419 60.3577 62.7959 60.3281L66.3898 60.2894L66.5544 60.2876L66.6181 60.1488C67.4461 58.344 68.5853 56.6294 70.0287 55.0472C74.9362 49.6678 82.4962 46.939 90.2318 47.7727L90.2326 47.7728C98.0328 48.5905 104.852 53.2398 107.994 59.7036Z" fill="#0AA8B0" stroke="white"/>
<path id="Ellipse 10" d="M87.6919 81.3754C96.7687 81.2776 104.06 74.7897 103.977 66.8842C103.894 58.9787 96.4682 52.6493 87.3914 52.747C78.3147 52.8447 71.0238 59.3326 71.1067 67.2381C71.1897 75.1436 78.6152 81.4731 87.6919 81.3754Z" fill="#D5E7FF"/>
<path id="SI Consult" d="M75.6646 69.0479C75.3606 69.0479 75.0706 69.0059 74.7946 68.9219C74.5226 68.8379 74.3046 68.722 74.1406 68.574C74.0646 68.51 74.0266 68.428 74.0266 68.328C74.0266 68.256 74.0466 68.196 74.0866 68.148C74.1266 68.096 74.1746 68.07 74.2306 68.07C74.2866 68.07 74.3546 68.096 74.4346 68.148C74.7906 68.412 75.1966 68.544 75.6526 68.544C75.9726 68.544 76.2186 68.484 76.3906 68.364C76.5626 68.244 76.6486 68.072 76.6486 67.848C76.6486 67.672 76.5686 67.54 76.4086 67.452C76.2486 67.364 75.9926 67.28 75.6406 67.2C75.3046 67.128 75.0286 67.046 74.8126 66.954C74.5966 66.862 74.4266 66.738 74.3026 66.582C74.1826 66.422 74.1226 66.22 74.1226 65.976C74.1226 65.732 74.1886 65.516 74.3206 65.328C74.4566 65.136 74.6446 64.988 74.8846 64.884C75.1246 64.776 75.3986 64.722 75.7066 64.722C75.9906 64.722 76.2526 64.762 76.4926 64.842C76.7326 64.922 76.9366 65.04 77.1046 65.196C77.1846 65.264 77.2246 65.346 77.2246 65.442C77.2246 65.51 77.2026 65.57 77.1586 65.622C77.1186 65.674 77.0706 65.7 77.0146 65.7C76.9626 65.7 76.8966 65.674 76.8166 65.622C76.6326 65.482 76.4586 65.382 76.2946 65.322C76.1346 65.258 75.9406 65.226 75.7126 65.226C75.4046 65.226 75.1646 65.29 74.9926 65.418C74.8206 65.542 74.7346 65.716 74.7346 65.94C74.7346 66.132 74.8106 66.278 74.9626 66.378C75.1146 66.474 75.3586 66.562 75.6946 66.642C76.0466 66.722 76.3306 66.806 76.5466 66.894C76.7666 66.978 76.9406 67.096 77.0686 67.248C77.2006 67.396 77.2666 67.588 77.2666 67.824C77.2666 68.064 77.1986 68.278 77.0626 68.466C76.9306 68.65 76.7426 68.7939 76.4986 68.8979C76.2586 68.9979 75.9806 69.0479 75.6646 69.0479ZM78.3343 69.0299C78.2423 69.0299 78.1683 69.0019 78.1123 68.9459C78.0563 68.8899 78.0283 68.8139 78.0283 68.718L78.0283 65.052C78.0283 64.96 78.0563 64.886 78.1123 64.83C78.1683 64.77 78.2423 64.74 78.3343 64.74C78.4303 64.74 78.5063 64.768 78.5623 64.824C78.6183 64.88 78.6463 64.956 78.6463 65.052L78.6463 68.718C78.6463 68.8139 78.6183 68.8899 78.5623 68.9459C78.5103 69.0019 78.4343 69.0299 78.3343 69.0299ZM83.052 69.0479C82.648 69.0479 82.296 68.9619 81.996 68.7899C81.696 68.614 81.466 68.364 81.306 68.04C81.146 67.712 81.066 67.326 81.066 66.882C81.066 66.442 81.146 66.06 81.306 65.736C81.466 65.408 81.696 65.158 81.996 64.986C82.296 64.81 82.648 64.722 83.052 64.722C83.316 64.722 83.566 64.764 83.802 64.848C84.038 64.928 84.244 65.046 84.42 65.202C84.496 65.262 84.534 65.342 84.534 65.442C84.534 65.514 84.514 65.576 84.474 65.628C84.434 65.676 84.386 65.7 84.33 65.7C84.262 65.7 84.196 65.674 84.132 65.622C83.94 65.478 83.764 65.378 83.604 65.322C83.448 65.262 83.27 65.232 83.07 65.232C82.63 65.232 82.292 65.374 82.056 65.658C81.82 65.942 81.702 66.35 81.702 66.882C81.702 67.418 81.82 67.828 82.056 68.112C82.292 68.396 82.63 68.538 83.07 68.538C83.262 68.538 83.436 68.508 83.592 68.448C83.752 68.388 83.932 68.288 84.132 68.148C84.212 68.096 84.278 68.07 84.33 68.07C84.386 68.07 84.434 68.096 84.474 68.148C84.514 68.196 84.534 68.256 84.534 68.328C84.534 68.428 84.496 68.508 84.42 68.568C84.244 68.724 84.038 68.8439 83.802 68.9279C83.566 69.0079 83.316 69.0479 83.052 69.0479ZM86.412 69.0419C86.124 69.0419 85.87 68.9799 85.65 68.8559C85.434 68.732 85.266 68.556 85.146 68.328C85.03 68.096 84.972 67.828 84.972 67.524C84.972 67.216 85.03 66.948 85.146 66.72C85.266 66.488 85.434 66.31 85.65 66.186C85.87 66.062 86.124 66 86.412 66C86.7 66 86.952 66.062 87.168 66.186C87.388 66.31 87.556 66.488 87.672 66.72C87.792 66.948 87.852 67.216 87.852 67.524C87.852 67.828 87.792 68.096 87.672 68.328C87.556 68.556 87.388 68.732 87.168 68.8559C86.952 68.9799 86.7 69.0419 86.412 69.0419ZM86.412 68.562C86.68 68.562 86.884 68.474 87.024 68.298C87.168 68.122 87.24 67.864 87.24 67.524C87.24 67.188 87.168 66.932 87.024 66.756C86.88 66.576 86.676 66.486 86.412 66.486C86.148 66.486 85.944 66.576 85.8 66.756C85.656 66.932 85.584 67.188 85.584 67.524C85.584 67.864 85.654 68.122 85.794 68.298C85.938 68.474 86.144 68.562 86.412 68.562ZM90.1048 66C90.8048 66 91.1548 66.394 91.1548 67.182L91.1548 68.742C91.1548 68.8339 91.1268 68.9059 91.0708 68.9579C91.0188 69.0059 90.9448 69.0299 90.8488 69.0299C90.7568 69.0299 90.6828 69.0039 90.6268 68.9519C90.5748 68.8999 90.5488 68.8299 90.5488 68.742L90.5488 67.212C90.5488 66.964 90.4988 66.782 90.3988 66.666C90.3028 66.55 90.1508 66.492 89.9428 66.492C89.6988 66.492 89.5028 66.568 89.3548 66.72C89.2068 66.872 89.1328 67.076 89.1328 67.332L89.1328 68.742C89.1328 68.8299 89.1048 68.8999 89.0488 68.9519C88.9968 69.0039 88.9248 69.0299 88.8328 69.0299C88.7408 69.0299 88.6668 69.0039 88.6108 68.9519C88.5548 68.8999 88.5268 68.8299 88.5268 68.742L88.5268 66.3C88.5268 66.216 88.5548 66.148 88.6108 66.096C88.6708 66.04 88.7448 66.012 88.8328 66.012C88.9208 66.012 88.9908 66.038 89.0428 66.09C89.0948 66.142 89.1208 66.21 89.1208 66.294L89.1208 66.54C89.2168 66.364 89.3508 66.23 89.5228 66.138C89.6948 66.046 89.8888 66 90.1048 66ZM93.0038 69.0419C92.5958 69.0419 92.2618 68.9579 92.0018 68.7899C91.9298 68.7459 91.8778 68.7 91.8458 68.652C91.8178 68.604 91.8038 68.55 91.8038 68.49C91.8038 68.426 91.8218 68.372 91.8578 68.328C91.8938 68.284 91.9398 68.262 91.9958 68.262C92.0478 68.262 92.1298 68.294 92.2418 68.358C92.3618 68.422 92.4778 68.474 92.5898 68.514C92.7058 68.554 92.8498 68.574 93.0218 68.574C93.2138 68.574 93.3638 68.54 93.4718 68.472C93.5798 68.404 93.6338 68.308 93.6338 68.184C93.6338 68.104 93.6118 68.04 93.5678 67.992C93.5278 67.944 93.4558 67.902 93.3518 67.866C93.2478 67.826 93.0938 67.784 92.8898 67.74C92.5378 67.664 92.2838 67.562 92.1278 67.434C91.9758 67.302 91.8998 67.124 91.8998 66.9C91.8998 66.728 91.9498 66.574 92.0498 66.438C92.1498 66.298 92.2878 66.19 92.4638 66.114C92.6398 66.038 92.8398 66 93.0638 66C93.2238 66 93.3798 66.022 93.5318 66.066C93.6838 66.106 93.8178 66.166 93.9338 66.246C94.0658 66.334 94.1318 66.436 94.1318 66.552C94.1318 66.616 94.1118 66.67 94.0718 66.714C94.0358 66.758 93.9918 66.78 93.9398 66.78C93.9038 66.78 93.8678 66.772 93.8318 66.756C93.7958 66.74 93.7478 66.714 93.6878 66.678C93.5798 66.614 93.4778 66.564 93.3818 66.528C93.2898 66.492 93.1738 66.474 93.0338 66.474C92.8658 66.474 92.7298 66.51 92.6258 66.582C92.5258 66.654 92.4758 66.752 92.4758 66.876C92.4758 66.988 92.5218 67.076 92.6138 67.14C92.7098 67.2 92.8878 67.258 93.1478 67.314C93.4158 67.37 93.6258 67.434 93.7778 67.506C93.9298 67.578 94.0378 67.668 94.1018 67.776C94.1698 67.88 94.2038 68.014 94.2038 68.178C94.2038 68.438 94.0938 68.648 93.8738 68.8079C93.6578 68.9639 93.3678 69.0419 93.0038 69.0419ZM97.1464 66.012C97.2384 66.012 97.3104 66.038 97.3624 66.09C97.4184 66.142 97.4464 66.214 97.4464 66.306L97.4464 68.7479C97.4464 68.8319 97.4184 68.8999 97.3624 68.9519C97.3064 69.0039 97.2324 69.0299 97.1404 69.0299C97.0564 69.0299 96.9884 69.0059 96.9364 68.9579C96.8844 68.9059 96.8584 68.8379 96.8584 68.7539L96.8584 68.526C96.7664 68.694 96.6384 68.8219 96.4744 68.9099C96.3144 68.9979 96.1344 69.0419 95.9344 69.0419C95.2224 69.0419 94.8664 68.65 94.8664 67.866L94.8664 66.306C94.8664 66.214 94.8924 66.142 94.9444 66.09C95.0004 66.038 95.0764 66.012 95.1724 66.012C95.2644 66.012 95.3364 66.038 95.3884 66.09C95.4444 66.142 95.4724 66.214 95.4724 66.306L95.4724 67.86C95.4724 68.096 95.5204 68.27 95.6164 68.382C95.7124 68.494 95.8604 68.55 96.0604 68.55C96.2964 68.55 96.4844 68.474 96.6244 68.322C96.7684 68.17 96.8404 67.968 96.8404 67.716L96.8404 66.306C96.8404 66.218 96.8684 66.148 96.9244 66.096C96.9804 66.04 97.0544 66.012 97.1464 66.012ZM98.6004 69.0299C98.5124 69.0299 98.4384 69.0059 98.3784 68.9579C98.3224 68.9099 98.2944 68.8379 98.2944 68.742L98.2944 65.034C98.2944 64.938 98.3224 64.866 98.3784 64.818C98.4384 64.766 98.5124 64.74 98.6004 64.74C98.6884 64.74 98.7604 64.766 98.8164 64.818C98.8724 64.866 98.9004 64.938 98.9004 65.034L98.9004 68.742C98.9004 68.8379 98.8724 68.9099 98.8164 68.9579C98.7604 69.0059 98.6884 69.0299 98.6004 69.0299ZM101.182 68.568C101.27 68.576 101.332 68.6 101.368 68.64C101.408 68.676 101.428 68.728 101.428 68.7959C101.428 68.8759 101.396 68.9379 101.332 68.9819C101.272 69.0219 101.182 69.0379 101.062 69.0299L100.9 69.0179C100.576 68.9939 100.334 68.8959 100.174 68.724C100.014 68.548 99.9336 68.29 99.9336 67.95L99.9336 66.54L99.5736 66.54C99.3976 66.54 99.3096 66.462 99.3096 66.306C99.3096 66.234 99.3316 66.178 99.3756 66.138C99.4236 66.094 99.4896 66.072 99.5736 66.072L99.9336 66.072L99.9336 65.454C99.9336 65.362 99.9596 65.29 100.012 65.238C100.068 65.186 100.142 65.16 100.234 65.16C100.326 65.16 100.4 65.186 100.456 65.238C100.512 65.29 100.54 65.362 100.54 65.454L100.54 66.072L101.134 66.072C101.218 66.072 101.282 66.094 101.326 66.138C101.374 66.178 101.398 66.234 101.398 66.306C101.398 66.382 101.374 66.44 101.326 66.48C101.282 66.52 101.218 66.54 101.134 66.54L100.54 66.54L100.54 67.992C100.54 68.18 100.578 68.318 100.654 68.406C100.734 68.494 100.854 68.544 101.014 68.556L101.182 68.568Z" fill="black"/>
</g>
</g>
</g>
</g>
</g>
<defs>
<filter id="filter0_d" x="0" y="0" width="176" height="133" filterUnits="userSpaceOnUse" color-interpolation-filters="sRGB">
<feFlood flood-opacity="0" result="BackgroundImageFix"/>
<feColorMatrix in="SourceAlpha" type="matrix" values="0 0 0 0 0 0 0 0 0 0 0 0 0 0 0 0 0 0 127 0"/>
<feOffset dy="4"/>
<feGaussianBlur stdDeviation="2"/>
<feColorMatrix type="matrix" values="0 0 0 0 0 0 0 0 0 0 0 0 0 0 0 0 0 0 0.25 0"/>
<feBlend mode="normal" in2="BackgroundImageFix" result="effect1_dropShadow"/>
<feBlend mode="normal" in="SourceGraphic" in2="effect1_dropShadow" result="shape"/>
</filter>
</defs>
</svg>
