<svg width="188" height="142" viewBox="0 0 188 142" fill="none" xmlns="http://www.w3.org/2000/svg">
<g id="Group 26" filter="url(#filter0_d)">
<g id="Group 20">
<mask id="mask0" mask-type="alpha" maskUnits="userSpaceOnUse" x="0" y="0" width="188" height="173">
<rect id="Rectangle 13" width="188" height="173" rx="52.5" fill="#D5E7FF"/>
</mask>
<g mask="url(#mask0)">
<g id="Group 26_2">
<path id="Vector" d="M23.8238 73.6093C23.9684 82.9958 27.304 84.012 31.4002 83.033C36.0796 81.9146 39.9203 78.4093 41.8133 73.7714L43.1188 70.5728C43.9867 68.4464 44.0159 66.0445 43.2 63.8954C42.3841 61.7463 40.7899 60.0261 38.7682 59.1133H38.7682C37.7671 58.6613 36.6912 58.4211 35.6019 58.4065C34.5126 58.3918 33.4312 58.603 32.4194 59.0279C31.4077 59.4528 30.4854 60.0831 29.7053 60.8829C28.9252 61.6827 28.3025 62.6362 27.8728 63.6891C23.6719 65.4248 22.8422 69.018 23.8238 73.6093Z" fill="#061D28"/>
<path id="Vector_2" d="M50.1628 54.7173L51.42 52.4796C51.5736 52.2064 51.6663 51.9001 51.6912 51.5838C51.7161 51.2675 51.6726 50.9494 51.564 50.6533C51.4553 50.3572 51.2843 50.0908 51.0638 49.8741C50.8433 49.6575 50.5789 49.4961 50.2907 49.4022V49.4022C49.9864 49.3031 49.6641 49.282 49.3504 49.3405C49.0368 49.399 48.741 49.5355 48.4877 49.7386C48.2345 49.9417 48.031 50.2055 47.8943 50.5081C47.7576 50.8107 47.6917 51.1433 47.7019 51.4781L47.7758 53.8834L41.8673 70.9141L45.0893 71.6216L50.1628 54.7173Z" fill="#9F616A"/>
<path id="Vector_3" d="M19.0789 96.7012L17.5313 98.7276C17.3424 98.975 17.2091 99.2643 17.1416 99.5736C17.0741 99.883 17.0741 100.204 17.1415 100.514C17.209 100.823 17.3421 101.112 17.5311 101.36C17.72 101.607 17.9597 101.807 18.2323 101.943V101.943C18.5201 102.087 18.8363 102.156 19.1546 102.145C19.473 102.134 19.7842 102.043 20.0624 101.88C20.3407 101.717 20.5778 101.486 20.7541 101.207C20.9304 100.928 21.0407 100.609 21.0759 100.276L21.3285 97.8842L29.4836 81.9126L26.3903 80.7296L19.0789 96.7012Z" fill="#9F616A"/>
<path id="Vector_4" d="M28.6398 113.56L28.8676 116.438L28.921 117.109L44.067 115.577C44.589 115.515 45.0899 115.325 45.5287 115.021C45.9676 114.717 46.3322 114.309 46.5927 113.829C46.8533 113.349 47.0026 112.811 47.0284 112.259C47.0542 111.708 46.9558 111.157 46.7413 110.653L41.8567 99.6233L40.1694 95.8138L32.8579 94.0392C26.8288 98.8928 32.2533 104.249 39.0783 109.668C39.3455 109.881 39.6154 110.094 39.8882 110.307L28.6398 113.56Z" fill="#061D28"/>
<path id="Vector_5" d="M23.5364 123.525C23.7209 123.553 23.9091 123.53 24.083 123.46C24.2568 123.389 24.4105 123.272 24.5292 123.121L29.4835 116.813L29.2023 113.856L27.513 112.79C27.3748 112.702 27.2203 112.648 27.06 112.63C26.8998 112.612 26.7378 112.631 26.5852 112.685C26.4326 112.74 26.2931 112.828 26.1764 112.945C26.0597 113.062 25.9686 113.204 25.9094 113.362L22.6781 121.972C22.6177 122.133 22.5928 122.306 22.6051 122.478C22.6175 122.651 22.6668 122.818 22.7494 122.967C22.832 123.117 22.9457 123.245 23.082 123.341C23.2183 123.438 23.3736 123.501 23.5364 123.525V123.525Z" fill="#061D28"/>
<path id="Vector_6" opacity="0.2" d="M27.7961 112.969L28.0773 116.518L28.8675 116.438L43.2233 114.986C43.7454 114.924 44.2462 114.733 44.6851 114.429C45.1239 114.126 45.4885 113.717 45.749 113.237C46.0096 112.758 46.1589 112.22 46.1847 111.668C46.2105 111.116 46.1121 110.565 45.8976 110.061L41.8566 100.546V99.6233L40.1693 95.8138L32.8579 94.0392C26.8287 98.8928 32.2533 104.249 39.0783 109.668L39.0445 109.715L27.7961 112.969Z" fill="black"/>
<path id="Vector_7" d="M22.1302 122.342C22.3147 122.37 22.5029 122.347 22.6768 122.277C22.8506 122.206 23.0043 122.089 23.123 121.938L28.0773 115.63L27.7961 112.673L26.1068 111.607C25.9687 111.519 25.8141 111.465 25.6538 111.447C25.4936 111.429 25.3316 111.448 25.179 111.502C25.0264 111.557 24.8869 111.645 24.7702 111.762C24.6535 111.879 24.5624 112.021 24.5032 112.179L21.2719 120.789C21.2115 120.95 21.1866 121.123 21.1989 121.295C21.2113 121.468 21.2606 121.635 21.3432 121.784C21.4258 121.934 21.5395 122.062 21.6758 122.158C21.8121 122.255 21.9674 122.318 22.1302 122.342V122.342Z" fill="#061D28"/>
<path id="Vector_8" d="M27.2338 112.377L27.515 115.926L42.661 114.394C43.1831 114.332 43.6839 114.141 44.1228 113.838C44.5617 113.534 44.9262 113.126 45.1869 112.646C45.4476 112.166 45.597 111.629 45.623 111.077C45.649 110.525 45.5508 109.974 45.3365 109.47L41.2943 99.9546V94.6308L31.452 92.8561C25.1856 97.9003 31.2912 103.488 38.4822 109.124L27.2338 112.377Z" fill="#061D28"/>
<path id="Vector_9" d="M36.7952 70.6732C39.1248 70.6732 41.0133 68.6869 41.0133 66.2366C41.0133 63.7864 39.1248 61.8 36.7952 61.8C34.4656 61.8 32.577 63.7864 32.577 66.2366C32.577 68.6869 34.4656 70.6732 36.7952 70.6732Z" fill="#9F616A"/>
<path id="Vector_10" d="M31.1705 73.6312L37.0759 77.772L42.1377 76.5889L39.3256 73.6312V69.1946L34.8262 68.8989C34.7317 70.6705 33.7665 72.2917 31.1705 73.6312Z" fill="#9F616A"/>
<path id="Vector_11" d="M30.3274 94.335L41.2946 95.8139L43.8255 83.3915C45.0013 80.0941 44.3267 77.1808 42.1498 74.5793C42.0666 74.1415 41.8448 73.7463 41.5206 73.458C41.1965 73.1698 40.789 73.0055 40.3647 72.992L39.3261 73.0395C39.4436 76.9622 36.6958 76.0174 32.5771 72.7438L32.0798 72.9007C31.4368 73.1036 30.8849 73.5431 30.5248 74.139C30.1648 74.7348 30.0208 75.4471 30.1192 76.1455L30.5727 79.3651C30.765 80.6415 31.0637 81.8976 31.4654 83.1189C32.5898 86.6534 32.188 90.3951 30.3274 94.335Z" fill="#15C7C7"/>
<path id="Vector_12" d="M25.2656 81.0254L30.3273 82.8L32.577 74.2226L31.8149 73.8583C31.183 73.5562 30.4655 73.5182 29.808 73.7522C29.1505 73.9861 28.6023 74.4743 28.2745 75.1178L25.2656 81.0254Z" fill="#15C7C7"/>
<path id="Vector_13" d="M40.1693 73.0395L42.9814 76.2929L46.3558 70.6733L42.1377 68.3072L40.1693 73.0395Z" fill="#15C7C7"/>
<path id="Vector_14" d="M31.8738 64.9059C34.5245 65.9571 37.3534 65.8482 40.3101 64.9059V61.3566H31.8738V64.9059Z" fill="#061D28"/>
<path id="Vector_15" d="M163.431 125.832L160.523 127.107L141.136 99.3242L127.081 127.616L123.446 126.852L134.109 87.8546H146.468L163.431 125.832Z" fill="#061D28"/>
<path id="Vector_16" d="M167.333 132.313C167.171 132.359 167.003 132.372 166.837 132.349C166.672 132.327 166.512 132.27 166.367 132.182L160.234 128.468C160.069 128.368 159.927 128.229 159.821 128.062C159.715 127.895 159.646 127.705 159.621 127.506C159.596 127.307 159.615 127.104 159.677 126.914C159.738 126.723 159.84 126.551 159.975 126.409L160.523 125.832L163.431 125.577L167.877 130.066C168.038 130.229 168.156 130.435 168.218 130.661C168.279 130.888 168.282 131.128 168.227 131.356C168.172 131.585 168.06 131.794 167.903 131.962C167.746 132.13 167.549 132.251 167.333 132.313Z" fill="#061D28"/>
<path id="Vector_17" d="M119.787 133.333C119.948 133.379 120.116 133.391 120.282 133.369C120.448 133.346 120.608 133.289 120.752 133.202L126.885 129.488C127.051 129.388 127.192 129.249 127.299 129.082C127.405 128.915 127.473 128.724 127.498 128.525C127.523 128.326 127.504 128.123 127.443 127.933C127.382 127.743 127.279 127.57 127.144 127.428L126.596 126.852L123.688 126.597L119.243 131.085C119.081 131.249 118.963 131.454 118.902 131.681C118.84 131.907 118.837 132.147 118.892 132.376C118.948 132.604 119.06 132.813 119.217 132.981C119.374 133.149 119.571 133.271 119.787 133.333V133.333Z" fill="#061D28"/>
<path id="Vector_18" d="M125.869 47.3279L124.658 48.0926L122.147 43.801C121.993 43.5374 121.901 43.2387 121.879 42.93C121.858 42.6214 121.907 42.3118 122.024 42.0275C122.14 41.7431 122.319 41.4923 122.547 41.2962C122.775 41.1001 123.044 40.9645 123.332 40.9007C123.588 40.844 123.852 40.8456 124.108 40.9052C124.363 40.9649 124.603 41.0813 124.812 41.2467C125.022 41.4121 125.195 41.6226 125.32 41.864C125.446 42.1055 125.52 42.3724 125.54 42.6469L125.869 47.3279Z" fill="#FFB9B9"/>
<path id="Vector_19" d="M159.434 80.7402L159.937 79.3513L164.433 81.091C164.71 81.1978 164.957 81.3729 165.156 81.6016C165.354 81.8302 165.497 82.1057 165.573 82.4047C165.649 82.7037 165.655 83.0175 165.591 83.3197C165.528 83.6218 165.396 83.9035 165.207 84.1409V84.1409C165.039 84.3519 164.831 84.5228 164.595 84.642C164.359 84.7612 164.102 84.826 163.84 84.832C163.579 84.8381 163.319 84.7852 163.078 84.677C162.838 84.5688 162.622 84.4078 162.445 84.2047L159.434 80.7402Z" fill="#FFB9B9"/>
<path id="Vector_20" d="M140.41 62.621C142.417 62.621 144.045 60.9093 144.045 58.7977C144.045 56.6862 142.417 54.9745 140.41 54.9745C138.402 54.9745 136.775 56.6862 136.775 58.7977C136.775 60.9093 138.402 62.621 140.41 62.621Z" fill="#FFB9B9"/>
<path id="Vector_21" d="M143.56 66.9539H138.47V61.0917L142.833 60.5818L143.56 66.9539Z" fill="#FFB9B9"/>
<path id="Vector_22" d="M147.195 89.3837H133.382C133.869 81.2775 134.254 73.4438 133.382 68.993L134.185 64.9381C134.296 64.3763 134.604 63.8791 135.048 63.5454C135.492 63.2117 136.039 63.0659 136.581 63.1371L138.471 63.3856C139.75 65.7522 141.297 65.7294 143.075 63.6404H145.351C145.655 63.6404 145.955 63.7041 146.235 63.8277C146.515 63.9514 146.769 64.1324 146.981 64.3604C147.194 64.5883 147.361 64.8586 147.473 65.1553C147.585 65.452 147.639 65.7692 147.633 66.0884C148.226 68.9443 148.424 71.8755 148.219 74.7909L147.195 89.3837Z" fill="#3F3D56"/>
<path id="Vector_23" d="M123.931 47.3277L125.869 46.3083L136.29 64.405L133.382 68.9929L123.931 47.3277Z" fill="#3F3D56"/>
<path id="Vector_24" d="M159.462 81.4655L161.118 79.9956L152.315 67.0208C151.454 65.7515 150.266 64.7665 148.892 64.1813C147.518 63.596 146.013 63.4348 144.555 63.7164L144.277 63.77L147.606 69.8972L151.991 73.3886L159.462 81.4655Z" fill="#3F3D56"/>
<path id="Vector_25" d="M144.613 56.5408C144.613 56.5408 145.293 54.9691 143.527 54.2547C143.527 54.2547 142.032 51.6828 139.044 53.3974C139.044 53.3974 137.006 54.2547 137.006 56.5408C137.006 58.8269 136.327 59.2556 136.327 59.2556C136.327 59.2556 137.338 58.1641 137.61 57.3068C137.881 56.4495 139.994 56.255 140.81 57.1123C141.625 57.9696 143.662 57.8268 143.662 57.8268L143.527 60.9702C143.527 60.9702 144.206 59.1127 144.478 59.1127C144.749 59.1127 145.021 56.5408 144.613 56.5408Z" fill="#061D28"/>
<path id="Vector_26" d="M33.2271 141.524C39.7201 141.524 44.9836 141.236 44.9836 140.88C44.9836 140.525 39.7201 140.236 33.2271 140.236C26.7342 140.236 21.4707 140.525 21.4707 140.88C21.4707 141.236 26.7342 141.524 33.2271 141.524Z" fill="#C4C4C4"/>
<path id="Vector_27" d="M144.278 142.099C156.561 142.099 166.519 141.553 166.519 140.88C166.519 140.207 156.561 139.662 144.278 139.662C131.994 139.662 122.036 140.207 122.036 140.88C122.036 141.553 131.994 142.099 144.278 142.099Z" fill="#C4C4C4"/>
<path id="Vector_28" d="M123.962 48.6133L51.2574 58.2671C50.9004 58.3139 50.5454 58.149 50.2704 57.8086C49.9954 57.4681 49.8227 56.98 49.7903 56.4512L48.174 29.7317C48.1424 29.2028 48.2537 28.677 48.4835 28.2695C48.7133 27.862 49.0428 27.6062 49.3997 27.5582L122.104 17.9044C122.461 17.8576 122.816 18.0226 123.091 18.363C123.366 18.7034 123.539 19.1916 123.571 19.7204L125.188 46.4398C125.219 46.9687 125.108 47.4946 124.878 47.9021C124.648 48.3095 124.319 48.5653 123.962 48.6133V48.6133Z" fill="#15C7C7"/>
<path id="STMIK Insan Pembangunan" d="M75.7534 33.6598C75.401 33.6993 75.0602 33.6883 74.731 33.6267C74.4064 33.5645 74.1409 33.4582 73.9346 33.3076C73.8395 33.2432 73.7864 33.1529 73.7755 33.0367C73.7676 32.9531 73.7842 32.8808 73.8253 32.8199C73.866 32.7543 73.9188 32.7178 73.9837 32.7105C74.0486 32.7032 74.1303 32.7246 74.2287 32.7745C74.6704 33.0348 75.1556 33.1353 75.6843 33.0759C76.0553 33.0343 76.3339 32.9326 76.5202 32.7708C76.7064 32.609 76.7873 32.398 76.7627 32.1379C76.7434 31.9334 76.6362 31.7905 76.4411 31.7091C76.2459 31.6278 75.9399 31.5635 75.5231 31.5164C75.1256 31.4765 74.7966 31.4172 74.5361 31.3385C74.2756 31.2598 74.0649 31.1379 73.9041 30.9728C73.7474 30.8026 73.6557 30.5758 73.629 30.2924C73.6022 30.009 73.6551 29.7495 73.7875 29.5139C73.9241 29.2732 74.1259 29.0768 74.3927 28.9248C74.6592 28.7681 74.9709 28.6697 75.328 28.6296C75.6573 28.5926 75.9654 28.605 76.2524 28.6667C76.5394 28.7283 76.7889 28.8388 77.0008 28.9982C77.101 29.0667 77.1563 29.1568 77.1668 29.2683C77.1743 29.3473 77.1554 29.4198 77.1101 29.4859C77.0694 29.5515 77.0166 29.588 76.9516 29.5953C76.8914 29.6021 76.812 29.5804 76.7135 29.5305C76.4849 29.3918 76.2722 29.2983 76.0755 29.25C75.883 29.1965 75.6545 29.1846 75.3902 29.2142C75.0331 29.2543 74.7619 29.3599 74.5765 29.531C74.3907 29.6974 74.31 29.9107 74.3346 30.1709C74.3556 30.3939 74.4597 30.5536 74.6469 30.6499C74.8337 30.7417 75.1262 30.8121 75.5245 30.8613C75.9414 30.9084 76.2799 30.969 76.5399 31.0431C76.8042 31.112 77.0189 31.2264 77.1839 31.3863C77.3532 31.541 77.4507 31.7554 77.4766 32.0295C77.5029 32.3083 77.4475 32.5657 77.3105 32.8018C77.1776 33.0327 76.9754 33.2244 76.7039 33.377C76.4366 33.5244 76.1198 33.6186 75.7534 33.6598ZM79.9204 33.1707C79.8137 33.1827 79.7225 33.1601 79.6468 33.1028C79.5753 33.0404 79.5345 32.9558 79.5245 32.8489L79.1483 28.8626L77.7571 29.0189C77.5345 29.0439 77.4137 28.9565 77.3949 28.7567C77.3857 28.6591 77.4065 28.5817 77.4573 28.5243C77.5128 28.4664 77.5938 28.4315 77.7005 28.4195L81.2065 28.0258C81.3131 28.0139 81.3967 28.0303 81.4572 28.0752C81.5223 28.1195 81.5594 28.1904 81.5686 28.288C81.5875 28.4878 81.4856 28.6002 81.263 28.6252L79.8718 28.7814L80.2479 32.7677C80.258 32.8746 80.2339 32.9665 80.1755 33.0435C80.1167 33.1158 80.0317 33.1582 79.9204 33.1707ZM86.4863 27.3977C86.5883 27.3863 86.675 27.4117 86.7465 27.4741C86.8176 27.5319 86.8582 27.6142 86.8683 27.7211L87.272 32.0001C87.2821 32.1069 87.2599 32.1939 87.2053 32.2611C87.1553 32.3277 87.0793 32.3668 86.9773 32.3783C86.8799 32.3892 86.8006 32.3676 86.7392 32.3134C86.6779 32.2593 86.6421 32.1788 86.6321 32.0719L86.3263 28.8313L85.2081 31.5839C85.1354 31.7564 85.0294 31.8504 84.8903 31.8661C84.7512 31.8817 84.6299 31.8131 84.5264 31.6604L82.9134 29.2427L83.2165 32.4555C83.2266 32.5623 83.2067 32.6491 83.1567 32.7157C83.1068 32.7824 83.0308 32.8214 82.9288 32.8329C82.8314 32.8438 82.7497 32.8225 82.6837 32.7688C82.6219 32.7101 82.5862 32.6295 82.5765 32.5273L82.1728 28.2483C82.1627 28.1415 82.187 28.0519 82.2458 27.9796C82.3042 27.9026 82.3844 27.8584 82.4864 27.8469C82.6302 27.8308 82.754 27.9014 82.8579 28.0587L84.821 31.0569L86.1691 27.6869C86.2414 27.5097 86.3471 27.4134 86.4863 27.3977ZM88.8056 32.173C88.6989 32.1849 88.61 32.162 88.539 32.1043C88.4679 32.0465 88.4271 31.9619 88.4166 31.8504L88.0148 27.5923C88.0047 27.4855 88.0291 27.3959 88.0879 27.3235C88.1462 27.2465 88.2287 27.2021 88.3354 27.1901C88.4467 27.1776 88.5379 27.2002 88.6089 27.258C88.68 27.3157 88.7208 27.4004 88.7313 27.5119L89.1331 31.7699C89.1436 31.8814 89.1195 31.9734 89.0607 32.0457C89.0065 32.1175 88.9215 32.1599 88.8056 32.173ZM93.9028 31.016C93.9887 31.0815 94.0358 31.1584 94.0441 31.2466C94.0524 31.3349 94.0249 31.4155 93.9614 31.4883C93.9027 31.5607 93.8292 31.6018 93.7411 31.6117C93.653 31.6216 93.5683 31.5935 93.4871 31.5275L90.7996 29.5685L90.9876 31.5617C90.9982 31.6732 90.974 31.7651 90.9152 31.8374C90.8611 31.9093 90.7761 31.9517 90.6601 31.9647C90.5535 31.9767 90.4646 31.9538 90.3935 31.896C90.3225 31.8383 90.2817 31.7536 90.2711 31.6421L89.8694 27.3841C89.8593 27.2772 89.8836 27.1876 89.9424 27.1153C90.0008 27.0383 90.0833 26.9938 90.1899 26.9818C90.3012 26.9693 90.3924 26.992 90.4635 27.0497C90.5345 27.1075 90.5753 27.1921 90.5859 27.3036L90.766 29.2131L92.9336 26.7794C92.9924 26.707 93.0659 26.6659 93.154 26.656C93.2421 26.6461 93.3217 26.6701 93.3927 26.7278C93.4638 26.7856 93.5033 26.8563 93.5112 26.9399C93.5195 27.0282 93.4877 27.1139 93.4159 27.1971L91.5179 29.2836L93.9028 31.016ZM54.3794 46.1001C54.2727 46.1121 54.1839 46.0892 54.1128 46.0314C54.0417 45.9737 54.0009 45.8891 53.9904 45.7776L53.5886 41.5195C53.5785 41.4126 53.6029 41.323 53.6617 41.2507C53.72 41.1737 53.8025 41.1292 53.9092 41.1172C54.0205 41.1047 54.1117 41.1274 54.1827 41.1851C54.2538 41.2429 54.2946 41.3275 54.3051 41.439L54.7069 45.6971C54.7174 45.8086 54.6933 45.9005 54.6345 45.9729C54.5804 46.0447 54.4953 46.0871 54.3794 46.1001ZM57.2931 42.2163C58.1047 42.1251 58.5536 42.5372 58.64 43.4525L58.811 45.2644C58.8211 45.3713 58.7965 45.4585 58.7373 45.5262C58.6822 45.5887 58.5991 45.6263 58.4878 45.6388C58.3811 45.6507 58.2925 45.6302 58.2218 45.5771C58.1558 45.5234 58.118 45.4455 58.1084 45.3433L57.9407 43.5662C57.9135 43.2781 57.8356 43.0733 57.707 42.9515C57.5829 42.8293 57.4004 42.7817 57.1592 42.8088C56.8763 42.8406 56.6574 42.9544 56.5025 43.1502C56.3475 43.346 56.2841 43.5926 56.3122 43.8899L56.4667 45.5277C56.4764 45.6299 56.4516 45.7148 56.3923 45.7825C56.3377 45.8497 56.2571 45.8892 56.1505 45.9012C56.0438 45.9132 55.9551 45.8926 55.8845 45.8395C55.8139 45.7864 55.7738 45.7088 55.7641 45.6065L55.4965 42.7701C55.4873 42.6726 55.5123 42.59 55.5715 42.5223C55.6349 42.4494 55.7177 42.4073 55.8197 42.3958C55.9217 42.3843 56.0057 42.4054 56.0717 42.4591C56.1377 42.5127 56.1753 42.5883 56.1845 42.6858L56.2115 42.9716C56.3035 42.7547 56.4441 42.5816 56.6335 42.4523C56.8228 42.3231 57.0427 42.2444 57.2931 42.2163ZM60.9876 45.3721C60.5146 45.4252 60.1181 45.3712 59.7983 45.2099C59.71 45.1681 59.6446 45.1215 59.6023 45.0699C59.5646 45.0178 59.5424 44.9569 59.5358 44.8872C59.5288 44.8129 59.5438 44.7478 59.5807 44.692C59.6176 44.6362 59.6685 44.6047 59.7334 44.5974C59.7937 44.5906 59.8923 44.6171 60.0292 44.6769C60.1753 44.7356 60.3155 44.7809 60.4497 44.8127C60.5886 44.8441 60.7577 44.8486 60.9572 44.8262C61.1798 44.8012 61.3499 44.7422 61.4677 44.6491C61.5855 44.5561 61.6375 44.4376 61.624 44.2935C61.6152 44.2006 61.5827 44.1291 61.5264 44.0791C61.4748 44.0286 61.3867 43.9892 61.2622 43.9609C61.1372 43.928 60.954 43.8992 60.7127 43.8747C60.2963 43.8322 59.9906 43.7468 59.7957 43.6185C59.605 43.4849 59.4974 43.2881 59.4729 43.0279C59.454 42.8281 59.4951 42.6427 59.5961 42.4718C59.6967 42.2961 59.8449 42.1527 60.0406 42.0415C60.2363 41.9303 60.464 41.8602 60.7237 41.831C60.9092 41.8102 61.0925 41.8154 61.2736 41.8467C61.4542 41.8734 61.6161 41.9257 61.7594 42.0035C61.922 42.0885 62.0097 42.1984 62.0225 42.3331C62.0295 42.4075 62.0122 42.4728 61.9706 42.5291C61.9337 42.5849 61.8851 42.6162 61.8248 42.6229C61.7831 42.6276 61.7405 42.623 61.697 42.6091C61.6535 42.5952 61.595 42.5713 61.5215 42.5373C61.3893 42.477 61.2655 42.4322 61.1503 42.4029C61.0397 42.373 60.9032 42.3672 60.7409 42.3855C60.5461 42.4073 60.3924 42.4669 60.2797 42.564C60.1717 42.6607 60.1244 42.781 60.138 42.925C60.1503 43.0551 60.2133 43.1514 60.327 43.2137C60.4448 43.2709 60.6576 43.3151 60.9651 43.3463C61.282 43.3764 61.5325 43.4234 61.7166 43.4873C61.9007 43.5511 62.0358 43.6416 62.1218 43.7587C62.2121 43.8706 62.2662 44.0219 62.2841 44.2124C62.3126 44.5143 62.2081 44.7726 61.9706 44.9871C61.7373 45.1964 61.4096 45.3247 60.9876 45.3721ZM64.2535 41.4346C64.7033 41.3841 65.048 41.4605 65.2874 41.6636C65.5315 41.8663 65.6755 42.1999 65.7193 42.6645L65.8896 44.4695C65.8997 44.5764 65.8775 44.6634 65.8229 44.7305C65.7679 44.7931 65.687 44.8303 65.5803 44.8423C65.4783 44.8538 65.3943 44.8327 65.3283 44.779C65.2623 44.7254 65.2245 44.6475 65.2149 44.5453L65.1905 44.2874C65.1208 44.4925 65.0029 44.6583 64.8368 44.7849C64.6748 44.9064 64.4779 44.9802 64.2461 45.0062C64.0235 45.0312 63.8152 45.01 63.6214 44.9425C63.4271 44.8705 63.269 44.7591 63.147 44.6085C63.0296 44.4573 62.9615 44.2818 62.9427 44.0821C62.9194 43.8358 62.9638 43.636 63.0759 43.4825C63.1922 43.3239 63.3935 43.198 63.68 43.1048C63.9711 43.0111 64.374 42.9353 64.8888 42.8775L65.0488 42.8595L65.0297 42.6574C65.0052 42.3973 64.9341 42.2151 64.8165 42.1109C64.6988 42.0067 64.5218 41.9679 64.2852 41.9945C64.1229 42.0127 63.9719 42.0508 63.8321 42.1088C63.6922 42.1667 63.5403 42.2448 63.3761 42.3431C63.2575 42.4268 63.1727 42.4716 63.1216 42.4773C63.0521 42.4851 62.9917 42.4661 62.9405 42.4202C62.8939 42.3738 62.8669 42.3111 62.8595 42.2321C62.8529 42.1624 62.8658 42.0999 62.898 42.0446C62.9345 41.9842 62.9944 41.9235 63.0777 41.8625C63.2317 41.756 63.4152 41.6649 63.6284 41.5893C63.8411 41.5091 64.0495 41.4575 64.2535 41.4346ZM64.3219 44.4695C64.577 44.4408 64.7776 44.3314 64.9237 44.1413C65.0693 43.9465 65.1292 43.7121 65.1034 43.438L65.0863 43.2568L64.9611 43.2708C64.5993 43.3115 64.3226 43.359 64.1309 43.4134C63.9392 43.4678 63.8053 43.5391 63.7293 43.6275C63.6528 43.7112 63.6214 43.8251 63.635 43.9691C63.6508 44.1364 63.724 44.2666 63.8547 44.36C63.9853 44.4533 64.1411 44.4898 64.3219 44.4695ZM68.3797 40.9713C69.1912 40.8802 69.6402 41.2922 69.7266 42.2075L69.8975 44.0194C69.9076 44.1263 69.883 44.2136 69.8238 44.2813C69.7688 44.3438 69.6856 44.3813 69.5743 44.3938C69.4677 44.4058 69.379 44.3852 69.3084 44.3321C69.2424 44.2785 69.2046 44.2005 69.195 44.0983L69.0273 42.3212C69.0001 42.0332 68.9222 41.8283 68.7935 41.7066C68.6695 41.5843 68.4869 41.5368 68.2458 41.5638C67.9629 41.5956 67.744 41.7094 67.589 41.9052C67.4341 42.101 67.3707 42.3476 67.3987 42.645L67.5533 44.2827C67.5629 44.3849 67.5381 44.4699 67.4789 44.5375C67.4243 44.6047 67.3437 44.6443 67.237 44.6563C67.1304 44.6682 67.0417 44.6477 66.9711 44.5946C66.9005 44.5415 66.8603 44.4638 66.8507 44.3616L66.583 41.5252C66.5738 41.4276 66.5989 41.345 66.6581 41.2773C66.7215 41.2044 66.8042 41.1623 66.9063 41.1508C67.0083 41.1394 67.0923 41.1605 67.1583 41.2141C67.2243 41.2677 67.2619 41.3433 67.2711 41.4409L67.298 41.7266C67.39 41.5097 67.5307 41.3366 67.72 41.2073C67.9094 41.0781 68.1292 40.9994 68.3797 40.9713ZM73.1627 43.9908C73.056 44.0028 72.9672 43.9799 72.8961 43.9222C72.825 43.8644 72.7842 43.7798 72.7737 43.6683L72.3739 39.4311C72.3638 39.3242 72.3861 39.2372 72.4407 39.1701C72.4994 39.0977 72.5845 39.0553 72.6958 39.0428L74.3723 38.8546C74.8917 38.7962 75.3072 38.8787 75.6188 39.1019C75.9305 39.3252 76.1084 39.6714 76.1527 40.1407C76.1965 40.6053 76.087 40.9838 75.824 41.2763C75.561 41.5687 75.1698 41.7441 74.6504 41.8025L73.3357 41.9501L73.4902 43.5878C73.5007 43.6993 73.4766 43.7913 73.4178 43.8636C73.3637 43.9354 73.2786 43.9778 73.1627 43.9908ZM74.5193 41.2326C75.2057 41.1556 75.5206 40.8173 75.464 40.218C75.4079 39.6233 75.0367 39.3645 74.3503 39.4416L73.1121 39.5806L73.2811 41.3717L74.5193 41.2326ZM79.72 42.353C79.7849 42.3457 79.8406 42.3653 79.8872 42.4117C79.9338 42.4581 79.9608 42.5208 79.9682 42.5998C79.9809 42.7345 79.9082 42.8577 79.75 42.9694C79.5965 43.0805 79.4247 43.1726 79.2348 43.2456C79.0494 43.318 78.8687 43.3642 78.6924 43.384C78.1545 43.4444 77.7155 43.3364 77.3754 43.06C77.0349 42.7789 76.839 42.3666 76.7877 41.823C76.7548 41.4746 76.7929 41.1581 76.9019 40.8735C77.0156 40.5884 77.1884 40.3577 77.4201 40.1815C77.6565 40.0047 77.9324 39.8986 78.2477 39.8632C78.7022 39.8121 79.0754 39.9181 79.3674 40.1811C79.6594 40.4441 79.8288 40.8242 79.8757 41.3213C79.8932 41.5072 79.8185 41.6095 79.6516 41.6282L77.5021 41.8696C77.6164 42.5845 77.9959 42.9058 78.6405 42.8334C78.8121 42.8141 78.9583 42.7742 79.0791 42.7137C79.2 42.6532 79.3264 42.578 79.4585 42.488C79.4716 42.4771 79.5069 42.4544 79.5646 42.4197C79.6264 42.3799 79.6782 42.3577 79.72 42.353ZM78.3103 40.3773C78.0413 40.4075 77.8338 40.5177 77.6877 40.7078C77.5416 40.8979 77.467 41.1505 77.4639 41.4654L79.2587 41.2639C79.2149 40.9495 79.111 40.717 78.9468 40.5664C78.7868 40.4107 78.5747 40.3476 78.3103 40.3773ZM84.3922 39.1732C85.1528 39.0878 85.5762 39.5027 85.6626 40.418L85.8336 42.2299C85.8436 42.3368 85.8191 42.424 85.7598 42.4917C85.7002 42.5548 85.617 42.5923 85.5103 42.6043C85.4083 42.6157 85.3222 42.5972 85.252 42.5487C85.1814 42.4956 85.1411 42.4157 85.131 42.3088L84.9607 40.5038C84.9339 40.2204 84.8636 40.0217 84.7497 39.9077C84.6354 39.7891 84.4693 39.742 84.2514 39.7665C83.9963 39.7951 83.8029 39.9061 83.6711 40.0993C83.539 40.2878 83.4871 40.5331 83.5156 40.8351L83.6702 42.4728C83.6802 42.5797 83.6557 42.667 83.5964 42.7347C83.5368 42.7977 83.4536 42.8352 83.3469 42.8472C83.2449 42.8587 83.1588 42.8401 83.0886 42.7917C83.018 42.7386 82.9777 42.6586 82.9676 42.5517L82.7973 40.7468C82.7705 40.4633 82.7002 40.2647 82.5863 40.1507C82.472 40.032 82.3059 39.985 82.0879 40.0094C81.8329 40.0381 81.6372 40.1493 81.5008 40.343C81.3686 40.5316 81.3168 40.7768 81.3453 41.0788L81.4998 42.7166C81.5099 42.8234 81.4853 42.9107 81.4261 42.9784C81.3664 43.0414 81.2856 43.0787 81.1835 43.0901C81.0815 43.1016 80.9931 43.0833 80.9183 43.0354C80.8476 42.9823 80.8073 42.9023 80.7972 42.7955L80.5296 39.9591C80.5199 39.8568 80.547 39.7716 80.6109 39.7034C80.6748 39.6352 80.7554 39.5956 80.8528 39.5847C80.9502 39.5738 81.0318 39.5951 81.0978 39.6487C81.168 39.6972 81.2079 39.7725 81.2176 39.8748L81.2419 40.1326C81.3255 39.926 81.4529 39.7615 81.6242 39.6389C81.7954 39.5164 81.9992 39.4419 82.2358 39.4153C82.4955 39.3862 82.7138 39.4156 82.8909 39.5037C83.0725 39.5913 83.2156 39.7419 83.3201 39.9556C83.4033 39.7443 83.5391 39.5695 83.7276 39.4309C83.9156 39.2877 84.1371 39.2018 84.3922 39.1732ZM88.3177 38.7323C88.6145 38.699 88.8833 38.7416 89.1241 38.8601C89.3649 38.9786 89.5605 39.1633 89.7107 39.414C89.8655 39.6643 89.9596 39.9659 89.9929 40.319C90.0258 40.6675 89.99 40.9837 89.8856 41.2678C89.7858 41.5513 89.627 41.7804 89.4091 41.9552C89.1959 42.1293 88.9432 42.2328 88.6511 42.2657C88.396 42.2943 88.166 42.2661 87.9612 42.1811C87.7559 42.0915 87.5926 41.9502 87.4713 41.7572L87.4976 42.036C87.5072 42.1382 87.4826 42.2255 87.4239 42.2978C87.3693 42.365 87.2886 42.4046 87.182 42.4165C87.0753 42.4285 86.9867 42.408 86.916 42.3548C86.845 42.2971 86.8046 42.2171 86.795 42.1149L86.3886 37.808C86.3789 37.7058 86.4037 37.6209 86.463 37.5532C86.5268 37.485 86.6121 37.4449 86.7187 37.4329C86.8208 37.4214 86.9048 37.4425 86.9708 37.4961C87.041 37.5446 87.0807 37.6176 87.0899 37.7152L87.2582 39.4993C87.3409 39.2834 87.4744 39.1088 87.6587 38.9754C87.8429 38.842 88.0626 38.761 88.3177 38.7323ZM88.4315 41.7269C88.7329 41.693 88.9571 41.5599 89.1038 41.3274C89.2553 41.0944 89.3128 40.7851 89.2764 40.3995C89.2404 40.0185 89.1294 39.7352 88.9431 39.5495C88.7564 39.3592 88.5101 39.2812 88.204 39.3156C87.8979 39.35 87.6713 39.4811 87.524 39.7089C87.3814 39.9362 87.3283 40.2426 87.3647 40.6283C87.4011 41.0139 87.5103 41.3021 87.6924 41.4929C87.8791 41.6833 88.1254 41.7612 88.4315 41.7269ZM92.0311 38.3154C92.4809 38.2648 92.8255 38.3412 93.065 38.5443C93.3091 38.747 93.453 39.0806 93.4969 39.5452L93.6672 41.3502C93.6773 41.4571 93.655 41.5441 93.6004 41.6113C93.5454 41.6738 93.4646 41.711 93.3579 41.723C93.2559 41.7345 93.1719 41.7134 93.1059 41.6598C93.0399 41.6061 93.0021 41.5282 92.9924 41.426L92.9681 41.1681C92.8984 41.3732 92.7805 41.539 92.6143 41.6657C92.4524 41.7871 92.2555 41.8609 92.0236 41.8869C91.801 41.9119 91.5928 41.8907 91.399 41.8233C91.2047 41.7512 91.0466 41.6398 90.9245 41.4892C90.8072 41.338 90.7391 41.1626 90.7202 40.9628C90.697 40.7165 90.7414 40.5167 90.8535 40.3633C90.9697 40.2046 91.1711 40.0787 91.4575 39.9855C91.7486 39.8918 92.1516 39.816 92.6663 39.7582L92.8263 39.7403L92.8073 39.5382C92.7827 39.278 92.7116 39.0958 92.594 38.9916C92.4764 38.8875 92.2993 38.8487 92.0628 38.8752C91.9005 38.8934 91.7494 38.9315 91.6096 38.9895C91.4698 39.0475 91.3178 39.1256 91.1537 39.2238C91.035 39.3076 90.9502 39.3523 90.8992 39.358C90.8296 39.3658 90.7693 39.3468 90.7181 39.3009C90.6715 39.2545 90.6445 39.1918 90.637 39.1128C90.6305 39.0431 90.6433 38.9806 90.6756 38.9254C90.7121 38.8649 90.772 38.8042 90.8552 38.7432C91.0092 38.6367 91.1928 38.5456 91.4059 38.4701C91.6186 38.3898 91.827 38.3383 92.0311 38.3154ZM92.0995 41.3502C92.3546 41.3216 92.5551 41.2122 92.7012 41.022C92.8469 40.8273 92.9068 40.5928 92.8809 40.3187L92.8638 40.1375L92.7386 40.1516C92.3769 40.1922 92.1002 40.2397 91.9085 40.2941C91.7168 40.3485 91.5829 40.4199 91.5069 40.5082C91.4304 40.5919 91.399 40.7058 91.4126 40.8498C91.4283 41.0171 91.5016 41.1474 91.6322 41.2407C91.7629 41.334 91.9186 41.3705 92.0995 41.3502ZM96.1572 37.852C96.9688 37.7609 97.4178 38.1729 97.5041 39.0882L97.6751 40.9002C97.6852 41.007 97.6606 41.0943 97.6014 41.162C97.5464 41.2245 97.4632 41.262 97.3519 41.2745C97.2452 41.2865 97.1566 41.2659 97.086 41.2128C97.02 41.1592 96.9822 41.0813 96.9725 40.9791L96.8048 39.2019C96.7776 38.9139 96.6997 38.709 96.5711 38.5873C96.4471 38.4651 96.2645 38.4175 96.0233 38.4446C95.7404 38.4763 95.5215 38.5901 95.3666 38.7859C95.2117 38.9818 95.1482 39.2283 95.1763 39.5257L95.3308 41.1634C95.3405 41.2656 95.3157 41.3506 95.2565 41.4183C95.2019 41.4854 95.1212 41.525 95.0146 41.537C94.9079 41.549 94.8193 41.5284 94.7486 41.4753C94.678 41.4222 94.6379 41.3445 94.6282 41.2423L94.3606 38.4059C94.3514 38.3083 94.3764 38.2257 94.4356 38.158C94.4991 38.0852 94.5818 38.043 94.6838 38.0315C94.7858 38.0201 94.8698 38.0412 94.9358 38.0948C95.0018 38.1484 95.0394 38.224 95.0486 38.3216L95.0756 38.6073C95.1676 38.3904 95.3083 38.2173 95.4976 38.0881C95.6869 37.9588 95.9068 37.8801 96.1572 37.852ZM101.147 37.3057C101.254 37.2937 101.341 37.3169 101.407 37.3752C101.478 37.4283 101.518 37.5059 101.527 37.6081L101.797 40.4655C101.846 40.9858 101.744 41.394 101.491 41.6901C101.242 41.9856 100.849 42.1636 100.311 42.224C99.8101 42.2803 99.3837 42.2319 99.0318 42.0789C98.851 42.0006 98.7543 41.8941 98.7416 41.7594C98.7341 41.6804 98.7489 41.613 98.7858 41.5572C98.8273 41.5009 98.8806 41.4691 98.9455 41.4618C99.0058 41.455 99.1041 41.4792 99.2406 41.5343C99.415 41.5945 99.576 41.6375 99.7237 41.6632C99.8719 41.6935 100.046 41.6974 100.245 41.675C100.885 41.6032 101.175 41.2443 101.114 40.5985L101.063 40.0619C100.985 40.2773 100.852 40.4542 100.663 40.5928C100.474 40.7267 100.248 40.8085 99.9833 40.8382C99.6865 40.8715 99.4156 40.8315 99.1706 40.7181C98.9255 40.6048 98.7261 40.4276 98.5721 40.1867C98.4228 39.9452 98.3323 39.6572 98.3008 39.3227C98.2692 38.9882 98.3063 38.6859 98.412 38.4158C98.5178 38.1457 98.6777 37.9282 98.8918 37.7633C99.11 37.5932 99.3676 37.4915 99.6644 37.4582C99.9241 37.429 100.157 37.4592 100.362 37.5489C100.572 37.638 100.737 37.779 100.859 37.972L100.831 37.6793C100.821 37.5771 100.844 37.4924 100.899 37.4252C100.958 37.3575 101.041 37.3177 101.147 37.3057ZM100.098 40.2619C100.399 40.228 100.626 40.1016 100.779 39.8825C100.932 39.6635 100.991 39.3774 100.958 39.0243C100.925 38.6759 100.814 38.4114 100.623 38.2309C100.437 38.0452 100.191 37.9695 99.8846 38.0039C99.5785 38.0383 99.3468 38.1653 99.1894 38.3848C99.0367 38.6039 98.977 38.8899 99.0103 39.243C99.0436 39.5961 99.1578 39.8627 99.3529 40.0427C99.548 40.2227 99.7962 40.2957 100.098 40.2619ZM105.104 36.8615C105.21 36.8495 105.297 36.8703 105.363 36.9239C105.433 36.977 105.474 37.057 105.484 37.1639L105.751 40.0003C105.76 40.0978 105.735 40.1805 105.676 40.2482C105.617 40.3159 105.534 40.3557 105.427 40.3677C105.33 40.3786 105.249 40.3596 105.183 40.3106C105.117 40.257 105.079 40.1814 105.07 40.0838L105.045 39.819C104.957 40.0261 104.823 40.1914 104.642 40.315C104.466 40.438 104.262 40.5126 104.031 40.5386C103.205 40.6313 102.749 40.2224 102.663 39.3117L102.492 37.4998C102.482 37.3929 102.505 37.3059 102.559 37.2387C102.618 37.171 102.704 37.131 102.815 37.1185C102.922 37.1065 103.008 37.1273 103.074 37.1809C103.145 37.234 103.185 37.314 103.195 37.4209L103.365 39.2259C103.391 39.5 103.466 39.6958 103.59 39.8134C103.713 39.931 103.891 39.9768 104.123 39.9508C104.396 39.92 104.606 39.8073 104.752 39.6125C104.902 39.4172 104.963 39.1732 104.936 38.8805L104.781 37.2428C104.771 37.1406 104.796 37.0556 104.855 36.9879C104.914 36.9156 104.997 36.8734 105.104 36.8615ZM108.263 36.4926C109.074 36.4015 109.523 36.8135 109.61 37.7288L109.781 39.5408C109.791 39.6476 109.766 39.7349 109.707 39.8026C109.652 39.8651 109.569 39.9026 109.457 39.9151C109.351 39.9271 109.262 39.9065 109.192 39.8534C109.126 39.7998 109.088 39.7219 109.078 39.6197L108.91 37.8426C108.883 37.5545 108.805 37.3496 108.677 37.2279C108.553 37.1057 108.37 37.0581 108.129 37.0852C107.846 37.1169 107.627 37.2307 107.472 37.4265C107.317 37.6224 107.254 37.8689 107.282 38.1663L107.436 39.804C107.446 39.9062 107.421 39.9912 107.362 40.0589C107.307 40.126 107.227 40.1656 107.12 40.1776C107.013 40.1896 106.925 40.169 106.854 40.1159C106.784 40.0628 106.743 39.9851 106.734 39.8829L106.466 37.0465C106.457 36.9489 106.482 36.8663 106.541 36.7986C106.605 36.7258 106.687 36.6836 106.789 36.6722C106.891 36.6607 106.975 36.6818 107.041 36.7354C107.107 36.789 107.145 36.8646 107.154 36.9622L107.181 37.2479C107.273 37.031 107.414 36.8579 107.603 36.7287C107.792 36.5994 108.012 36.5207 108.263 36.4926ZM111.867 36.0878C112.317 36.0373 112.662 36.1137 112.901 36.3168C113.145 36.5195 113.289 36.8531 113.333 37.3177L113.503 39.1227C113.514 39.2296 113.491 39.3166 113.437 39.3837C113.382 39.4463 113.301 39.4835 113.194 39.4955C113.092 39.507 113.008 39.4859 112.942 39.4322C112.876 39.3786 112.838 39.3007 112.829 39.1985L112.804 38.9406C112.735 39.1457 112.617 39.3115 112.451 39.4381C112.289 39.5596 112.092 39.6334 111.86 39.6594C111.637 39.6844 111.429 39.6632 111.235 39.5957C111.041 39.5237 110.883 39.4123 110.761 39.2617C110.643 39.1105 110.575 38.935 110.556 38.7353C110.533 38.489 110.578 38.2892 110.69 38.1357C110.806 37.9771 111.007 37.8512 111.294 37.758C111.585 37.6643 111.988 37.5885 112.503 37.5307L112.663 37.5128L112.644 37.3107C112.619 37.0505 112.548 36.8683 112.43 36.7641C112.313 36.66 112.136 36.6211 111.899 36.6477C111.737 36.6659 111.586 36.704 111.446 36.762C111.306 36.8199 111.154 36.898 110.99 36.9963C110.871 37.08 110.786 37.1248 110.735 37.1305C110.666 37.1383 110.606 37.1193 110.554 37.0734C110.508 37.027 110.481 36.9643 110.473 36.8853C110.467 36.8156 110.48 36.7531 110.512 36.6978C110.548 36.6374 110.608 36.5767 110.692 36.5157C110.845 36.4092 111.029 36.3181 111.242 36.2426C111.455 36.1623 111.663 36.1108 111.867 36.0878ZM111.936 39.1227C112.191 39.094 112.391 38.9847 112.537 38.7945C112.683 38.5997 112.743 38.3653 112.717 38.0912L112.7 37.91L112.575 37.9241C112.213 37.9647 111.936 38.0122 111.745 38.0666C111.553 38.121 111.419 38.1923 111.343 38.2807C111.267 38.3644 111.235 38.4783 111.249 38.6223C111.265 38.7896 111.338 38.9198 111.468 39.0132C111.599 39.1065 111.755 39.143 111.936 39.1227ZM115.993 35.6245C116.805 35.5334 117.254 35.9454 117.34 36.8607L117.511 38.6726C117.521 38.7795 117.497 38.8668 117.438 38.9345C117.383 38.997 117.299 39.0345 117.188 39.047C117.081 39.059 116.993 39.0384 116.922 38.9853C116.856 38.9317 116.818 38.8538 116.809 38.7515L116.641 36.9744C116.614 36.6864 116.536 36.4815 116.407 36.3598C116.283 36.2375 116.101 36.19 115.86 36.217C115.577 36.2488 115.358 36.3626 115.203 36.5584C115.048 36.7542 114.984 37.0008 115.013 37.2982L115.167 38.9359C115.177 39.0381 115.152 39.1231 115.093 39.1907C115.038 39.2579 114.957 39.2975 114.851 39.3095C114.744 39.3214 114.656 39.3009 114.585 39.2478C114.514 39.1947 114.474 39.117 114.465 39.0148L114.197 36.1784C114.188 36.0808 114.213 35.9982 114.272 35.9305C114.335 35.8576 114.418 35.8155 114.52 35.804C114.622 35.7926 114.706 35.8137 114.772 35.8673C114.838 35.9209 114.876 35.9965 114.885 36.0941L114.912 36.3798C115.004 36.1629 115.145 35.9898 115.334 35.8606C115.523 35.7313 115.743 35.6526 115.993 35.6245Z" fill="black"/>
<g id="Group 20_2">
<g id="Group">
<g id="Group 21">
<path id="Vector_29" d="M112.352 73.1992L112.427 73.3531L112.612 73.3512L116.723 73.3088C119.821 73.2768 122.354 75.4871 122.384 78.2219L122.46 85.1918C122.49 87.9267 120.006 90.1888 116.908 90.2208L112.772 90.2634L112.586 90.2654L112.515 90.4218C109.46 97.1238 103.005 102.069 95.2725 103.784L95.0551 103.833L95.0574 104.036L95.0831 106.386C95.1131 109.121 92.6294 111.383 89.5315 111.415C86.4337 111.447 83.9009 109.237 83.8709 106.502C83.841 103.769 86.3401 101.505 89.4609 101.473C98.6785 101.378 106.879 96.0969 109.867 88.3228C109.867 88.3223 109.867 88.3218 109.867 88.3212L109.874 88.3038L109.875 88.3026C111.08 85.2573 111.382 81.9065 110.751 78.6122C110.559 77.5052 110.236 76.4306 109.78 75.3871L109.765 75.3523C109.765 75.3517 109.764 75.351 109.764 75.3504C106.941 68.5376 99.9562 63.597 91.961 62.7558C84.4059 61.955 77.043 64.5928 72.2587 69.8238C67.3882 75.1472 66.0652 82.0577 68.6245 88.7713L68.6245 88.7713L69.3644 90.7112L61.6964 90.7903C58.5985 90.8223 56.0658 88.612 56.0358 85.8771L55.9594 78.9072C55.9295 76.1723 58.4132 73.9102 61.5111 73.8782L65.5536 73.8366L65.7388 73.8346L65.8104 73.6789C66.7409 71.6546 68.0215 69.7315 69.6443 67.957C75.162 61.9243 83.6646 58.8663 92.3664 59.8054L92.3673 59.8055C101.142 60.7266 108.815 65.9459 112.352 73.1992Z" fill="#0AA8B0" stroke="white"/>
<path id="Ellipse 10" d="M89.5258 97.5032C99.7358 97.3979 107.934 90.1226 107.837 81.2534C107.739 72.3841 99.3839 65.2795 89.1738 65.3848C78.9638 65.4901 70.7657 72.7655 70.8629 81.6347C70.9601 90.504 79.3158 97.6085 89.5258 97.5032Z" fill="#0AA8B0"/>
<path id="SI Consult" d="M77.9218 83.0252C77.6178 83.0251 77.3278 82.9829 77.0518 82.8988C76.7797 82.8147 76.5617 82.6986 76.3976 82.5506C76.3216 82.4865 76.2835 82.4045 76.2835 82.3045C76.2835 82.2325 76.3034 82.1725 76.3434 82.1245C76.3834 82.0726 76.4314 82.0466 76.4874 82.0466C76.5434 82.0466 76.6114 82.0727 76.6914 82.1247C77.0475 82.3888 77.4536 82.521 77.9096 82.5212C78.2296 82.5213 78.4756 82.4614 78.6476 82.3415C78.8195 82.2216 78.9054 82.0496 78.9053 81.8256C78.9053 81.6496 78.8252 81.5176 78.6652 81.4295C78.5051 81.3415 78.2491 81.2574 77.897 81.1772C77.561 81.1051 77.285 81.023 77.0689 80.9309C76.8529 80.8388 76.6828 80.7147 76.5587 80.5587C76.4387 80.3986 76.3786 80.1966 76.3785 79.9526C76.3784 79.7086 76.4443 79.4926 76.5762 79.3047C76.7121 79.1128 76.9001 78.9648 77.14 78.8609C77.38 78.753 77.654 78.6992 77.962 78.6993C78.246 78.6994 78.508 78.7395 78.748 78.8196C78.9881 78.8997 79.1921 79.0178 79.3602 79.1739C79.4402 79.2419 79.4803 79.3239 79.4803 79.4199C79.4803 79.4879 79.4584 79.5479 79.4144 79.5999C79.3744 79.6519 79.3264 79.6779 79.2704 79.6778C79.2184 79.6778 79.1524 79.6518 79.0724 79.5997C78.8883 79.4597 78.7143 79.3596 78.5502 79.2995C78.3902 79.2355 78.1962 79.2034 77.9682 79.2033C77.6602 79.2032 77.4202 79.2671 77.2483 79.395C77.0763 79.5189 76.9904 79.6929 76.9905 79.9169C76.9906 80.1089 77.0666 80.2549 77.2187 80.3549C77.3707 80.451 77.6148 80.5391 77.9508 80.6193C78.3028 80.6994 78.5869 80.7835 78.8029 80.8716C79.023 80.9557 79.197 81.0738 79.3251 81.2258C79.4571 81.3739 79.5232 81.5659 79.5233 81.8019C79.5234 82.0419 79.4555 82.2559 79.3196 82.4438C79.1877 82.6277 78.9997 82.7717 78.7558 82.8756C78.5158 82.9754 78.2378 83.0253 77.9218 83.0252ZM80.5916 83.0083C80.4996 83.0083 80.4256 82.9803 80.3696 82.9242C80.3135 82.8682 80.2855 82.7922 80.2855 82.6962L80.2839 79.0303C80.2838 78.9383 80.3118 78.8643 80.3678 78.8083C80.4238 78.7483 80.4977 78.7184 80.5897 78.7184C80.6857 78.7184 80.7618 78.7465 80.8178 78.8025C80.8738 78.8585 80.9018 78.9345 80.9019 79.0305L80.9035 82.6965C80.9035 82.7925 80.8755 82.8685 80.8196 82.9244C80.7676 82.9804 80.6916 83.0084 80.5916 83.0083ZM85.3093 83.0283C84.9053 83.0282 84.5533 82.942 84.2532 82.7699C83.9531 82.5938 83.723 82.3437 83.5629 82.0196C83.4027 81.6915 83.3226 81.3055 83.3224 80.8615C83.3222 80.4215 83.402 80.0396 83.5619 79.7156C83.7217 79.3877 83.9516 79.1378 84.2516 78.966C84.5515 78.7901 84.9035 78.7022 85.3075 78.7024C85.5715 78.7025 85.8215 78.7446 86.0575 78.8287C86.2936 78.9088 86.4996 79.0269 86.6757 79.183C86.7517 79.243 86.7898 79.323 86.7898 79.423C86.7898 79.495 86.7699 79.557 86.7299 79.609C86.6899 79.657 86.6419 79.681 86.5859 79.6809C86.5179 79.6809 86.4519 79.6549 86.3879 79.6028C86.1958 79.4588 86.0198 79.3587 85.8597 79.3026C85.7037 79.2426 85.5257 79.2125 85.3257 79.2124C84.8857 79.2122 84.5477 79.3541 84.3119 79.638C84.076 79.9219 83.9581 80.3298 83.9584 80.8618C83.9586 81.3978 84.0768 81.8078 84.3129 82.0919C84.549 82.376 84.8871 82.5182 85.3271 82.5183C85.5191 82.5184 85.6931 82.4885 85.8491 82.4286C86.0091 82.3686 86.189 82.2687 86.389 82.1288C86.469 82.0768 86.5349 82.0509 86.5869 82.0509C86.6429 82.0509 86.691 82.0769 86.731 82.1289C86.771 82.177 86.791 82.237 86.7911 82.309C86.7911 82.409 86.7531 82.4889 86.6772 82.5489C86.5012 82.7048 86.2953 82.8247 86.0593 82.9086C85.8233 82.9885 85.5733 83.0284 85.3093 83.0283ZM88.6694 83.0238C88.3814 83.0236 88.1273 82.9615 87.9073 82.8374C87.6912 82.7133 87.5231 82.5373 87.403 82.3092C87.2869 82.0772 87.2288 81.8092 87.2287 81.5052C87.2285 81.1972 87.2864 80.9292 87.4023 80.7013C87.5222 80.4693 87.6902 80.2914 87.9061 80.1675C88.1261 80.0436 88.38 79.9817 88.668 79.9818C88.956 79.9819 89.2081 80.044 89.4241 80.1681C89.6442 80.2922 89.8123 80.4703 89.9284 80.7023C90.0485 80.9304 90.1086 81.1984 90.1087 81.5064C90.1089 81.8104 90.049 82.0784 89.9291 82.3103C89.8132 82.5382 89.6452 82.7142 89.4253 82.8381C89.2093 82.962 88.9574 83.0239 88.6694 83.0238ZM88.6691 82.5438C88.9372 82.5439 89.1411 82.456 89.281 82.28C89.425 82.1041 89.4969 81.8461 89.4967 81.5061C89.4966 81.1701 89.4245 80.9141 89.2804 80.7381C89.1363 80.558 88.9323 80.4679 88.6682 80.4678C88.4042 80.4677 88.2003 80.5576 88.0564 80.7375C87.9124 80.9135 87.8405 81.1694 87.8407 81.5054C87.8408 81.8454 87.9109 82.1034 88.051 82.2795C88.1951 82.4556 88.4011 82.5436 88.6691 82.5438ZM92.3608 79.9834C93.0608 79.9837 93.411 80.3778 93.4114 81.1658L93.412 82.7258C93.4121 82.8178 93.3841 82.8898 93.3281 82.9417C93.2761 82.9897 93.2022 83.0137 93.1062 83.0136C93.0142 83.0136 92.9401 82.9876 92.8841 82.9355C92.8321 82.8835 92.8061 82.8135 92.806 82.7255L92.8054 81.1955C92.8053 80.9475 92.7552 80.7655 92.6551 80.6495C92.5591 80.5334 92.407 80.4754 92.199 80.4753C91.955 80.4752 91.7591 80.5511 91.6111 80.703C91.4632 80.855 91.3893 81.0589 91.3894 81.3149L91.39 82.7249C91.39 82.8129 91.3621 82.8829 91.3061 82.9349C91.2541 82.9868 91.1821 83.0128 91.0901 83.0128C90.9981 83.0127 90.9241 82.9867 90.8681 82.9347C90.8121 82.8827 90.784 82.8127 90.784 82.7247L90.7829 80.2827C90.7829 80.1987 90.8109 80.1307 90.8668 80.0787C90.9268 80.0228 91.0008 79.9948 91.0888 79.9948C91.1768 79.9949 91.2468 80.0209 91.2988 80.0729C91.3509 80.1249 91.3769 80.193 91.3769 80.277L91.377 80.5229C91.473 80.347 91.6069 80.2131 91.7789 80.1211C91.9508 80.0292 92.1448 79.9833 92.3608 79.9834ZM95.2612 83.0265C94.8532 83.0264 94.5192 82.9422 94.2591 82.7741C94.1871 82.7301 94.1351 82.6841 94.103 82.6361C94.075 82.5881 94.061 82.534 94.061 82.474C94.0609 82.4101 94.0789 82.3561 94.1149 82.3121C94.1509 82.2681 94.1969 82.2461 94.2529 82.2461C94.3049 82.2462 94.3869 82.2782 94.4989 82.3422C94.619 82.4063 94.735 82.4583 94.847 82.4984C94.963 82.5384 95.107 82.5585 95.279 82.5586C95.471 82.5586 95.621 82.5247 95.729 82.4568C95.837 82.3888 95.8909 82.2928 95.8909 82.1688C95.8908 82.0888 95.8688 82.0248 95.8248 81.9768C95.7848 81.9288 95.7128 81.8868 95.6087 81.8507C95.5047 81.8107 95.3507 81.7686 95.1467 81.7245C94.7946 81.6484 94.5406 81.5463 94.3845 81.4182C94.2325 81.2861 94.1564 81.1081 94.1563 80.8841C94.1562 80.7121 94.2061 80.5581 94.3061 80.4222C94.406 80.2822 94.544 80.1743 94.72 80.0984C94.8959 80.0224 95.0959 79.9845 95.3199 79.9846C95.4799 79.9847 95.6359 80.0068 95.788 80.0508C95.94 80.0909 96.074 80.1509 96.19 80.231C96.3221 80.319 96.3881 80.4211 96.3882 80.5371C96.3882 80.6011 96.3682 80.6551 96.3282 80.699C96.2923 80.743 96.2483 80.765 96.1963 80.765C96.1603 80.765 96.1243 80.757 96.0883 80.7409C96.0523 80.7249 96.0042 80.6989 95.9442 80.6629C95.8362 80.5988 95.7342 80.5488 95.6382 80.5128C95.5461 80.4767 95.4301 80.4587 95.2901 80.4586C95.1221 80.4585 94.9861 80.4945 94.8822 80.5664C94.7822 80.6384 94.7322 80.7364 94.7323 80.8604C94.7323 80.9724 94.7784 81.0604 94.8704 81.1244C94.9664 81.1845 95.1445 81.2425 95.4045 81.2986C95.6725 81.3548 95.8826 81.4188 96.0346 81.4909C96.1866 81.563 96.2947 81.653 96.3587 81.761C96.4268 81.8651 96.4608 81.9991 96.4609 82.1631C96.461 82.4231 96.3511 82.633 96.1312 82.7929C95.9152 82.9488 95.6252 83.0267 95.2612 83.0265ZM99.4025 79.9984C99.4945 79.9984 99.5666 80.0244 99.6186 80.0765C99.6746 80.1285 99.7026 80.2005 99.7027 80.2925L99.7037 82.7344C99.7038 82.8184 99.6758 82.8864 99.6198 82.9384C99.5638 82.9904 99.4898 83.0163 99.3978 83.0163C99.3138 83.0163 99.2458 82.9922 99.1938 82.9442C99.1418 82.8922 99.1158 82.8242 99.1157 82.7402L99.1156 82.5122C99.0237 82.6802 98.8957 82.8081 98.7318 82.896C98.5718 82.984 98.3918 83.0279 98.1918 83.0278C97.4798 83.0275 97.1236 82.6353 97.1233 81.8514L97.1226 80.2914C97.1226 80.1994 97.1485 80.1274 97.2005 80.0754C97.2565 80.0234 97.3325 79.9975 97.4285 79.9975C97.5205 79.9976 97.5925 80.0236 97.6445 80.0756C97.7006 80.1276 97.7286 80.1996 97.7286 80.2916L97.7293 81.8456C97.7294 82.0816 97.7775 82.2556 97.8735 82.3677C97.9696 82.4797 98.1176 82.5358 98.3176 82.5359C98.5536 82.536 98.7416 82.46 98.8815 82.3081C99.0255 82.1562 99.0974 81.9542 99.0973 81.7022L99.0967 80.2922C99.0966 80.2042 99.1246 80.1342 99.1806 80.0823C99.2365 80.0263 99.3105 79.9983 99.4025 79.9984ZM100.858 83.0169C100.77 83.0169 100.696 82.9929 100.636 82.9448C100.58 82.8968 100.552 82.8248 100.552 82.7288L100.55 79.0209C100.55 78.9249 100.578 78.8529 100.634 78.8049C100.694 78.7529 100.768 78.727 100.856 78.727C100.944 78.727 101.016 78.7531 101.072 78.8051C101.128 78.8531 101.156 78.9251 101.156 79.0211L101.158 82.7291C101.158 82.8251 101.13 82.897 101.074 82.945C101.018 82.993 100.946 83.017 100.858 83.0169ZM103.439 82.556C103.527 82.5641 103.589 82.5881 103.625 82.6281C103.665 82.6641 103.685 82.7161 103.685 82.7841C103.685 82.8641 103.653 82.9261 103.589 82.9701C103.529 83.0101 103.439 83.026 103.319 83.018L103.157 83.0059C102.833 82.9818 102.591 82.8837 102.431 82.7116C102.271 82.5355 102.191 82.2775 102.191 81.9375L102.19 80.5275L101.83 80.5274C101.654 80.5273 101.566 80.4493 101.566 80.2933C101.566 80.2213 101.588 80.1653 101.632 80.1253C101.68 80.0813 101.746 80.0594 101.83 80.0594L102.19 80.0595L102.189 79.4416C102.189 79.3496 102.215 79.2776 102.267 79.2256C102.323 79.1736 102.397 79.1476 102.489 79.1477C102.581 79.1477 102.655 79.1738 102.711 79.2258C102.767 79.2778 102.795 79.3498 102.796 79.4418L102.796 80.0598L103.39 80.0601C103.474 80.0601 103.538 80.0821 103.582 80.1261C103.63 80.1662 103.654 80.2222 103.654 80.2942C103.654 80.3702 103.63 80.4281 103.582 80.4681C103.538 80.5081 103.474 80.5281 103.39 80.528L102.796 80.5278L102.797 81.9798C102.797 82.1678 102.835 82.3058 102.911 82.3938C102.991 82.4818 103.111 82.5319 103.271 82.544L103.439 82.556Z" fill="black"/>
</g>
</g>
</g>
</g>
</g>
</g>
</g>
<defs>
<filter id="filter0_d" x="13.0909" y="17.8966" width="159.175" height="132.202" filterUnits="userSpaceOnUse" color-interpolation-filters="sRGB">
<feFlood flood-opacity="0" result="BackgroundImageFix"/>
<feColorMatrix in="SourceAlpha" type="matrix" values="0 0 0 0 0 0 0 0 0 0 0 0 0 0 0 0 0 0 127 0"/>
<feOffset dy="4"/>
<feGaussianBlur stdDeviation="2"/>
<feColorMatrix type="matrix" values="0 0 0 0 0 0 0 0 0 0 0 0 0 0 0 0 0 0 0.25 0"/>
<feBlend mode="normal" in2="BackgroundImageFix" result="effect1_dropShadow"/>
<feBlend mode="normal" in="SourceGraphic" in2="effect1_dropShadow" result="shape"/>
</filter>
</defs>
</svg>
