<svg width="119" height="102" viewBox="0 0 119 102" fill="none" xmlns="http://www.w3.org/2000/svg">
<g id="Group 20">
<g id="Group">
<g id="Group 21">
<path id="Vector" d="M100.779 27.4182L100.909 27.7199H101.238H108.541C114.044 27.7199 118.5 32.082 118.5 37.4169V51.0133C118.5 56.3483 114.044 60.7106 108.541 60.7106H101.193H100.862L100.733 61.0143C95.1765 74.0252 83.6148 83.5406 69.8461 86.7314L69.459 86.8211V87.2185V91.8027C69.459 97.1377 65.0032 101.5 59.5 101.5C53.9968 101.5 49.541 97.1377 49.541 91.8027C49.541 86.4707 54.0242 82.1054 59.5681 82.1054C75.9429 82.1054 90.6124 71.9702 96.07 56.867C96.0704 56.8659 96.0708 56.8649 96.0712 56.8638L96.084 56.8301L96.0849 56.8276C98.2846 50.912 98.8874 44.3824 97.8295 37.9442C97.5109 35.781 96.9568 33.6785 96.1678 31.6339L96.1416 31.5658C96.1412 31.5646 96.1407 31.5633 96.1403 31.5621C91.2589 18.2169 78.9477 8.43972 64.7625 6.63798C51.3583 4.92409 38.2285 9.92112 29.6286 20.0278C20.8736 30.3133 18.3891 43.7657 22.8045 56.912L22.8045 56.9121L24.0809 60.7108H10.459C4.95579 60.7108 0.5 56.3486 0.5 51.0136V37.4172C0.5 32.0822 4.95579 27.7199 10.459 27.7199H17.6404H17.9694L18.0996 27.4176C19.7919 23.4878 22.104 19.7626 25.021 16.3341C34.9393 4.6782 50.1017 -1.11528 65.5401 0.891402L65.5417 0.891602C81.1096 2.86483 94.6371 13.1995 100.779 27.4182Z" fill="#0AA8B0" stroke="white"/>
<ellipse id="Ellipse 10" cx="59.4999" cy="42.3977" rx="34.51" ry="32.5663" fill="#0AA8B0"/>
<path id="STMIK Insan Pembangunan" d="M51.9163 37.779C51.5616 37.779 51.2233 37.73 50.9013 37.632C50.5839 37.534 50.3296 37.3986 50.1383 37.226C50.0496 37.1513 50.0053 37.0556 50.0053 36.939C50.0053 36.855 50.0286 36.785 50.0753 36.729C50.1219 36.6683 50.1779 36.638 50.2433 36.638C50.3086 36.638 50.3879 36.6683 50.4813 36.729C50.8966 37.037 51.3703 37.191 51.9023 37.191C52.2756 37.191 52.5626 37.121 52.7633 36.981C52.9639 36.841 53.0643 36.6403 53.0643 36.379C53.0643 36.1736 52.9709 36.0196 52.7843 35.917C52.5976 35.8143 52.2989 35.7163 51.8883 35.623C51.4963 35.539 51.1743 35.4433 50.9223 35.336C50.6703 35.2286 50.4719 35.084 50.3273 34.902C50.1873 34.7153 50.1173 34.4796 50.1173 34.195C50.1173 33.9103 50.1943 33.6583 50.3483 33.439C50.5069 33.215 50.7263 33.0423 51.0063 32.921C51.2863 32.795 51.6059 32.732 51.9653 32.732C52.2966 32.732 52.6023 32.7786 52.8823 32.872C53.1623 32.9653 53.4003 33.103 53.5963 33.285C53.6896 33.3643 53.7363 33.46 53.7363 33.572C53.7363 33.6513 53.7106 33.7213 53.6593 33.782C53.6126 33.8426 53.5566 33.873 53.4913 33.873C53.4306 33.873 53.3536 33.8426 53.2603 33.782C53.0456 33.6186 52.8426 33.502 52.6513 33.432C52.4646 33.3573 52.2383 33.32 51.9723 33.32C51.6129 33.32 51.3329 33.3946 51.1323 33.544C50.9316 33.6886 50.8313 33.8916 50.8313 34.153C50.8313 34.377 50.9199 34.5473 51.0973 34.664C51.2746 34.776 51.5593 34.8786 51.9513 34.972C52.3619 35.0653 52.6933 35.1633 52.9453 35.266C53.2019 35.364 53.4049 35.5016 53.5543 35.679C53.7083 35.8516 53.7853 36.0756 53.7853 36.351C53.7853 36.631 53.7059 36.8806 53.5473 37.1C53.3933 37.3146 53.1739 37.4826 52.8893 37.604C52.6093 37.7206 52.2849 37.779 51.9163 37.779ZM56.1114 37.758C56.004 37.758 55.9154 37.7253 55.8454 37.66C55.78 37.59 55.7474 37.5013 55.7474 37.394V33.39H54.3474C54.1234 33.39 54.0114 33.2896 54.0114 33.089C54.0114 32.991 54.0394 32.9163 54.0954 32.865C54.156 32.8136 54.24 32.788 54.3474 32.788H57.8754C57.9827 32.788 58.0644 32.8136 58.1204 32.865C58.1811 32.9163 58.2114 32.991 58.2114 33.089C58.2114 33.2896 58.0994 33.39 57.8754 33.39H56.4754V37.394C56.4754 37.5013 56.4427 37.59 56.3774 37.66C56.312 37.7253 56.2234 37.758 56.1114 37.758ZM63.1917 32.753C63.2943 32.753 63.3783 32.788 63.4437 32.858C63.509 32.9233 63.5417 33.0096 63.5417 33.117V37.415C63.5417 37.5223 63.5113 37.6063 63.4507 37.667C63.3947 37.7276 63.3153 37.758 63.2127 37.758C63.1147 37.758 63.0377 37.7276 62.9817 37.667C62.9257 37.6063 62.8977 37.5223 62.8977 37.415V34.16L61.5257 36.771C61.437 36.9343 61.3227 37.016 61.1827 37.016C61.0427 37.016 60.9283 36.9343 60.8397 36.771L59.4607 34.188V37.415C59.4607 37.5223 59.4327 37.6063 59.3767 37.667C59.3207 37.7276 59.2413 37.758 59.1387 37.758C59.0407 37.758 58.9613 37.7276 58.9007 37.667C58.8447 37.6016 58.8167 37.5176 58.8167 37.415V33.117C58.8167 33.0096 58.8493 32.9233 58.9147 32.858C58.98 32.788 59.064 32.753 59.1667 32.753C59.3113 32.753 59.428 32.837 59.5167 33.005L61.1897 36.204L62.8487 33.005C62.9373 32.837 63.0517 32.753 63.1917 32.753ZM65.0524 37.758C64.9451 37.758 64.8587 37.7253 64.7934 37.66C64.7281 37.5946 64.6954 37.506 64.6954 37.394V33.117C64.6954 33.0096 64.7281 32.9233 64.7934 32.858C64.8587 32.788 64.9451 32.753 65.0524 32.753C65.1644 32.753 65.2531 32.7856 65.3184 32.851C65.3837 32.9163 65.4164 33.005 65.4164 33.117V37.394C65.4164 37.506 65.3837 37.5946 65.3184 37.66C65.2577 37.7253 65.1691 37.758 65.0524 37.758ZM70.2366 37.177C70.316 37.2516 70.3556 37.3333 70.3556 37.422C70.3556 37.5106 70.3206 37.5876 70.2506 37.653C70.1853 37.7183 70.1083 37.751 70.0196 37.751C69.931 37.751 69.8493 37.7136 69.7746 37.639L67.2826 35.392V37.394C67.2826 37.506 67.25 37.5946 67.1846 37.66C67.124 37.7253 67.0353 37.758 66.9186 37.758C66.8113 37.758 66.725 37.7253 66.6596 37.66C66.5943 37.5946 66.5616 37.506 66.5616 37.394V33.117C66.5616 33.0096 66.5943 32.9233 66.6596 32.858C66.725 32.788 66.8113 32.753 66.9186 32.753C67.0306 32.753 67.1193 32.7856 67.1846 32.851C67.25 32.9163 67.2826 33.005 67.2826 33.117V35.035L69.6696 32.858C69.735 32.7926 69.812 32.76 69.9006 32.76C69.9893 32.76 70.0663 32.7926 70.1316 32.858C70.197 32.9233 70.2296 32.998 70.2296 33.082C70.2296 33.1706 70.19 33.2523 70.1106 33.327L68.0246 35.189L70.2366 37.177ZM28.5417 47.758C28.4343 47.758 28.348 47.7253 28.2827 47.66C28.2173 47.5946 28.1847 47.506 28.1847 47.394V43.117C28.1847 43.0096 28.2173 42.9233 28.2827 42.858C28.348 42.788 28.4343 42.753 28.5417 42.753C28.6537 42.753 28.7423 42.7856 28.8077 42.851C28.873 42.9163 28.9057 43.005 28.9057 43.117V47.394C28.9057 47.506 28.873 47.5946 28.8077 47.66C28.747 47.7253 28.6583 47.758 28.5417 47.758ZM31.8079 44.223C32.6245 44.223 33.0329 44.6826 33.0329 45.602V47.422C33.0329 47.5293 33.0002 47.6133 32.9349 47.674C32.8742 47.73 32.7879 47.758 32.6759 47.758C32.5685 47.758 32.4822 47.7276 32.4169 47.667C32.3562 47.6063 32.3259 47.5246 32.3259 47.422V45.637C32.3259 45.3476 32.2675 45.1353 32.1509 45C32.0389 44.8646 31.8615 44.797 31.6189 44.797C31.3342 44.797 31.1055 44.8856 30.9329 45.063C30.7602 45.2403 30.6739 45.4783 30.6739 45.777V47.422C30.6739 47.5246 30.6412 47.6063 30.5759 47.667C30.5152 47.7276 30.4312 47.758 30.3239 47.758C30.2165 47.758 30.1302 47.7276 30.0649 47.667C29.9995 47.6063 29.9669 47.5246 29.9669 47.422V44.573C29.9669 44.475 29.9995 44.3956 30.0649 44.335C30.1349 44.2696 30.2212 44.237 30.3239 44.237C30.4265 44.237 30.5082 44.2673 30.5689 44.328C30.6295 44.3886 30.6599 44.468 30.6599 44.566V44.853C30.7719 44.6476 30.9282 44.4913 31.1289 44.384C31.3295 44.2766 31.5559 44.223 31.8079 44.223ZM35.1901 47.772C34.7141 47.772 34.3244 47.674 34.0211 47.478C33.9371 47.4266 33.8764 47.373 33.8391 47.317C33.8064 47.261 33.7901 47.198 33.7901 47.128C33.7901 47.0533 33.8111 46.9903 33.8531 46.939C33.8951 46.8876 33.9487 46.862 34.0141 46.862C34.0747 46.862 34.1704 46.8993 34.3011 46.974C34.4411 47.0486 34.5764 47.1093 34.7071 47.156C34.8424 47.2026 35.0104 47.226 35.2111 47.226C35.4351 47.226 35.6101 47.1863 35.7361 47.107C35.8621 47.0276 35.9251 46.9156 35.9251 46.771C35.9251 46.6776 35.8994 46.603 35.8481 46.547C35.8014 46.491 35.7174 46.442 35.5961 46.4C35.4747 46.3533 35.2951 46.3043 35.0571 46.253C34.6464 46.1643 34.3501 46.0453 34.1681 45.896C33.9907 45.742 33.9021 45.5343 33.9021 45.273C33.9021 45.0723 33.9604 44.8926 34.0771 44.734C34.1937 44.5706 34.3547 44.4446 34.5601 44.356C34.7654 44.2673 34.9987 44.223 35.2601 44.223C35.4467 44.223 35.6287 44.2486 35.8061 44.3C35.9834 44.3466 36.1397 44.4166 36.2751 44.51C36.4291 44.6126 36.5061 44.7316 36.5061 44.867C36.5061 44.9416 36.4827 45.0046 36.4361 45.056C36.3941 45.1073 36.3427 45.133 36.2821 45.133C36.2401 45.133 36.1981 45.1236 36.1561 45.105C36.1141 45.0863 36.0581 45.056 35.9881 45.014C35.8621 44.9393 35.7431 44.881 35.6311 44.839C35.5237 44.797 35.3884 44.776 35.2251 44.776C35.0291 44.776 34.8704 44.818 34.7491 44.902C34.6324 44.986 34.5741 45.1003 34.5741 45.245C34.5741 45.3756 34.6277 45.4783 34.7351 45.553C34.8471 45.623 35.0547 45.6906 35.3581 45.756C35.6707 45.8213 35.9157 45.896 36.0931 45.98C36.2704 46.064 36.3964 46.169 36.4711 46.295C36.5504 46.4163 36.5901 46.5726 36.5901 46.764C36.5901 47.0673 36.4617 47.3123 36.2051 47.499C35.9531 47.681 35.6147 47.772 35.1901 47.772ZM38.812 44.223C39.2647 44.223 39.6007 44.3373 39.82 44.566C40.044 44.7946 40.156 45.1423 40.156 45.609V47.422C40.156 47.5293 40.1257 47.6133 40.065 47.674C40.0044 47.73 39.9204 47.758 39.813 47.758C39.7104 47.758 39.6287 47.7276 39.568 47.667C39.5074 47.6063 39.477 47.5246 39.477 47.422V47.163C39.3884 47.359 39.2554 47.5106 39.078 47.618C38.9054 47.7206 38.7024 47.772 38.469 47.772C38.245 47.772 38.0397 47.7276 37.853 47.639C37.6664 47.5456 37.5194 47.4173 37.412 47.254C37.3094 47.0906 37.258 46.9086 37.258 46.708C37.258 46.4606 37.321 46.267 37.447 46.127C37.5777 45.9823 37.79 45.8796 38.084 45.819C38.3827 45.7583 38.791 45.728 39.309 45.728H39.47V45.525C39.47 45.2636 39.4164 45.0746 39.309 44.958C39.2017 44.8413 39.029 44.783 38.791 44.783C38.6277 44.783 38.4737 44.804 38.329 44.846C38.1844 44.888 38.0257 44.9486 37.853 45.028C37.727 45.098 37.6384 45.133 37.587 45.133C37.517 45.133 37.4587 45.1073 37.412 45.056C37.37 45.0046 37.349 44.9393 37.349 44.86C37.349 44.79 37.3677 44.7293 37.405 44.678C37.447 44.622 37.5124 44.5683 37.601 44.517C37.7644 44.4283 37.9557 44.3583 38.175 44.307C38.3944 44.251 38.6067 44.223 38.812 44.223ZM38.595 47.247C38.8517 47.247 39.0617 47.1606 39.225 46.988C39.3884 46.8106 39.47 46.5843 39.47 46.309V46.127H39.344C38.98 46.127 38.7 46.1433 38.504 46.176C38.308 46.2086 38.168 46.2646 38.084 46.344C38 46.4186 37.958 46.5283 37.958 46.673C37.958 46.841 38.0187 46.9786 38.14 47.086C38.2614 47.1933 38.413 47.247 38.595 47.247ZM42.9641 44.223C43.7808 44.223 44.1891 44.6826 44.1891 45.602V47.422C44.1891 47.5293 44.1565 47.6133 44.0911 47.674C44.0305 47.73 43.9441 47.758 43.8321 47.758C43.7248 47.758 43.6385 47.7276 43.5731 47.667C43.5125 47.6063 43.4821 47.5246 43.4821 47.422V45.637C43.4821 45.3476 43.4238 45.1353 43.3071 45C43.1951 44.8646 43.0178 44.797 42.7751 44.797C42.4905 44.797 42.2618 44.8856 42.0891 45.063C41.9165 45.2403 41.8301 45.4783 41.8301 45.777V47.422C41.8301 47.5246 41.7975 47.6063 41.7321 47.667C41.6715 47.7276 41.5875 47.758 41.4801 47.758C41.3728 47.758 41.2865 47.7276 41.2211 47.667C41.1558 47.6063 41.1231 47.5246 41.1231 47.422V44.573C41.1231 44.475 41.1558 44.3956 41.2211 44.335C41.2911 44.2696 41.3775 44.237 41.4801 44.237C41.5828 44.237 41.6645 44.2673 41.7251 44.328C41.7858 44.3886 41.8161 44.468 41.8161 44.566V44.853C41.9281 44.6476 42.0845 44.4913 42.2851 44.384C42.4858 44.2766 42.7121 44.223 42.9641 44.223ZM47.443 47.758C47.3357 47.758 47.2494 47.7253 47.184 47.66C47.1187 47.5946 47.086 47.506 47.086 47.394V43.138C47.086 43.0306 47.1164 42.9466 47.177 42.886C47.2424 42.8206 47.331 42.788 47.443 42.788H49.13C49.6527 42.788 50.0587 42.9163 50.348 43.173C50.6374 43.4296 50.782 43.7936 50.782 44.265C50.782 44.7316 50.6374 45.0956 50.348 45.357C50.0587 45.6183 49.6527 45.749 49.13 45.749H47.807V47.394C47.807 47.506 47.7744 47.5946 47.709 47.66C47.6484 47.7253 47.5597 47.758 47.443 47.758ZM49.053 45.168C49.7437 45.168 50.089 44.867 50.089 44.265C50.089 43.6676 49.7437 43.369 49.053 43.369H47.807V45.168H49.053ZM54.1262 46.862C54.1916 46.862 54.2452 46.8876 54.2872 46.939C54.3292 46.9903 54.3502 47.0556 54.3502 47.135C54.3502 47.2703 54.2662 47.3846 54.0982 47.478C53.9349 47.5713 53.7552 47.6436 53.5592 47.695C53.3679 47.7463 53.1836 47.772 53.0062 47.772C52.4649 47.772 52.0379 47.6156 51.7252 47.303C51.4126 46.9856 51.2562 46.554 51.2562 46.008C51.2562 45.658 51.3239 45.3476 51.4592 45.077C51.5992 44.8063 51.7929 44.5963 52.0402 44.447C52.2922 44.2976 52.5769 44.223 52.8942 44.223C53.3516 44.223 53.7132 44.37 53.9792 44.664C54.2452 44.958 54.3782 45.3546 54.3782 45.854C54.3782 46.0406 54.2942 46.134 54.1262 46.134H51.9632C52.0099 46.8573 52.3576 47.219 53.0062 47.219C53.1789 47.219 53.3282 47.1956 53.4542 47.149C53.5802 47.1023 53.7132 47.0416 53.8532 46.967C53.8672 46.9576 53.9046 46.939 53.9652 46.911C54.0306 46.8783 54.0842 46.862 54.1262 46.862ZM52.9082 44.741C52.6376 44.741 52.4206 44.8273 52.2572 45C52.0939 45.1726 51.9959 45.4153 51.9632 45.728H53.7692C53.7552 45.4106 53.6736 45.168 53.5242 45C53.3796 44.8273 53.1742 44.741 52.9082 44.741ZM59.0773 44.223C59.8426 44.223 60.2253 44.6826 60.2253 45.602V47.422C60.2253 47.5293 60.1926 47.6133 60.1273 47.674C60.062 47.73 59.9756 47.758 59.8683 47.758C59.7656 47.758 59.6816 47.73 59.6163 47.674C59.551 47.6133 59.5183 47.5293 59.5183 47.422V45.609C59.5183 45.3243 59.467 45.119 59.3643 44.993C59.2616 44.8623 59.1006 44.797 58.8813 44.797C58.6246 44.797 58.4216 44.8856 58.2723 45.063C58.123 45.2356 58.0483 45.4736 58.0483 45.777V47.422C58.0483 47.5293 58.0156 47.6133 57.9503 47.674C57.885 47.73 57.7986 47.758 57.6913 47.758C57.5886 47.758 57.5046 47.73 57.4393 47.674C57.374 47.6133 57.3413 47.5293 57.3413 47.422V45.609C57.3413 45.3243 57.29 45.119 57.1873 44.993C57.0846 44.8623 56.9236 44.797 56.7043 44.797C56.4476 44.797 56.2423 44.8856 56.0883 45.063C55.939 45.2356 55.8643 45.4736 55.8643 45.777V47.422C55.8643 47.5293 55.8316 47.6133 55.7663 47.674C55.701 47.73 55.617 47.758 55.5143 47.758C55.4116 47.758 55.3253 47.73 55.2553 47.674C55.19 47.6133 55.1573 47.5293 55.1573 47.422V44.573C55.1573 44.4703 55.1923 44.3886 55.2623 44.328C55.3323 44.2673 55.4163 44.237 55.5143 44.237C55.6123 44.237 55.6916 44.2673 55.7523 44.328C55.8176 44.384 55.8503 44.4633 55.8503 44.566V44.825C55.953 44.629 56.0953 44.4796 56.2773 44.377C56.4593 44.2743 56.6693 44.223 56.9073 44.223C57.1686 44.223 57.3833 44.2766 57.5513 44.384C57.724 44.4913 57.8523 44.657 57.9363 44.881C58.039 44.6803 58.1906 44.5216 58.3913 44.405C58.592 44.2836 58.8206 44.223 59.0773 44.223ZM63.0274 44.223C63.3261 44.223 63.5898 44.2953 63.8184 44.44C64.0471 44.5846 64.2244 44.79 64.3504 45.056C64.4811 45.322 64.5464 45.6323 64.5464 45.987C64.5464 46.337 64.4811 46.6473 64.3504 46.918C64.2244 47.1886 64.0448 47.3986 63.8114 47.548C63.5828 47.6973 63.3214 47.772 63.0274 47.772C62.7708 47.772 62.5444 47.7183 62.3484 47.611C62.1524 47.499 62.0031 47.3403 61.9004 47.135V47.415C61.9004 47.5176 61.8678 47.6016 61.8024 47.667C61.7418 47.7276 61.6578 47.758 61.5504 47.758C61.4431 47.758 61.3568 47.7276 61.2914 47.667C61.2261 47.6016 61.1934 47.5176 61.1934 47.415V43.089C61.1934 42.9863 61.2261 42.9046 61.2914 42.844C61.3614 42.7833 61.4501 42.753 61.5574 42.753C61.6601 42.753 61.7418 42.7833 61.8024 42.844C61.8678 42.9 61.9004 42.977 61.9004 43.075V44.867C62.0031 44.6616 62.1524 44.503 62.3484 44.391C62.5444 44.279 62.7708 44.223 63.0274 44.223ZM62.8594 47.212C63.1628 47.212 63.3984 47.1046 63.5664 46.89C63.7391 46.6753 63.8254 46.3743 63.8254 45.987C63.8254 45.6043 63.7414 45.3103 63.5734 45.105C63.4054 44.895 63.1674 44.79 62.8594 44.79C62.5514 44.79 62.3134 44.895 62.1454 45.105C61.9821 45.315 61.9004 45.6136 61.9004 46.001C61.9004 46.3883 61.9821 46.687 62.1454 46.897C62.3134 47.107 62.5514 47.212 62.8594 47.212ZM66.7642 44.223C67.2168 44.223 67.5528 44.3373 67.7722 44.566C67.9962 44.7946 68.1082 45.1423 68.1082 45.609V47.422C68.1082 47.5293 68.0778 47.6133 68.0172 47.674C67.9565 47.73 67.8725 47.758 67.7652 47.758C67.6625 47.758 67.5808 47.7276 67.5202 47.667C67.4595 47.6063 67.4292 47.5246 67.4292 47.422V47.163C67.3405 47.359 67.2075 47.5106 67.0302 47.618C66.8575 47.7206 66.6545 47.772 66.4212 47.772C66.1972 47.772 65.9918 47.7276 65.8052 47.639C65.6185 47.5456 65.4715 47.4173 65.3642 47.254C65.2615 47.0906 65.2102 46.9086 65.2102 46.708C65.2102 46.4606 65.2732 46.267 65.3992 46.127C65.5298 45.9823 65.7422 45.8796 66.0362 45.819C66.3348 45.7583 66.7432 45.728 67.2612 45.728H67.4222V45.525C67.4222 45.2636 67.3685 45.0746 67.2612 44.958C67.1538 44.8413 66.9812 44.783 66.7432 44.783C66.5798 44.783 66.4258 44.804 66.2812 44.846C66.1365 44.888 65.9778 44.9486 65.8052 45.028C65.6792 45.098 65.5905 45.133 65.5392 45.133C65.4692 45.133 65.4108 45.1073 65.3642 45.056C65.3222 45.0046 65.3012 44.9393 65.3012 44.86C65.3012 44.79 65.3198 44.7293 65.3572 44.678C65.3992 44.622 65.4645 44.5683 65.5532 44.517C65.7165 44.4283 65.9078 44.3583 66.1272 44.307C66.3465 44.251 66.5588 44.223 66.7642 44.223ZM66.5472 47.247C66.8038 47.247 67.0138 47.1606 67.1772 46.988C67.3405 46.8106 67.4222 46.5843 67.4222 46.309V46.127H67.2962C66.9322 46.127 66.6522 46.1433 66.4562 46.176C66.2602 46.2086 66.1202 46.2646 66.0362 46.344C65.9522 46.4186 65.9102 46.5283 65.9102 46.673C65.9102 46.841 65.9708 46.9786 66.0922 47.086C66.2135 47.1933 66.3652 47.247 66.5472 47.247ZM70.9163 44.223C71.7329 44.223 72.1413 44.6826 72.1413 45.602V47.422C72.1413 47.5293 72.1086 47.6133 72.0433 47.674C71.9826 47.73 71.8963 47.758 71.7843 47.758C71.6769 47.758 71.5906 47.7276 71.5253 47.667C71.4646 47.6063 71.4343 47.5246 71.4343 47.422V45.637C71.4343 45.3476 71.3759 45.1353 71.2593 45C71.1473 44.8646 70.9699 44.797 70.7273 44.797C70.4426 44.797 70.2139 44.8856 70.0413 45.063C69.8686 45.2403 69.7823 45.4783 69.7823 45.777V47.422C69.7823 47.5246 69.7496 47.6063 69.6843 47.667C69.6236 47.7276 69.5396 47.758 69.4323 47.758C69.3249 47.758 69.2386 47.7276 69.1733 47.667C69.1079 47.6063 69.0753 47.5246 69.0753 47.422V44.573C69.0753 44.475 69.1079 44.3956 69.1733 44.335C69.2433 44.2696 69.3296 44.237 69.4323 44.237C69.5349 44.237 69.6166 44.2673 69.6773 44.328C69.7379 44.3886 69.7683 44.468 69.7683 44.566V44.853C69.8803 44.6476 70.0366 44.4913 70.2373 44.384C70.4379 44.2766 70.6643 44.223 70.9163 44.223ZM75.9365 44.237C76.0438 44.237 76.1278 44.2696 76.1885 44.335C76.2538 44.3956 76.2865 44.4773 76.2865 44.58V47.45C76.2865 47.9726 76.1465 48.367 75.8665 48.633C75.5911 48.899 75.1828 49.032 74.6415 49.032C74.1375 49.032 73.7175 48.9363 73.3815 48.745C73.2088 48.647 73.1225 48.5303 73.1225 48.395C73.1225 48.3156 73.1435 48.2503 73.1855 48.199C73.2321 48.1476 73.2881 48.122 73.3535 48.122C73.4141 48.122 73.5098 48.157 73.6405 48.227C73.8085 48.3063 73.9648 48.367 74.1095 48.409C74.2541 48.4556 74.4268 48.479 74.6275 48.479C75.2715 48.479 75.5935 48.1546 75.5935 47.506V46.967C75.4955 47.1723 75.3461 47.3333 75.1455 47.45C74.9448 47.562 74.7115 47.618 74.4455 47.618C74.1468 47.618 73.8808 47.548 73.6475 47.408C73.4141 47.268 73.2321 47.0696 73.1015 46.813C72.9755 46.5563 72.9125 46.26 72.9125 45.924C72.9125 45.588 72.9778 45.2916 73.1085 45.035C73.2391 44.7783 73.4188 44.58 73.6475 44.44C73.8808 44.2953 74.1468 44.223 74.4455 44.223C74.7068 44.223 74.9355 44.279 75.1315 44.391C75.3321 44.503 75.4838 44.6616 75.5865 44.867V44.573C75.5865 44.4703 75.6168 44.3886 75.6775 44.328C75.7428 44.2673 75.8291 44.237 75.9365 44.237ZM74.6135 47.058C74.9168 47.058 75.1548 46.9576 75.3275 46.757C75.5001 46.5563 75.5865 46.2786 75.5865 45.924C75.5865 45.574 75.5001 45.2986 75.3275 45.098C75.1595 44.8926 74.9215 44.79 74.6135 44.79C74.3055 44.79 74.0628 44.8903 73.8855 45.091C73.7128 45.2916 73.6265 45.5693 73.6265 45.924C73.6265 46.2786 73.7151 46.5563 73.8925 46.757C74.0698 46.9576 74.3101 47.058 74.6135 47.058ZM79.9176 44.237C80.0249 44.237 80.1089 44.2673 80.1696 44.328C80.2349 44.3886 80.2676 44.4726 80.2676 44.58V47.429C80.2676 47.527 80.2349 47.6063 80.1696 47.667C80.1042 47.7276 80.0179 47.758 79.9106 47.758C79.8126 47.758 79.7332 47.73 79.6726 47.674C79.6119 47.6133 79.5816 47.534 79.5816 47.436V47.17C79.4742 47.366 79.3249 47.5153 79.1336 47.618C78.9469 47.7206 78.7369 47.772 78.5036 47.772C77.6729 47.772 77.2576 47.3146 77.2576 46.4V44.58C77.2576 44.4726 77.2879 44.3886 77.3486 44.328C77.4139 44.2673 77.5026 44.237 77.6146 44.237C77.7219 44.237 77.8059 44.2673 77.8666 44.328C77.9319 44.3886 77.9646 44.4726 77.9646 44.58V46.393C77.9646 46.6683 78.0206 46.8713 78.1326 47.002C78.2446 47.1326 78.4172 47.198 78.6506 47.198C78.9259 47.198 79.1452 47.1093 79.3086 46.932C79.4766 46.7546 79.5606 46.519 79.5606 46.225V44.58C79.5606 44.4773 79.5932 44.3956 79.6586 44.335C79.7239 44.2696 79.8102 44.237 79.9176 44.237ZM83.0979 44.223C83.9146 44.223 84.3229 44.6826 84.3229 45.602V47.422C84.3229 47.5293 84.2902 47.6133 84.2249 47.674C84.1642 47.73 84.0779 47.758 83.9659 47.758C83.8586 47.758 83.7722 47.7276 83.7069 47.667C83.6462 47.6063 83.6159 47.5246 83.6159 47.422V45.637C83.6159 45.3476 83.5576 45.1353 83.4409 45C83.3289 44.8646 83.1516 44.797 82.9089 44.797C82.6242 44.797 82.3956 44.8856 82.2229 45.063C82.0502 45.2403 81.9639 45.4783 81.9639 45.777V47.422C81.9639 47.5246 81.9312 47.6063 81.8659 47.667C81.8052 47.7276 81.7212 47.758 81.6139 47.758C81.5066 47.758 81.4202 47.7276 81.3549 47.667C81.2896 47.6063 81.2569 47.5246 81.2569 47.422V44.573C81.2569 44.475 81.2896 44.3956 81.3549 44.335C81.4249 44.2696 81.5112 44.237 81.6139 44.237C81.7166 44.237 81.7982 44.2673 81.8589 44.328C81.9196 44.3886 81.9499 44.468 81.9499 44.566V44.853C82.0619 44.6476 82.2182 44.4913 82.4189 44.384C82.6196 44.2766 82.8459 44.223 83.0979 44.223ZM86.7251 44.223C87.1778 44.223 87.5138 44.3373 87.7331 44.566C87.9571 44.7946 88.0691 45.1423 88.0691 45.609V47.422C88.0691 47.5293 88.0388 47.6133 87.9781 47.674C87.9175 47.73 87.8335 47.758 87.7261 47.758C87.6235 47.758 87.5418 47.7276 87.4811 47.667C87.4205 47.6063 87.3901 47.5246 87.3901 47.422V47.163C87.3015 47.359 87.1685 47.5106 86.9911 47.618C86.8185 47.7206 86.6155 47.772 86.3821 47.772C86.1581 47.772 85.9528 47.7276 85.7661 47.639C85.5795 47.5456 85.4325 47.4173 85.3251 47.254C85.2225 47.0906 85.1711 46.9086 85.1711 46.708C85.1711 46.4606 85.2341 46.267 85.3601 46.127C85.4908 45.9823 85.7031 45.8796 85.9971 45.819C86.2958 45.7583 86.7041 45.728 87.2221 45.728H87.3831V45.525C87.3831 45.2636 87.3295 45.0746 87.2221 44.958C87.1148 44.8413 86.9421 44.783 86.7041 44.783C86.5408 44.783 86.3868 44.804 86.2421 44.846C86.0975 44.888 85.9388 44.9486 85.7661 45.028C85.6401 45.098 85.5515 45.133 85.5001 45.133C85.4301 45.133 85.3718 45.1073 85.3251 45.056C85.2831 45.0046 85.2621 44.9393 85.2621 44.86C85.2621 44.79 85.2808 44.7293 85.3181 44.678C85.3601 44.622 85.4255 44.5683 85.5141 44.517C85.6775 44.4283 85.8688 44.3583 86.0881 44.307C86.3075 44.251 86.5198 44.223 86.7251 44.223ZM86.5081 47.247C86.7648 47.247 86.9748 47.1606 87.1381 46.988C87.3015 46.8106 87.3831 46.5843 87.3831 46.309V46.127H87.2571C86.8931 46.127 86.6131 46.1433 86.4171 46.176C86.2211 46.2086 86.0811 46.2646 85.9971 46.344C85.9131 46.4186 85.8711 46.5283 85.8711 46.673C85.8711 46.841 85.9318 46.9786 86.0531 47.086C86.1745 47.1933 86.3261 47.247 86.5081 47.247ZM90.8772 44.223C91.6939 44.223 92.1022 44.6826 92.1022 45.602V47.422C92.1022 47.5293 92.0695 47.6133 92.0042 47.674C91.9435 47.73 91.8572 47.758 91.7452 47.758C91.6379 47.758 91.5515 47.7276 91.4862 47.667C91.4255 47.6063 91.3952 47.5246 91.3952 47.422V45.637C91.3952 45.3476 91.3369 45.1353 91.2202 45C91.1082 44.8646 90.9309 44.797 90.6882 44.797C90.4035 44.797 90.1749 44.8856 90.0022 45.063C89.8295 45.2403 89.7432 45.4783 89.7432 45.777V47.422C89.7432 47.5246 89.7105 47.6063 89.6452 47.667C89.5845 47.7276 89.5005 47.758 89.3932 47.758C89.2859 47.758 89.1995 47.7276 89.1342 47.667C89.0689 47.6063 89.0362 47.5246 89.0362 47.422V44.573C89.0362 44.475 89.0689 44.3956 89.1342 44.335C89.2042 44.2696 89.2905 44.237 89.3932 44.237C89.4959 44.237 89.5775 44.2673 89.6382 44.328C89.6989 44.3886 89.7292 44.468 89.7292 44.566V44.853C89.8412 44.6476 89.9975 44.4913 90.1982 44.384C90.3989 44.2766 90.6252 44.223 90.8772 44.223Z" fill="black"/>
</g>
</g>
</g>
</svg>
