<svg width="142" height="145" viewBox="0 0 142 145" fill="none" xmlns="http://www.w3.org/2000/svg">
<g id="Group 25" filter="url(#filter0_d)">
<g id="Group 20">
<rect id="Rectangle 13" x="4" width="134" height="137" rx="52.5" fill="#ACCEFF"/>
<g id="Group 26">
<path id="Vector" d="M24.7982 57.8056C24.8952 65.4673 27.1334 66.2967 29.8819 65.4976C33.0218 64.5848 35.599 61.7235 36.8692 57.9378L37.7451 55.327C38.3275 53.5913 38.3471 51.6307 37.7996 49.8765C37.2522 48.1223 36.1825 46.7183 34.8259 45.9732H34.8259C34.1542 45.6042 33.4322 45.4082 32.7013 45.3962C31.9704 45.3842 31.2447 45.5566 30.5659 45.9034C29.887 46.2503 29.2682 46.7648 28.7447 47.4176C28.2212 48.0704 27.8034 48.8488 27.515 49.7082C24.6963 51.1249 24.1395 54.0579 24.7982 57.8056Z" fill="#061D28"/>
<path id="Vector_2" d="M42.4718 42.385L43.3154 40.5585C43.4184 40.3355 43.4806 40.0855 43.4973 39.8273C43.514 39.5691 43.4849 39.3094 43.4119 39.0677C43.339 38.826 43.2243 38.6086 43.0763 38.4318C42.9283 38.2549 42.751 38.1232 42.5576 38.0466V38.0466C42.3534 37.9657 42.1371 37.9484 41.9267 37.9962C41.7162 38.0439 41.5178 38.1553 41.3478 38.3211C41.1778 38.4869 41.0413 38.7023 40.9496 38.9492C40.8579 39.1962 40.8136 39.4677 40.8205 39.741L40.8701 41.7043L36.9055 55.6056L39.0674 56.1831L42.4718 42.385Z" fill="#9F616A"/>
<path id="Vector_3" d="M21.6143 76.6543L20.5759 78.3084C20.4491 78.5104 20.3597 78.7465 20.3144 78.999C20.2691 79.2515 20.2691 79.5138 20.3143 79.7664C20.3596 80.0189 20.4489 80.255 20.5757 80.457C20.7025 80.659 20.8634 80.8217 21.0463 80.9328V80.9328C21.2393 81.0501 21.4515 81.1067 21.6651 81.0978C21.8787 81.0888 22.0876 81.0147 22.2743 80.8816C22.461 80.7485 22.6201 80.5602 22.7384 80.3325C22.8567 80.1047 22.9307 79.8441 22.9543 79.5723L23.1238 77.62L28.5959 64.5832L26.5203 63.6175L21.6143 76.6543Z" fill="#9F616A"/>
<path id="Vector_4" d="M28.0295 90.4154L28.1824 92.7644L28.2182 93.3124L38.3812 92.0619C38.7316 92.0113 39.0676 91.8558 39.3621 91.6078C39.6566 91.3599 39.9012 91.0265 40.076 90.6349C40.2509 90.2432 40.351 89.8043 40.3684 89.3538C40.3857 88.9033 40.3197 88.4539 40.1757 88.0422L36.8981 79.0395L35.766 75.93L30.8599 74.4814C26.8144 78.4432 30.4542 82.8154 35.0338 87.2382C35.2131 87.4121 35.3942 87.5859 35.5773 87.7597L28.0295 90.4154Z" fill="#061D28"/>
<path id="Vector_5" d="M24.6053 98.5495C24.7291 98.5721 24.8554 98.5537 24.9721 98.4959C25.0888 98.4382 25.1919 98.343 25.2715 98.2197L28.5959 93.0709L28.4072 90.6567L27.2737 89.7865C27.181 89.7153 27.0772 89.6708 26.9697 89.6561C26.8622 89.6414 26.7535 89.6568 26.6511 89.7013C26.5487 89.7457 26.4551 89.8182 26.3768 89.9136C26.2985 90.009 26.2373 90.1251 26.1976 90.2538L24.0294 97.2816C23.9889 97.4129 23.9722 97.5542 23.9805 97.6949C23.9888 97.8356 24.0219 97.9721 24.0773 98.0941C24.1327 98.2161 24.209 98.3205 24.3004 98.3993C24.3919 98.4782 24.4961 98.5295 24.6053 98.5495V98.5495Z" fill="#061D28"/>
<path id="Vector_6" opacity="0.2" d="M27.4636 89.9325L27.6523 92.8296L28.1825 92.7644L37.8153 91.579C38.1656 91.5285 38.5017 91.3729 38.7962 91.125C39.0907 90.877 39.3353 90.5437 39.5101 90.152C39.685 89.7604 39.7851 89.3214 39.8024 88.8709C39.8198 88.4204 39.7538 87.9711 39.6098 87.5593L36.8983 79.7927V79.0395L35.7661 75.93L30.8601 74.4814C26.8145 78.4432 30.4544 82.8154 35.034 87.2382L35.0114 87.2769L27.4636 89.9325Z" fill="black"/>
<path id="Vector_7" d="M23.6617 97.5839C23.7855 97.6065 23.9118 97.5881 24.0285 97.5303C24.1451 97.4726 24.2482 97.3774 24.3279 97.254L27.6523 92.1053L27.4636 89.691L26.3301 88.8209C26.2374 88.7497 26.1336 88.7052 26.0261 88.6905C25.9186 88.6757 25.8099 88.6912 25.7075 88.7356C25.6051 88.7801 25.5115 88.8525 25.4332 88.948C25.3549 89.0434 25.2937 89.1595 25.254 89.2881L23.0858 96.316C23.0453 96.4473 23.0286 96.5886 23.0369 96.7293C23.0451 96.87 23.0782 97.0065 23.1337 97.1285C23.1891 97.2505 23.2654 97.3548 23.3568 97.4337C23.4483 97.5126 23.5525 97.5639 23.6617 97.5839V97.5839Z" fill="#061D28"/>
<path id="Vector_8" d="M27.0863 89.4497L27.275 92.3468L37.438 91.0959C37.7883 91.0454 38.1243 90.8899 38.4188 90.642C38.7133 90.3941 38.958 90.0608 39.1329 89.6692C39.3078 89.2777 39.408 88.8388 39.4255 88.3883C39.4429 87.9379 39.3771 87.4885 39.2333 87.0767L36.521 79.3099V74.9643L29.9167 73.5158C25.7119 77.6331 29.8088 82.1941 34.634 86.7941L27.0863 89.4497Z" fill="#061D28"/>
<path id="Vector_9" d="M33.502 55.4089C35.0652 55.4089 36.3324 53.7876 36.3324 51.7875C36.3324 49.7875 35.0652 48.1662 33.502 48.1662C31.9388 48.1662 30.6716 49.7875 30.6716 51.7875C30.6716 53.7876 31.9388 55.4089 33.502 55.4089Z" fill="#9F616A"/>
<path id="Vector_10" d="M29.7278 57.8234L33.6903 61.2033L37.0868 60.2376L35.1999 57.8234V54.2021L32.1808 53.9606C32.1174 55.4067 31.4697 56.7301 29.7278 57.8234Z" fill="#9F616A"/>
<path id="Vector_11" d="M29.1621 74.7229L36.5211 75.93L38.2193 65.7902C39.0083 63.0987 38.5556 60.7207 37.0949 58.5973C37.0391 58.2399 36.8903 57.9173 36.6728 57.682C36.4552 57.4467 36.1818 57.3126 35.8971 57.3016L35.2002 57.3404C35.2791 60.5423 33.4353 59.7711 30.6716 57.099L30.3379 57.2271C29.9065 57.3927 29.5361 57.7515 29.2945 58.2378C29.0529 58.7242 28.9563 59.3056 29.0223 59.8756L29.3266 62.5036C29.4556 63.5455 29.6561 64.5708 29.9256 65.5677C30.6801 68.4527 30.4105 71.5069 29.1621 74.7229Z" fill="#15C7C7"/>
<path id="Vector_12" d="M25.7656 63.8589L29.1621 65.3074L30.6716 58.3061L30.1602 58.0087C29.7362 57.7622 29.2548 57.7312 28.8136 57.9221C28.3725 58.1131 28.0046 58.5116 27.7846 59.0369L25.7656 63.8589Z" fill="#15C7C7"/>
<path id="Vector_13" d="M35.766 57.3405L37.653 59.9961L39.9172 55.409L37.0868 53.4777L35.766 57.3405Z" fill="#15C7C7"/>
<path id="Vector_14" d="M30.1997 50.7014C31.9783 51.5595 33.8765 51.4705 35.8605 50.7014V47.8043H30.1997V50.7014Z" fill="#061D28"/>
<path id="Vector_15" d="M118.475 100.432L116.524 101.473L103.515 78.7954L94.084 101.889L91.6449 101.265L98.7997 69.4332H107.093L118.475 100.432Z" fill="#061D28"/>
<path id="Vector_16" d="M121.093 105.723C120.985 105.76 120.872 105.77 120.761 105.752C120.649 105.734 120.542 105.687 120.445 105.616L116.33 102.584C116.219 102.503 116.124 102.389 116.053 102.253C115.981 102.117 115.936 101.961 115.919 101.799C115.902 101.636 115.915 101.471 115.956 101.315C115.997 101.16 116.065 101.019 116.156 100.903L116.524 100.432L118.475 100.224L121.458 103.888C121.567 104.022 121.646 104.189 121.687 104.374C121.728 104.559 121.73 104.755 121.693 104.942C121.656 105.128 121.581 105.299 121.476 105.436C121.37 105.573 121.238 105.672 121.093 105.723Z" fill="#061D28"/>
<path id="Vector_17" d="M89.1896 106.555C89.2978 106.592 89.4107 106.602 89.5219 106.584C89.6331 106.566 89.7404 106.52 89.8376 106.448L93.9527 103.417C94.0638 103.335 94.1587 103.221 94.23 103.085C94.3013 102.949 94.3471 102.793 94.3639 102.631C94.3807 102.468 94.368 102.303 94.3269 102.147C94.2857 101.992 94.2172 101.851 94.1265 101.735L93.7587 101.265L91.8074 101.057L88.8245 104.72C88.716 104.854 88.6371 105.021 88.5957 105.206C88.5544 105.391 88.5522 105.587 88.5893 105.774C88.6265 105.96 88.7016 106.131 88.807 106.268C88.9125 106.405 89.0445 106.504 89.1896 106.555V106.555Z" fill="#061D28"/>
<path id="Vector_18" d="M93.2711 36.3533L92.4581 36.9775L90.7732 33.4745C90.6697 33.2593 90.6082 33.0155 90.5938 32.7635C90.5794 32.5116 90.6126 32.2589 90.6905 32.0268C90.7685 31.7947 90.8889 31.59 91.0417 31.4299C91.1944 31.2699 91.375 31.1591 91.5682 31.1071C91.74 31.0608 91.9175 31.0621 92.0889 31.1108C92.2603 31.1595 92.4215 31.2545 92.5619 31.3895C92.7022 31.5245 92.8183 31.6963 92.9025 31.8934C92.9867 32.0905 93.0369 32.3084 93.0499 32.5324L93.2711 36.3533Z" fill="#FFB9B9"/>
<path id="Vector_19" d="M115.793 63.6261L116.13 62.4924L119.148 63.9124C119.333 63.9996 119.499 64.1426 119.632 64.3292C119.765 64.5158 119.861 64.7406 119.912 64.9847C119.963 65.2288 119.967 65.485 119.925 65.7316C119.882 65.9782 119.794 66.2081 119.667 66.4019V66.4019C119.554 66.5742 119.414 66.7136 119.256 66.8109C119.098 66.9082 118.925 66.9611 118.75 66.9661C118.574 66.971 118.4 66.9279 118.238 66.8395C118.077 66.7512 117.932 66.6198 117.814 66.454L115.793 63.6261Z" fill="#FFB9B9"/>
<path id="Vector_20" d="M103.028 48.8364C104.375 48.8364 105.467 47.4392 105.467 45.7156C105.467 43.9921 104.375 42.5949 103.028 42.5949C101.681 42.5949 100.589 43.9921 100.589 45.7156C100.589 47.4392 101.681 48.8364 103.028 48.8364Z" fill="#FFB9B9"/>
<path id="Vector_21" d="M105.141 52.3731H101.726V47.588L104.653 47.1719L105.141 52.3731Z" fill="#FFB9B9"/>
<path id="Vector_22" d="M107.58 70.6815H98.3118C98.6386 64.0648 98.8974 57.6705 98.3118 54.0376L98.8507 50.7278C98.9254 50.2692 99.1322 49.8633 99.4301 49.5909C99.728 49.3186 100.095 49.1996 100.458 49.2577L101.727 49.4605C102.585 51.3923 103.623 51.3737 104.816 49.6686H106.344C106.547 49.6686 106.749 49.7205 106.937 49.8214C107.124 49.9223 107.295 50.0702 107.437 50.2562C107.58 50.4423 107.692 50.6629 107.767 50.905C107.842 51.1472 107.879 51.4062 107.875 51.6667C108.273 53.9979 108.405 56.3904 108.268 58.7701L107.58 70.6815Z" fill="#3F3D56"/>
<path id="Vector_23" d="M91.9702 36.3532L93.271 35.5211L100.263 50.2925L98.312 54.0373L91.9702 36.3532Z" fill="#3F3D56"/>
<path id="Vector_24" d="M115.812 64.2181L116.923 63.0183L111.016 52.4277C110.438 51.3915 109.642 50.5876 108.719 50.1099C107.797 49.6322 106.788 49.5006 105.809 49.7304L105.623 49.7742L107.857 54.7755L110.799 57.6253L115.812 64.2181Z" fill="#3F3D56"/>
<path id="Vector_25" d="M105.848 43.8734C105.848 43.8734 106.304 42.5905 105.119 42.0073C105.119 42.0073 104.116 39.908 102.111 41.3076C102.111 41.3076 100.744 42.0073 100.744 43.8734C100.744 45.7395 100.288 46.0893 100.288 46.0893C100.288 46.0893 100.967 45.1984 101.149 44.4987C101.331 43.7989 102.749 43.6401 103.296 44.3399C103.843 45.0397 105.21 44.9231 105.21 44.9231L105.119 47.4889C105.119 47.4889 105.575 45.9727 105.757 45.9727C105.939 45.9727 106.122 43.8734 105.848 43.8734Z" fill="#061D28"/>
<path id="Vector_26" d="M31.1077 113.241C35.4645 113.241 38.9963 113.006 38.9963 112.716C38.9963 112.425 35.4645 112.19 31.1077 112.19C26.751 112.19 23.2191 112.425 23.2191 112.716C23.2191 113.006 26.751 113.241 31.1077 113.241Z" fill="#B1B7C2"/>
<path id="Vector_27" d="M105.623 113.71C113.866 113.71 120.547 113.265 120.547 112.715C120.547 112.166 113.866 111.721 105.623 111.721C97.3805 111.721 90.6986 112.166 90.6986 112.715C90.6986 113.265 97.3805 113.71 105.623 113.71Z" fill="#B1B7C2"/>
<path id="Vector_28" d="M91.9912 37.4025L43.2062 45.2824C42.9666 45.3206 42.7285 45.186 42.5439 44.9081C42.3594 44.6302 42.2435 44.2318 42.2218 43.8002L41.1372 21.9904C41.116 21.5587 41.1907 21.1294 41.3449 20.7968C41.4991 20.4642 41.7202 20.2555 41.9597 20.2163L90.7446 12.3363C90.9842 12.2981 91.2224 12.4328 91.4069 12.7106C91.5914 12.9885 91.7073 13.387 91.729 13.8186L92.8136 35.6284C92.8348 36.0601 92.7601 36.4893 92.6059 36.8219C92.4517 37.1545 92.2307 37.3633 91.9912 37.4025V37.4025Z" fill="#15C7C7"/>
<path id="STMIK Insan Pembangunan" d="M59.881 23.8477C59.6299 23.882 59.3878 23.8798 59.1545 23.8412C58.9245 23.8021 58.737 23.7303 58.5921 23.6258C58.5252 23.5812 58.4886 23.5174 58.4821 23.4343C58.4775 23.3745 58.4901 23.3224 58.52 23.278C58.5497 23.2303 58.5877 23.2032 58.6339 23.1969C58.6802 23.1906 58.738 23.2045 58.8074 23.2387C59.1183 23.4179 59.4621 23.4818 59.8386 23.4304C60.1028 23.3943 60.302 23.3167 60.4363 23.1976C60.5706 23.0785 60.6305 22.9259 60.6161 22.7398C60.6047 22.5935 60.5302 22.4929 60.3924 22.4378C60.2546 22.3827 60.0378 22.3418 59.742 22.3151C59.46 22.2931 59.2268 22.2561 59.0425 22.2041C58.8583 22.152 58.7099 22.0681 58.5975 21.9525C58.4881 21.8331 58.4255 21.6721 58.4098 21.4693C58.3941 21.2666 58.4346 21.0797 58.5315 20.9086C58.6314 20.7338 58.7771 20.5896 58.9686 20.4761C59.1598 20.3593 59.3825 20.2835 59.6368 20.2488C59.8713 20.2168 60.0902 20.2205 60.2935 20.2599C60.4969 20.2993 60.6729 20.3743 60.8217 20.4849C60.8921 20.5324 60.9304 20.596 60.9366 20.6758C60.941 20.7323 60.9267 20.7846 60.8937 20.8328C60.864 20.8805 60.8261 20.9075 60.7798 20.9138C60.7369 20.9197 60.6807 20.9055 60.6113 20.8714C60.4504 20.7758 60.3003 20.7123 60.161 20.681C60.0248 20.6459 59.8625 20.6412 59.6743 20.6669C59.42 20.7016 59.2259 20.7819 59.0922 20.9076C58.9581 21.03 58.8983 21.1843 58.9128 21.3704C58.9252 21.5299 58.9973 21.6426 59.1293 21.7086C59.2609 21.7712 59.4681 21.8168 59.7507 21.8454C60.0465 21.8721 60.2864 21.9099 60.4704 21.9586C60.6574 22.0036 60.8087 22.082 60.9242 22.1939C61.0427 22.302 61.1096 22.454 61.1248 22.6501C61.1403 22.8495 61.0979 23.035 60.9977 23.2065C60.9006 23.3743 60.7546 23.5151 60.5599 23.6291C60.3682 23.7392 60.1419 23.8121 59.881 23.8477ZM62.8487 23.4272C62.7728 23.4376 62.7082 23.4229 62.6551 23.3832C62.605 23.3396 62.577 23.2796 62.571 23.2032L62.3498 20.3518L61.359 20.4871C61.2005 20.5088 61.1157 20.4481 61.1046 20.3052C61.0992 20.2354 61.1149 20.1796 61.1517 20.1376C61.1918 20.0952 61.2498 20.0688 61.3258 20.0584L63.8226 19.7173C63.8986 19.7069 63.9578 19.7173 64.0002 19.7485C64.046 19.7792 64.0716 19.8294 64.077 19.8992C64.0881 20.0421 64.0144 20.1244 63.8559 20.146L62.8651 20.2814L63.0862 23.1328C63.0922 23.2093 63.0739 23.2756 63.0316 23.3317C62.989 23.3846 62.928 23.4164 62.8487 23.4272ZM67.5831 19.1784C67.6557 19.1685 67.7171 19.1853 67.7672 19.2289C67.8171 19.2691 67.8449 19.3274 67.8509 19.4038L68.0883 22.4646C68.0942 22.5411 68.0774 22.6038 68.0378 22.6529C68.0015 22.7015 67.9471 22.7308 67.8744 22.7407C67.8051 22.7502 67.7489 22.736 67.7059 22.6982C67.6629 22.6604 67.6385 22.6033 67.6325 22.5269L67.4527 20.2089L66.626 22.2009C66.5722 22.3258 66.4958 22.395 66.3968 22.4085C66.2977 22.4221 66.2123 22.375 66.1405 22.2672L65.0219 20.5611L65.2001 22.8592C65.2061 22.9356 65.1909 22.9981 65.1546 23.0467C65.1183 23.0954 65.0638 23.1246 64.9912 23.1346C64.9218 23.144 64.864 23.1301 64.8177 23.0928C64.7745 23.0517 64.75 22.9945 64.7444 22.9214L64.5069 19.8606C64.501 19.7842 64.5194 19.7195 64.562 19.6667C64.6044 19.6105 64.6619 19.5775 64.7345 19.5676C64.8369 19.5536 64.9241 19.6021 64.9961 19.7132L66.3569 21.8296L67.3542 19.3911C67.4077 19.2629 67.484 19.192 67.5831 19.1784ZM69.1764 22.5628C69.1005 22.5732 69.0376 22.5583 68.9877 22.5181C68.9379 22.4779 68.9098 22.4179 68.9037 22.3381L68.6674 19.2923C68.6615 19.2159 68.6798 19.1512 68.7224 19.0984C68.7648 19.0422 68.824 19.0089 68.8999 18.9986C68.9792 18.9877 69.0438 19.0024 69.0936 19.0426C69.1435 19.0828 69.1715 19.1428 69.1777 19.2226L69.4139 22.2684C69.4201 22.3482 69.4019 22.4145 69.3593 22.4673C69.3199 22.5197 69.259 22.5516 69.1764 22.5628ZM72.8133 21.6479C72.8735 21.6934 72.9061 21.7477 72.911 21.8109C72.9159 21.874 72.8954 21.9322 72.8495 21.9855C72.8068 22.0384 72.7541 22.0691 72.6914 22.0777C72.6286 22.0862 72.5688 22.0675 72.5118 22.0216L70.6241 20.6623L70.7347 22.088C70.7408 22.1678 70.7226 22.2341 70.68 22.2869C70.6407 22.3393 70.5797 22.3712 70.4972 22.3824C70.4212 22.3928 70.3583 22.3779 70.3085 22.3377C70.2586 22.2975 70.2306 22.2375 70.2244 22.1577L69.9881 19.1119C69.9822 19.0354 70.0006 18.9708 70.0432 18.918C70.0856 18.8618 70.1447 18.8285 70.2207 18.8181C70.2999 18.8073 70.3645 18.822 70.4144 18.8622C70.4642 18.9024 70.4922 18.9624 70.4984 19.0422L70.6044 20.4081L72.1734 18.627C72.216 18.5741 72.2687 18.5434 72.3315 18.5348C72.3942 18.5263 72.4505 18.5421 72.5004 18.5823C72.5502 18.6225 72.5775 18.6725 72.5821 18.7323C72.587 18.7955 72.5634 18.8575 72.5114 18.9183L71.138 20.446L72.8133 21.6479ZM44.5318 32.9824C44.4558 32.9927 44.3929 32.9778 44.343 32.9376C44.2932 32.8974 44.2652 32.8374 44.259 32.7577L44.0227 29.7118C44.0168 29.6354 44.0352 29.5707 44.0778 29.5179C44.1202 29.4617 44.1793 29.4284 44.2553 29.4181C44.3345 29.4072 44.3991 29.4219 44.4489 29.4621C44.4988 29.5024 44.5268 29.5623 44.533 29.6421L44.7693 32.6879C44.7754 32.7677 44.7572 32.834 44.7146 32.8869C44.6753 32.9392 44.6143 32.9711 44.5318 32.9824ZM46.648 30.1492C47.226 30.0702 47.5404 30.3581 47.5911 31.0128L47.6917 32.3089C47.6976 32.3853 47.6791 32.4483 47.6363 32.4978C47.5964 32.5436 47.5369 32.5719 47.4576 32.5827C47.3816 32.5931 47.3189 32.5798 47.2693 32.5429C47.223 32.5056 47.197 32.4504 47.1913 32.3772L47.0927 31.1061C47.0767 30.9 47.0237 30.7544 46.9337 30.6693C46.847 30.5838 46.7177 30.5527 46.546 30.5762C46.3445 30.6037 46.1876 30.689 46.0752 30.832C45.9628 30.9749 45.9148 31.1528 45.9313 31.3655L46.0222 32.5369C46.0279 32.6101 46.0093 32.6714 45.9664 32.7209C45.9268 32.77 45.869 32.7997 45.7931 32.8101C45.7171 32.8204 45.6543 32.8072 45.6047 32.7703C45.5551 32.7334 45.5275 32.6784 45.5218 32.6053L45.3645 30.5764C45.359 30.5066 45.3778 30.4469 45.4207 30.3974C45.4666 30.3441 45.5259 30.3125 45.5986 30.3026C45.6712 30.2927 45.7307 30.3064 45.777 30.3437C45.8233 30.3811 45.8491 30.4346 45.8545 30.5044L45.8704 30.7088C45.9383 30.5517 46.0403 30.4253 46.1764 30.3295C46.3125 30.2336 46.4697 30.1735 46.648 30.1492ZM49.2377 32.3496C48.9008 32.3956 48.6196 32.3635 48.3941 32.2532C48.3319 32.2248 48.286 32.1924 48.2564 32.1562C48.2302 32.1195 48.2152 32.0762 48.2113 32.0263C48.2072 31.9731 48.2186 31.9262 48.2455 31.8856C48.2724 31.845 48.3089 31.8215 48.3552 31.8152C48.3981 31.8094 48.4679 31.8267 48.5645 31.8672C48.6677 31.9069 48.7668 31.937 48.8618 31.9576C48.9602 31.9778 49.0804 31.9781 49.2224 31.9587C49.3809 31.9371 49.5026 31.8919 49.5874 31.8232C49.6722 31.7546 49.7106 31.6687 49.7026 31.5657C49.6974 31.4992 49.6751 31.4485 49.6357 31.4136C49.5996 31.3782 49.5374 31.3515 49.4492 31.3333C49.3608 31.3118 49.2309 31.2942 49.0597 31.2807C48.7641 31.2573 48.5478 31.2012 48.4108 31.1124C48.2768 31.0199 48.2026 30.8806 48.1881 30.6945C48.177 30.5516 48.2084 30.418 48.2822 30.2937C48.3557 30.1661 48.4627 30.0608 48.6031 29.9778C48.7436 29.8948 48.9062 29.8407 49.0912 29.8154C49.2233 29.7974 49.3535 29.7981 49.4819 29.8175C49.6099 29.8336 49.7244 29.8683 49.8254 29.9217C49.94 29.9799 50.0011 30.0572 50.0086 30.1536C50.0127 30.2068 49.9997 30.2539 49.9695 30.2949C49.9426 30.3356 49.9077 30.3588 49.8647 30.3647C49.835 30.3687 49.8048 30.3661 49.774 30.3569C49.7433 30.3477 49.702 30.3315 49.6501 30.3083C49.5568 30.2674 49.4694 30.2373 49.3878 30.2182C49.3095 30.1987 49.2126 30.1968 49.097 30.2126C48.9583 30.2316 48.8483 30.2768 48.7671 30.3484C48.6891 30.4195 48.6542 30.5065 48.6622 30.6095C48.6694 30.7026 48.713 30.7705 48.7931 30.8133C48.8762 30.8523 49.027 30.8805 49.2452 30.8977C49.4701 30.914 49.6476 30.9435 49.7778 30.9861C49.9079 31.0288 50.0029 31.0914 50.0627 31.1739C50.1255 31.2526 50.1622 31.3601 50.1728 31.4964C50.1896 31.7124 50.1123 31.8993 49.941 32.0571C49.7727 32.211 49.5382 32.3085 49.2377 32.3496ZM51.605 29.472C51.9253 29.4283 52.1694 29.4772 52.3373 29.6188C52.5084 29.76 52.6069 29.9968 52.6327 30.3291L52.7328 31.6203C52.7388 31.6967 52.7219 31.7594 52.6824 31.8085C52.6425 31.8543 52.5846 31.8823 52.5087 31.8927C52.436 31.9026 52.3765 31.8889 52.3302 31.8516C52.284 31.8142 52.258 31.759 52.2523 31.6859L52.238 31.5015C52.1861 31.6496 52.1003 31.7705 51.9808 31.8641C51.8642 31.9539 51.7234 32.01 51.5583 32.0326C51.3997 32.0543 51.252 32.0425 51.115 31.9974C50.9777 31.949 50.8666 31.8718 50.7816 31.7659C50.6999 31.6595 50.6535 31.5349 50.6424 31.3919C50.6288 31.2158 50.6627 31.0718 50.7441 30.9599C50.8286 30.8443 50.9732 30.7506 51.1779 30.679C51.3859 30.6069 51.6732 30.5458 52.0398 30.4958L52.1538 30.4802L52.1426 30.3356C52.1281 30.1495 52.0797 30.0201 51.9973 29.9474C51.9149 29.8747 51.7895 29.8499 51.621 29.8729C51.5054 29.8887 51.3976 29.9185 51.2975 29.9624C51.1975 30.0063 51.0885 30.0648 50.9707 30.138C50.8854 30.2001 50.8246 30.2335 50.7883 30.2385C50.7387 30.2453 50.696 30.2326 50.6602 30.2006C50.6276 30.1681 50.6091 30.1236 50.6048 30.0671C50.6009 30.0173 50.6108 29.9722 50.6343 29.9321C50.661 29.8881 50.7042 29.8436 50.7642 29.7985C50.8749 29.7195 51.0064 29.6512 51.1588 29.5934C51.3109 29.5323 51.4596 29.4919 51.605 29.472ZM51.6184 31.6465C51.8001 31.6217 51.9439 31.5399 52.05 31.4012C52.1558 31.2591 52.2011 31.09 52.1859 30.894L52.1758 30.7643L52.0866 30.7765C51.829 30.8117 51.6318 30.8504 51.4949 30.8926C51.358 30.9348 51.262 30.9883 51.2069 31.0529C51.1516 31.1142 51.1279 31.1963 51.1359 31.2993C51.1452 31.419 51.1957 31.5112 51.2875 31.5759C51.3793 31.6406 51.4896 31.6641 51.6184 31.6465ZM54.5434 29.0706C55.1214 28.9917 55.4358 29.2795 55.4866 29.9342L55.5871 31.2304C55.593 31.3068 55.5746 31.3698 55.5317 31.4193C55.4918 31.465 55.4323 31.4933 55.353 31.5041C55.2771 31.5145 55.2143 31.5013 55.1647 31.4644C55.1184 31.427 55.0924 31.3718 55.0868 31.2987L54.9882 30.0275C54.9722 29.8215 54.9192 29.6759 54.8291 29.5908C54.7424 29.5053 54.6131 29.4742 54.4414 29.4977C54.2399 29.5252 54.083 29.6104 53.9706 29.7534C53.8582 29.8964 53.8102 30.0742 53.8267 30.2869L53.9176 31.4584C53.9233 31.5315 53.9047 31.5928 53.8618 31.6424C53.8222 31.6914 53.7644 31.7212 53.6885 31.7315C53.6125 31.7419 53.5497 31.7286 53.5002 31.6918C53.4506 31.6549 53.4229 31.5999 53.4173 31.5268L53.2599 29.4979C53.2545 29.4281 53.2732 29.3684 53.3161 29.3189C53.362 29.2656 53.4213 29.234 53.494 29.2241C53.5666 29.2141 53.6261 29.2278 53.6724 29.2652C53.7187 29.3025 53.7445 29.3561 53.7499 29.4259L53.7658 29.6303C53.8337 29.4732 53.9357 29.3468 54.0718 29.2509C54.2079 29.1551 54.3651 29.095 54.5434 29.0706ZM57.9085 31.1551C57.8325 31.1654 57.7696 31.1505 57.7198 31.1103C57.6699 31.0701 57.6419 31.0101 57.6357 30.9304L57.4006 27.8995C57.3947 27.823 57.4115 27.7603 57.4511 27.7112C57.4937 27.6584 57.5547 27.6265 57.634 27.6157L58.8279 27.4526C59.1978 27.4021 59.4922 27.4542 59.7111 27.609C59.9301 27.7638 60.0526 28.0091 60.0786 28.3447C60.1044 28.6771 60.0221 28.9503 59.8318 29.1644C59.6415 29.3784 59.3613 29.5107 58.9914 29.5613L58.0551 29.6892L58.146 30.8606C58.1522 30.9404 58.134 31.0067 58.0913 31.0596C58.052 31.1119 57.9911 31.1438 57.9085 31.1551ZM58.9049 29.155C59.3936 29.0882 59.6214 28.8404 59.5882 28.4117C59.5552 27.9863 59.2943 27.807 58.8055 27.8738L57.9237 27.9943L58.023 29.2754L58.9049 29.155ZM62.5888 29.8709C62.635 29.8646 62.6744 29.8776 62.707 29.9101C62.7395 29.9426 62.758 29.9871 62.7624 30.0436C62.7699 30.14 62.7167 30.2296 62.603 30.3123C62.4926 30.3945 62.3694 30.4634 62.2335 30.5189C62.101 30.574 61.9719 30.6101 61.8464 30.6272C61.4633 30.6795 61.1525 30.6095 60.9139 30.4171C60.6751 30.2213 60.5406 29.929 60.5105 29.5402C60.4911 29.2909 60.5219 29.0634 60.6027 28.8575C60.6868 28.6512 60.8123 28.483 60.9791 28.3527C61.1492 28.222 61.3465 28.1413 61.5711 28.1106C61.8948 28.0664 62.1588 28.1361 62.3633 28.3198C62.5678 28.5034 62.6839 28.7731 62.7115 29.1287C62.7218 29.2616 62.6675 29.3362 62.5486 29.3524L61.0178 29.5615C61.0908 30.0721 61.3568 30.2961 61.8159 30.2334C61.9381 30.2167 62.0425 30.1856 62.1291 30.1402C62.2157 30.0948 62.3064 30.0388 62.4014 29.972C62.4108 29.964 62.4362 29.9471 62.4776 29.9213C62.522 29.8918 62.5591 29.8749 62.5888 29.8709ZM61.6096 28.4782C61.4181 28.5043 61.2693 28.5868 61.1632 28.7255C61.0572 28.8643 61.0012 29.0466 60.9954 29.2724L62.2735 29.0978C62.2461 28.8732 62.1749 28.7083 62.0599 28.6031C61.948 28.4941 61.7979 28.4524 61.6096 28.4782ZM65.947 27.5129C66.4886 27.4389 66.7848 27.7292 66.8356 28.3839L66.9361 29.68C66.9421 29.7565 66.9236 29.8195 66.8807 29.869C66.8375 29.9152 66.778 29.9435 66.702 29.9538C66.6294 29.9638 66.5684 29.9519 66.5191 29.9184C66.4695 29.8815 66.4417 29.8248 66.4358 29.7484L66.3356 28.4573C66.3199 28.2545 66.2722 28.1133 66.1926 28.0335C66.1127 27.9504 65.9952 27.9194 65.84 27.9406C65.6583 27.9654 65.5195 28.0482 65.4237 28.1889C65.3275 28.3263 65.2878 28.503 65.3046 28.719L65.3954 29.8905C65.4014 29.9669 65.3829 30.0299 65.34 30.0794C65.2969 30.1256 65.2373 30.1539 65.1613 30.1643C65.0887 30.1742 65.0277 30.1624 64.9784 30.1288C64.9288 30.092 64.901 30.0353 64.8951 29.9589L64.7949 28.6677C64.7792 28.465 64.7315 28.3237 64.6519 28.2439C64.572 28.1608 64.4545 28.1299 64.2993 28.1511C64.1176 28.1759 63.9772 28.2589 63.878 28.4C63.7819 28.5374 63.7422 28.7141 63.7589 28.9302L63.8498 30.1016C63.8557 30.1781 63.8372 30.2411 63.7944 30.2906C63.7512 30.3368 63.6933 30.3648 63.6207 30.3748C63.548 30.3847 63.4853 30.3731 63.4327 30.34C63.3831 30.3031 63.3554 30.2464 63.3494 30.17L63.1921 28.1411C63.1864 28.068 63.2066 28.0064 63.2528 27.9565C63.299 27.9065 63.3568 27.8768 63.4261 27.8673C63.4955 27.8578 63.5533 27.8718 63.5996 27.9091C63.6489 27.9427 63.6764 27.996 63.6821 28.0691L63.6964 28.2536C63.7583 28.1041 63.8507 27.9839 63.9739 27.8932C64.097 27.8025 64.2428 27.7457 64.4112 27.7227C64.5962 27.6974 64.7511 27.7149 64.8759 27.7751C65.004 27.8348 65.104 27.9404 65.1758 28.0918C65.2374 27.9389 65.336 27.8113 65.4715 27.7088C65.6068 27.603 65.7653 27.5377 65.947 27.5129ZM68.7425 27.131C68.9539 27.1021 69.1445 27.1281 69.3143 27.2091C69.4841 27.29 69.621 27.4191 69.7248 27.5963C69.832 27.7731 69.8954 27.9878 69.915 28.2404C69.9343 28.4896 69.9052 28.7169 69.8277 28.9223C69.7535 29.1273 69.6379 29.2942 69.481 29.4231C69.3275 29.5515 69.1466 29.63 68.9386 29.6584C68.7569 29.6832 68.5938 29.6669 68.4491 29.6094C68.3042 29.5486 68.1898 29.45 68.1058 29.3137L68.1213 29.5131C68.1269 29.5862 68.1084 29.6492 68.0658 29.7021C68.0262 29.7511 67.9685 29.7808 67.8925 29.7912C67.8165 29.8016 67.7538 29.7883 67.7042 29.7515C67.6543 29.7112 67.6266 29.6546 67.6209 29.5815L67.3819 26.5007C67.3763 26.4276 67.3949 26.3663 67.4378 26.3168C67.4839 26.2668 67.545 26.2366 67.621 26.2262C67.6936 26.2163 67.7531 26.23 67.7994 26.2674C67.8487 26.3009 67.8761 26.3526 67.8815 26.4224L67.9805 27.6986C68.0418 27.5424 68.1387 27.415 68.2713 27.3163C68.4038 27.2176 68.5609 27.1558 68.7425 27.131ZM68.7887 29.2758C69.0034 29.2465 69.1643 29.1473 69.2713 28.9782C69.3816 28.8086 69.4261 28.5859 69.4047 28.3101C69.3836 28.0376 69.3079 27.8363 69.1777 27.7063C69.0472 27.573 68.8729 27.5212 68.6549 27.551C68.437 27.5808 68.2743 27.6786 68.167 27.8444C68.063 28.0097 68.0217 28.2303 68.0431 28.5061C68.0645 28.782 68.1388 28.9868 68.266 29.1205C68.3965 29.2538 68.5708 29.3056 68.7887 29.2758ZM71.3871 26.7697C71.7074 26.726 71.9515 26.7749 72.1194 26.9166C72.2905 27.0577 72.389 27.2945 72.4148 27.6268L72.5149 28.918C72.5209 28.9944 72.504 29.0572 72.4645 29.1062C72.4246 29.152 72.3667 29.18 72.2908 29.1904C72.2181 29.2003 72.1586 29.1866 72.1123 29.1493C72.0661 29.1119 72.0401 29.0567 72.0344 28.9836L72.0201 28.7992C71.9682 28.9473 71.8824 29.0682 71.7629 29.1618C71.6463 29.2516 71.5055 29.3077 71.3404 29.3303C71.1818 29.352 71.0341 29.3402 70.8971 29.2951C70.7598 29.2467 70.6487 29.1695 70.5637 29.0636C70.482 28.9572 70.4356 28.8326 70.4245 28.6897C70.4109 28.5135 70.4448 28.3695 70.5262 28.2576C70.6107 28.142 70.7553 28.0483 70.96 27.9767C71.168 27.9046 71.4553 27.8436 71.8219 27.7935L71.9359 27.7779L71.9247 27.6333C71.9102 27.4472 71.8618 27.3178 71.7794 27.2451C71.697 27.1724 71.5716 27.1476 71.4031 27.1706C71.2875 27.1864 71.1797 27.2162 71.0797 27.2601C70.9796 27.304 70.8706 27.3625 70.7528 27.4357C70.6675 27.4978 70.6067 27.5313 70.5704 27.5362C70.5208 27.543 70.4781 27.5303 70.4423 27.4983C70.4097 27.4658 70.3912 27.4213 70.3869 27.3648C70.383 27.315 70.3929 27.27 70.4164 27.2298C70.4431 27.1858 70.4863 27.1413 70.5463 27.0962C70.657 27.0173 70.7885 26.9489 70.9409 26.8911C71.093 26.8301 71.2417 26.7896 71.3871 26.7697ZM71.4005 28.9442C71.5822 28.9194 71.726 28.8377 71.8321 28.6989C71.9379 28.5568 71.9832 28.3877 71.968 28.1917L71.9579 28.0621L71.8687 28.0742C71.6111 28.1094 71.4139 28.1481 71.277 28.1903C71.1401 28.2325 71.0441 28.286 70.989 28.3506C70.9337 28.4119 70.91 28.494 70.918 28.5971C70.9273 28.7167 70.9778 28.8089 71.0696 28.8736C71.1614 28.9383 71.2717 28.9618 71.4005 28.9442ZM74.3256 26.3683C74.9035 26.2894 75.2179 26.5773 75.2687 27.232L75.3692 28.5281C75.3751 28.6045 75.3567 28.6675 75.3138 28.717C75.2739 28.7627 75.2144 28.791 75.1351 28.8019C75.0592 28.8122 74.9964 28.799 74.9468 28.7621C74.9005 28.7248 74.8745 28.6695 74.8689 28.5964L74.7703 27.3252C74.7543 27.1192 74.7013 26.9736 74.6112 26.8885C74.5245 26.803 74.3952 26.7719 74.2235 26.7954C74.022 26.8229 73.8651 26.9081 73.7527 27.0511C73.6403 27.1941 73.5924 27.3719 73.6088 27.5846L73.6997 28.7561C73.7054 28.8292 73.6868 28.8906 73.6439 28.9401C73.6043 28.9891 73.5465 29.0189 73.4706 29.0292C73.3946 29.0396 73.3318 29.0264 73.2823 28.9895C73.2327 28.9526 73.205 28.8976 73.1994 28.8245L73.042 26.7956C73.0366 26.7258 73.0553 26.6661 73.0982 26.6166C73.1441 26.5633 73.2034 26.5317 73.2761 26.5218C73.3487 26.5118 73.4082 26.5256 73.4545 26.5629C73.5008 26.6002 73.5266 26.6538 73.532 26.7236L73.5479 26.928C73.6158 26.7709 73.7178 26.6445 73.8539 26.5486C73.99 26.4528 74.1472 26.3927 74.3256 26.3683ZM77.8792 25.893C77.9552 25.8826 78.0164 25.8977 78.0629 25.9384C78.1125 25.9753 78.1402 26.0303 78.1458 26.1034L78.3044 28.1473C78.3332 28.5195 78.256 28.8138 78.0725 29.0303C77.8923 29.2464 77.6107 29.3806 77.2276 29.4329C76.8709 29.4816 76.5684 29.4541 76.32 29.3503C76.1924 29.2972 76.1248 29.2225 76.1174 29.1261C76.113 29.0696 76.1242 29.0211 76.1511 28.9805C76.1813 28.9394 76.2195 28.9157 76.2658 28.9094C76.3087 28.9035 76.3783 28.9192 76.4747 28.9564C76.598 28.9967 76.712 29.0247 76.8167 29.0407C76.9216 29.0599 77.0451 29.0598 77.1871 29.0404C77.6429 28.9782 77.8529 28.7161 77.817 28.2541L77.7872 27.8703C77.7292 28.026 77.6324 28.1551 77.4969 28.2576C77.361 28.3567 77.199 28.4192 77.0108 28.4449C76.7994 28.4738 76.6073 28.4496 76.4344 28.3725C76.2615 28.2953 76.1218 28.1717 76.0151 28.0015C75.9118 27.8309 75.8508 27.626 75.8323 27.3867C75.8137 27.1474 75.8436 26.9301 75.9219 26.7347C76.0002 26.5392 76.1164 26.3806 76.2704 26.2588C76.4276 26.1332 76.6118 26.056 76.8232 26.0271C77.0082 26.0019 77.1731 26.0197 77.318 26.0805C77.4662 26.1408 77.5823 26.2392 77.6663 26.3755L77.6501 26.1661C77.6444 26.093 77.6613 26.0319 77.7009 25.9828C77.7438 25.9333 77.8032 25.9033 77.8792 25.893ZM77.0987 28.0298C77.3134 28.0005 77.4763 27.9061 77.5874 27.7465C77.6985 27.5869 77.7443 27.3808 77.7247 27.1282C77.7053 26.8789 77.629 26.6912 77.4958 26.565C77.3655 26.435 77.1914 26.3849 76.9734 26.4147C76.7555 26.4445 76.5893 26.5394 76.4748 26.6994C76.3637 26.859 76.318 27.0651 76.3376 27.3177C76.3572 27.5703 76.4352 27.7594 76.5718 27.8852C76.7084 28.0109 76.884 28.0592 77.0987 28.0298ZM80.6967 25.5081C80.7726 25.4977 80.8337 25.5112 80.88 25.5485C80.9296 25.5854 80.9574 25.6421 80.9633 25.7185L81.1207 27.7474C81.1261 27.8172 81.1074 27.8769 81.0645 27.9264C81.0216 27.9759 80.9622 28.0059 80.8862 28.0162C80.8168 28.0257 80.7592 28.0134 80.7131 27.9794C80.6668 27.9421 80.641 27.8885 80.6356 27.8187L80.6209 27.6293C80.5558 27.7793 80.4583 27.9 80.3286 27.9917C80.2021 28.0828 80.0564 28.1397 79.8912 28.1622C79.3034 28.2425 78.9842 27.957 78.9336 27.3056L78.8331 26.0095C78.8272 25.9331 78.844 25.8703 78.8836 25.8213C78.9265 25.7717 78.9875 25.7416 79.0668 25.7307C79.1428 25.7204 79.2039 25.7338 79.2502 25.7712C79.2998 25.8081 79.3275 25.8647 79.3334 25.9412L79.4336 27.2323C79.4488 27.4284 79.4996 27.5675 79.5861 27.6497C79.6726 27.732 79.7984 27.7618 79.9636 27.7393C80.1584 27.7126 80.3087 27.6283 80.4145 27.4862C80.5236 27.3437 80.5701 27.1677 80.5538 26.9584L80.4629 25.7869C80.4573 25.7138 80.4759 25.6524 80.5188 25.6029C80.5614 25.5501 80.6207 25.5185 80.6967 25.5081ZM82.9467 25.1907C83.5246 25.1117 83.839 25.3996 83.8898 26.0543L83.9903 27.3504C83.9963 27.4268 83.9778 27.4898 83.9349 27.5393C83.895 27.5851 83.8355 27.6134 83.7562 27.6242C83.6803 27.6346 83.6175 27.6213 83.5679 27.5844C83.5216 27.5471 83.4956 27.4919 83.49 27.4187L83.3914 26.1476C83.3754 25.9415 83.3224 25.7959 83.2323 25.7108C83.1456 25.6253 83.0163 25.5943 82.8446 25.6177C82.6431 25.6452 82.4862 25.7305 82.3738 25.8735C82.2614 26.0164 82.2135 26.1943 82.23 26.407L82.3208 27.5785C82.3265 27.6516 82.3079 27.7129 82.265 27.7624C82.2254 27.8115 82.1676 27.8412 82.0917 27.8516C82.0157 27.8619 81.953 27.8487 81.9034 27.8118C81.8538 27.7749 81.8261 27.7199 81.8205 27.6468L81.6631 25.6179C81.6577 25.5481 81.6764 25.4885 81.7193 25.4389C81.7652 25.3856 81.8245 25.354 81.8972 25.3441C81.9698 25.3342 82.0293 25.3479 82.0756 25.3852C82.1219 25.4226 82.1477 25.4761 82.1532 25.5459L82.169 25.7503C82.2369 25.5932 82.3389 25.4668 82.475 25.371C82.6111 25.2751 82.7683 25.215 82.9467 25.1907ZM85.5137 24.84C85.834 24.7962 86.0781 24.8452 86.246 24.9868C86.4172 25.128 86.5156 25.3648 86.5414 25.6971L86.6416 26.9882C86.6475 27.0647 86.6307 27.1274 86.5911 27.1765C86.5512 27.2222 86.4933 27.2503 86.4174 27.2607C86.3447 27.2706 86.2852 27.2569 86.239 27.2196C86.1927 27.1822 86.1667 27.127 86.161 27.0539L86.1467 26.8694C86.0948 27.0176 86.009 27.1384 85.8895 27.232C85.7729 27.3218 85.6321 27.378 85.467 27.4006C85.3085 27.4222 85.1607 27.4105 85.0237 27.3654C84.8864 27.317 84.7753 27.2398 84.6903 27.1339C84.6086 27.0275 84.5622 26.9028 84.5512 26.7599C84.5375 26.5838 84.5714 26.4398 84.6528 26.3279C84.7373 26.2122 84.8819 26.1186 85.0866 26.047C85.2946 25.9749 85.582 25.9138 85.9485 25.8637L86.0625 25.8482L86.0513 25.7036C86.0368 25.5175 85.9884 25.3881 85.906 25.3154C85.8236 25.2427 85.6982 25.2178 85.5298 25.2408C85.4142 25.2566 85.3063 25.2865 85.2063 25.3304C85.1062 25.3743 84.9973 25.4328 84.8795 25.506C84.7941 25.568 84.7333 25.6015 84.697 25.6065C84.6475 25.6133 84.6048 25.6006 84.5689 25.5686C84.5363 25.5361 84.5179 25.4916 84.5135 25.4351C84.5096 25.3852 84.5195 25.3402 84.5431 25.3001C84.5697 25.2561 84.613 25.2116 84.6729 25.1664C84.7836 25.0875 84.9151 25.0192 85.0675 24.9614C85.2196 24.9003 85.3684 24.8599 85.5137 24.84ZM85.5272 27.0145C85.7088 26.9897 85.8526 26.9079 85.9587 26.7692C86.0645 26.6271 86.1098 26.458 86.0946 26.2619L86.0845 26.1323L85.9954 26.1445C85.7378 26.1797 85.5405 26.2184 85.4036 26.2606C85.2667 26.3028 85.1707 26.3562 85.1156 26.4208C85.0603 26.4821 85.0366 26.5643 85.0446 26.6673C85.0539 26.787 85.1045 26.8791 85.1962 26.9438C85.288 27.0086 85.3983 27.0321 85.5272 27.0145ZM88.4522 24.4386C89.0301 24.3596 89.3445 24.6475 89.3953 25.3022L89.4958 26.5983C89.5018 26.6748 89.4833 26.7377 89.4404 26.7873C89.4006 26.833 89.341 26.8613 89.2617 26.8721C89.1858 26.8825 89.123 26.8692 89.0734 26.8324C89.0271 26.795 89.0012 26.7398 88.9955 26.6667L88.8969 25.3955C88.8809 25.1894 88.8279 25.0439 88.7378 24.9588C88.6511 24.8732 88.5219 24.8422 88.3501 24.8656C88.1487 24.8932 87.9917 24.9784 87.8793 25.1214C87.7669 25.2644 87.719 25.4422 87.7355 25.6549L87.8263 26.8264C87.832 26.8995 87.8134 26.9608 87.7705 27.0103C87.7309 27.0594 87.6732 27.0891 87.5972 27.0995C87.5212 27.1099 87.4585 27.0966 87.4089 27.0597C87.3593 27.0228 87.3317 26.9678 87.326 26.8947L87.1686 24.8658C87.1632 24.796 87.1819 24.7364 87.2248 24.6869C87.2707 24.6336 87.33 24.602 87.4027 24.592C87.4754 24.5821 87.5348 24.5958 87.5811 24.6332C87.6274 24.6705 87.6532 24.7241 87.6587 24.7938L87.6745 24.9982C87.7424 24.8412 87.8444 24.7147 87.9805 24.6189C88.1166 24.5231 88.2738 24.463 88.4522 24.4386Z" fill="black"/>
<g id="Group 20_2">
<g id="Group">
<g id="Group 21">
<path id="Vector_29" d="M84.2009 57.4707L84.2511 57.5964L84.3754 57.5948L87.1339 57.5602C89.2125 57.5341 90.912 59.3382 90.9321 61.5705L90.9834 67.2597C91.0035 69.4921 89.3368 71.3385 87.2582 71.3646L84.4828 71.3994L84.3577 71.401L84.3102 71.5287C82.2604 76.9992 77.9292 81.0356 72.7405 82.436L72.5946 82.4753L72.5961 82.6416L72.6134 84.5598C72.6335 86.7921 70.9669 88.6386 68.8883 88.6647C66.8096 88.6908 65.1101 86.8865 65.09 84.6542C65.0699 82.4231 66.7469 80.5753 68.8409 80.549C75.026 80.4714 80.5287 76.161 82.5332 69.8154C82.5334 69.815 82.5335 69.8145 82.5337 69.8141L82.5384 69.7999L82.5387 69.7989C83.3473 67.3132 83.5504 64.5781 83.1265 61.8891C82.998 60.9855 82.7808 60.1084 82.4751 59.2566L82.4649 59.2282C82.4647 59.2277 82.4646 59.2272 82.4644 59.2267C80.5703 53.6657 75.8833 49.633 70.5185 48.9463C65.449 48.2927 60.5084 50.4458 57.2982 54.7155C54.03 59.0608 53.1423 64.7015 54.8596 70.1815L54.8596 70.1815L55.3561 71.765L50.2108 71.8295C48.1322 71.8556 46.4327 70.0514 46.4126 67.8191L46.3613 62.1299C46.3412 59.8975 48.0078 58.0511 50.0865 58.025L52.799 57.991L52.9233 57.9894L52.9713 57.8623C53.5957 56.2099 54.455 54.6402 55.5439 53.1918C59.2463 48.2676 64.9516 45.7715 70.7905 46.538L70.7911 46.5381C76.6789 47.29 81.8274 51.5503 84.2009 57.4707Z" fill="#0AA8B0" stroke="white"/>
<path id="Ellipse 10" d="M68.8844 77.3089C75.7354 77.2229 81.2363 71.2845 81.1711 64.0449C81.1059 56.8054 75.4992 51.0063 68.6483 51.0922C61.7973 51.1782 56.2964 57.1167 56.3616 64.3562C56.4268 71.5957 62.0335 77.3948 68.8844 77.3089Z" fill="#D5E7FF"/>
<path id="SI Consult" d="M59.0045 65.8078C58.7512 65.8076 58.5095 65.7725 58.2795 65.7024C58.0528 65.6323 57.8711 65.5355 57.7344 65.4121C57.6711 65.3587 57.6394 65.2904 57.6393 65.207C57.6393 65.147 57.656 65.097 57.6893 65.0571C57.7226 65.0137 57.7626 64.9921 57.8093 64.9921C57.8559 64.9921 57.9126 65.0138 57.9793 65.0572C58.276 65.2774 58.6144 65.3875 58.9944 65.3877C59.261 65.3879 59.466 65.338 59.6093 65.2381C59.7526 65.1381 59.8242 64.9948 59.8241 64.8082C59.8241 64.6615 59.7574 64.5515 59.624 64.4781C59.4907 64.4046 59.2773 64.3345 58.984 64.2677C58.7039 64.2076 58.4739 64.1391 58.2939 64.0624C58.1139 63.9856 57.9722 63.8822 57.8688 63.7521C57.7688 63.6187 57.7187 63.4504 57.7186 63.247C57.7186 63.0437 57.7735 62.8637 57.8834 62.7071C57.9967 62.5472 58.1533 62.4239 58.3533 62.3374C58.5533 62.2475 58.7816 62.2026 59.0382 62.2027C59.2749 62.2028 59.4932 62.2363 59.6932 62.303C59.8933 62.3698 60.0633 62.4682 60.2033 62.5983C60.27 62.655 60.3034 62.7234 60.3034 62.8034C60.3034 62.86 60.2851 62.91 60.2485 62.9533C60.2151 62.9967 60.1751 63.0183 60.1285 63.0183C60.0851 63.0183 60.0301 62.9966 59.9635 62.9532C59.8101 62.8365 59.6651 62.753 59.5284 62.703C59.395 62.6496 59.2334 62.6228 59.0434 62.6227C58.7867 62.6226 58.5867 62.6758 58.4435 62.7824C58.3002 62.8857 58.2285 63.0306 58.2286 63.2173C58.2287 63.3773 58.292 63.499 58.4187 63.5824C58.5454 63.6625 58.7488 63.7359 59.0288 63.8027C59.3221 63.8696 59.5588 63.9397 59.7388 64.0131C59.9222 64.0832 60.0672 64.1816 60.1739 64.3083C60.284 64.4317 60.339 64.5918 60.3391 64.7884C60.3392 64.9884 60.2826 65.1667 60.1693 65.3233C60.0594 65.4766 59.9027 65.5966 59.6994 65.6831C59.4995 65.7663 59.2678 65.8079 59.0045 65.8078ZM61.2292 65.7939C61.1525 65.7939 61.0909 65.7705 61.0442 65.7238C60.9975 65.6771 60.9741 65.6138 60.9741 65.5338L60.973 62.4787C60.973 62.402 60.9963 62.3404 61.043 62.2937C61.0896 62.2438 61.1513 62.2188 61.2279 62.2188C61.3079 62.2189 61.3713 62.2422 61.4179 62.2889C61.4646 62.3356 61.488 62.399 61.488 62.479L61.4891 65.534C61.4891 65.614 61.4658 65.6774 61.4192 65.724C61.3758 65.7706 61.3125 65.7939 61.2292 65.7939ZM65.1604 65.8109C64.8238 65.8108 64.5304 65.7389 64.2804 65.5955C64.0303 65.4487 63.8386 65.2402 63.7052 64.9702C63.5718 64.6968 63.505 64.3751 63.5048 64.005C63.5047 63.6384 63.5713 63.3201 63.7045 63.0501C63.8377 62.7769 64.0293 62.5686 64.2793 62.4254C64.5292 62.2789 64.8225 62.2057 65.1592 62.2059C65.3791 62.206 65.5875 62.2411 65.7842 62.3112C65.9809 62.378 66.1525 62.4764 66.2993 62.6065C66.3626 62.6565 66.3943 62.7232 66.3943 62.8065C66.3943 62.8665 66.3777 62.9182 66.3444 62.9615C66.3111 63.0015 66.2711 63.0215 66.2244 63.0214C66.1677 63.0214 66.1127 62.9997 66.0594 62.9563C65.8994 62.8363 65.7527 62.7528 65.6193 62.7061C65.4893 62.656 65.341 62.631 65.1743 62.6309C64.8076 62.6307 64.526 62.7489 64.3295 62.9855C64.1329 63.222 64.0347 63.562 64.0348 64.0053C64.035 64.452 64.1334 64.7937 64.3302 65.0305C64.5269 65.2673 64.8086 65.3857 65.1753 65.3859C65.3353 65.386 65.4803 65.3611 65.6102 65.3112C65.7436 65.2612 65.8935 65.178 66.0601 65.0614C66.1268 65.0181 66.1818 64.9964 66.2251 64.9965C66.2718 64.9965 66.3118 65.0182 66.3451 65.0615C66.3785 65.1015 66.3952 65.1516 66.3952 65.2116C66.3952 65.2949 66.3636 65.3615 66.3003 65.4115C66.1536 65.5414 65.982 65.6414 65.7854 65.7113C65.5887 65.7778 65.3804 65.811 65.1604 65.8109ZM67.9603 65.8074C67.7203 65.8073 67.5086 65.7555 67.3253 65.652C67.1452 65.5486 67.0052 65.4019 66.9051 65.2118C66.8084 65.0184 66.76 64.7951 66.7599 64.5417C66.7598 64.2851 66.8081 64.0618 66.9046 63.8718C67.0046 63.6785 67.1445 63.5302 67.3245 63.427C67.5078 63.3238 67.7194 63.2722 67.9594 63.2723C68.1994 63.2725 68.4094 63.3242 68.5894 63.4277C68.7728 63.5311 68.9128 63.6795 69.0096 63.8729C69.1096 64.0629 69.1597 64.2863 69.1598 64.543C69.1599 64.7963 69.11 65.0196 69.0101 65.2129C68.9135 65.4029 68.7735 65.5495 68.5902 65.6527C68.4103 65.7559 68.2003 65.8075 67.9603 65.8074ZM67.9602 65.4074C68.1835 65.4075 68.3535 65.3342 68.4701 65.1876C68.59 65.041 68.6499 64.826 68.6498 64.5427C68.6497 64.2627 68.5897 64.0493 68.4696 63.9026C68.3496 63.7525 68.1795 63.6775 67.9595 63.6773C67.7395 63.6772 67.5696 63.7521 67.4496 63.9021C67.3297 64.0487 67.2698 64.262 67.2699 64.542C67.27 64.8253 67.3284 65.0404 67.4451 65.1871C67.5651 65.3338 67.7368 65.4073 67.9602 65.4074ZM71.0366 63.2739C71.6199 63.2742 71.9116 63.6027 71.9119 64.2594L71.9123 65.5594C71.9124 65.6361 71.8891 65.6961 71.8424 65.7394C71.7991 65.7794 71.7374 65.7993 71.6574 65.7993C71.5808 65.7992 71.5191 65.7775 71.4724 65.7342C71.4291 65.6908 71.4074 65.6325 71.4074 65.5592L71.4069 64.2841C71.4068 64.0775 71.3651 63.9258 71.2817 63.8291C71.2017 63.7323 71.075 63.6839 70.9017 63.6839C70.6984 63.6838 70.5351 63.747 70.4118 63.8736C70.2885 64.0002 70.2269 64.1702 70.227 64.3835L70.2274 65.5585C70.2274 65.6319 70.2041 65.6902 70.1575 65.7335C70.1141 65.7768 70.0542 65.7985 69.9775 65.7984C69.9008 65.7984 69.8392 65.7767 69.7925 65.7333C69.7458 65.69 69.7224 65.6316 69.7224 65.5583L69.7217 63.5232C69.7217 63.4532 69.745 63.3966 69.7916 63.3533C69.8416 63.3066 69.9033 63.2833 69.9766 63.2834C70.0499 63.2834 70.1083 63.3051 70.1516 63.3485C70.195 63.3918 70.2167 63.4485 70.2167 63.5185L70.2167 63.7235C70.2967 63.5769 70.4083 63.4653 70.5516 63.3887C70.6949 63.3121 70.8566 63.2738 71.0366 63.2739ZM73.4532 65.8102C73.1133 65.81 72.8349 65.7399 72.6182 65.5998C72.5582 65.5631 72.5148 65.5247 72.4882 65.4847C72.4648 65.4447 72.4531 65.3997 72.4531 65.3497C72.4531 65.2964 72.4681 65.2514 72.4981 65.2147C72.528 65.1781 72.5664 65.1597 72.613 65.1598C72.6564 65.1598 72.7247 65.1865 72.8181 65.2399C72.9181 65.2933 73.0148 65.3366 73.1081 65.37C73.2048 65.4034 73.3248 65.4201 73.4681 65.4202C73.6281 65.4203 73.7531 65.392 73.8431 65.3354C73.933 65.2788 73.978 65.1988 73.978 65.0955C73.9779 65.0288 73.9596 64.9755 73.9229 64.9354C73.8896 64.8954 73.8296 64.8604 73.7429 64.8303C73.6562 64.797 73.5279 64.7619 73.3579 64.7251C73.0645 64.6617 72.8528 64.5765 72.7228 64.4698C72.5961 64.3597 72.5327 64.2114 72.5326 64.0247C72.5326 63.8814 72.5742 63.7531 72.6575 63.6398C72.7408 63.5231 72.8557 63.4332 73.0024 63.3699C73.149 63.3067 73.3157 63.2751 73.5023 63.2752C73.6357 63.2753 73.7657 63.2937 73.8923 63.3304C74.019 63.3638 74.1307 63.4138 74.2274 63.4806C74.3374 63.554 74.3924 63.639 74.3925 63.7357C74.3925 63.789 74.3758 63.834 74.3425 63.8706C74.3125 63.9073 74.2759 63.9256 74.2325 63.9256C74.2025 63.9256 74.1725 63.9189 74.1425 63.9055C74.1125 63.8922 74.0725 63.8705 74.0225 63.8405C73.9325 63.7871 73.8475 63.7454 73.7675 63.7153C73.6908 63.6853 73.5941 63.6702 73.4775 63.6702C73.3375 63.6701 73.2242 63.7001 73.1375 63.76C73.0542 63.82 73.0126 63.9016 73.0126 64.005C73.0126 64.0983 73.051 64.1716 73.1277 64.225C73.2077 64.2751 73.356 64.3235 73.5727 64.3702C73.7961 64.417 73.9711 64.4705 74.0978 64.5305C74.2244 64.5906 74.3145 64.6656 74.3678 64.7557C74.4245 64.8424 74.4529 64.954 74.453 65.0907C74.453 65.3074 74.3614 65.4823 74.1781 65.6156C73.9982 65.7455 73.7566 65.8104 73.4532 65.8102ZM76.9043 63.2869C76.981 63.287 77.041 63.3087 77.0844 63.352C77.131 63.3954 77.1544 63.4554 77.1544 63.5321L77.1551 65.5671C77.1552 65.6371 77.1319 65.6938 77.0852 65.7371C77.0386 65.7804 76.9769 65.802 76.9002 65.802C76.8302 65.802 76.7736 65.7819 76.7302 65.7419C76.6869 65.6985 76.6652 65.6419 76.6652 65.5719L76.6651 65.3819C76.5885 65.5218 76.4818 65.6284 76.3452 65.7017C76.2119 65.775 76.0619 65.8116 75.8953 65.8115C75.302 65.8112 75.0052 65.4843 75.0049 64.831L75.0045 63.531C75.0045 63.4543 75.0261 63.3943 75.0694 63.351C75.1161 63.3077 75.1794 63.2861 75.2594 63.2861C75.3361 63.2861 75.3961 63.3078 75.4394 63.3512C75.4861 63.3945 75.5094 63.4546 75.5095 63.5312L75.5099 64.8263C75.51 65.0229 75.5501 65.1679 75.6301 65.2613C75.7101 65.3547 75.8335 65.4014 76.0001 65.4015C76.1968 65.4016 76.3534 65.3384 76.47 65.2118C76.59 65.0851 76.6499 64.9168 76.6498 64.7068L76.6494 63.5318C76.6494 63.4585 76.6727 63.4002 76.7194 63.3568C76.766 63.3102 76.8277 63.2869 76.9043 63.2869ZM78.1169 65.8026C78.0435 65.8026 77.9819 65.7825 77.9319 65.7425C77.8852 65.7025 77.8618 65.6425 77.8618 65.5625L77.8607 62.4724C77.8607 62.3924 77.884 62.3324 77.9306 62.2925C77.9806 62.2491 78.0423 62.2275 78.1156 62.2275C78.1889 62.2276 78.2489 62.2493 78.2956 62.2926C78.3423 62.3327 78.3656 62.3927 78.3657 62.4727L78.3668 65.5627C78.3668 65.6427 78.3435 65.7027 78.2968 65.7427C78.2502 65.7827 78.1902 65.8027 78.1169 65.8026ZM80.2676 65.4187C80.3409 65.4254 80.3926 65.4455 80.4226 65.4788C80.456 65.5088 80.4726 65.5522 80.4727 65.6088C80.4727 65.6755 80.446 65.7272 80.3927 65.7638C80.3427 65.7971 80.2677 65.8104 80.1677 65.8037L80.0327 65.7936C79.7627 65.7735 79.5611 65.6917 79.4277 65.5483C79.2943 65.4016 79.2276 65.1865 79.2274 64.9032L79.227 63.7282L78.927 63.728C78.7804 63.7279 78.707 63.6629 78.707 63.5329C78.707 63.4729 78.7253 63.4262 78.7619 63.3929C78.8019 63.3563 78.8569 63.338 78.9269 63.338L79.2269 63.3381L79.2267 62.8231C79.2267 62.7465 79.2483 62.6865 79.2916 62.6432C79.3383 62.5999 79.4 62.5782 79.4766 62.5783C79.5533 62.5783 79.615 62.6 79.6616 62.6434C79.7083 62.6867 79.7317 62.7467 79.7317 62.8234L79.7319 63.3384L80.2269 63.3387C80.2969 63.3387 80.3502 63.3571 80.3869 63.3937C80.4269 63.4271 80.4469 63.4738 80.4469 63.5338C80.4469 63.5971 80.427 63.6454 80.387 63.6787C80.3503 63.7121 80.297 63.7287 80.227 63.7287L79.732 63.7284L79.7324 64.9384C79.7325 65.0951 79.7642 65.2101 79.8276 65.2835C79.8943 65.3569 79.9943 65.3986 80.1276 65.4086L80.2676 65.4187Z" fill="black"/>
</g>
</g>
</g>
</g>
</g>
</g>
<defs>
<filter id="filter0_d" x="0" y="0" width="142" height="145" filterUnits="userSpaceOnUse" color-interpolation-filters="sRGB">
<feFlood flood-opacity="0" result="BackgroundImageFix"/>
<feColorMatrix in="SourceAlpha" type="matrix" values="0 0 0 0 0 0 0 0 0 0 0 0 0 0 0 0 0 0 127 0"/>
<feOffset dy="4"/>
<feGaussianBlur stdDeviation="2"/>
<feColorMatrix type="matrix" values="0 0 0 0 0 0 0 0 0 0 0 0 0 0 0 0 0 0 0.25 0"/>
<feBlend mode="normal" in2="BackgroundImageFix" result="effect1_dropShadow"/>
<feBlend mode="normal" in="SourceGraphic" in2="effect1_dropShadow" result="shape"/>
</filter>
</defs>
</svg>
