<svg width="64" height="64" viewBox="0 0 64 64" fill="none" xmlns="http://www.w3.org/2000/svg">
<g id="Group 4">
<ellipse id="Ellipse 2" cx="30.9333" cy="33.6842" rx="24.5333" ry="25.8246" fill="#0BCAD4"/>
<mask id="mask0" mask-type="alpha" maskUnits="userSpaceOnUse" x="0" y="0" width="64" height="64">
<circle id="Ellipse 1" cx="32" cy="32" r="32" fill="#C4C4C4"/>
</mask>
<g mask="url(#mask0)">
<g id="Group 5">
<g id="Page 1">
<g id="001   Degree">
<path id="Shape" d="M48.6956 40.3004C48.6956 43.4784 48.1343 46.0577 47.4483 46.0577C43.2626 45.4402 39.0372 45.0786 34.7999 44.9753L33.2531 44.2959C34.115 42.8831 33.793 41.1067 32.4798 40.0298C32.4611 38.1184 33.4278 36.4833 33.0348 35.6716C37.8625 35.6162 42.6795 35.2391 47.4483 34.5431C48.1343 34.5431 48.6956 37.1224 48.6956 40.3004Z" fill="#FEC080"/>
<path id="Shape_2" d="M21.8766 26.5175L12.9391 23.5698C12.6924 23.4872 12.5282 23.2709 12.5282 23.0286C12.5282 22.7864 12.6924 22.5701 12.9391 22.4874L30.3899 16.7302C30.5311 16.6841 30.6852 16.6841 30.8265 16.7302L48.2773 22.4874C48.5239 22.5701 48.6882 22.7864 48.6882 23.0286C48.6882 23.2709 48.5239 23.4872 48.2773 23.5698L44.2857 24.8882L42.5581 25.4582L39.3398 26.5175H21.8766Z" fill="#393F4B"/>
<g id="Group">
<path id="Shape_3" d="M13.8564 46.0404L13.7691 46.0577C13.7993 46.0581 13.8291 46.0522 13.8564 46.0404Z" fill="#FEC080"/>
<path id="Shape_4" d="M13.8439 34.5547C13.8188 34.5521 13.7938 34.5482 13.7691 34.5431C13.7945 34.5442 13.8196 34.548 13.8439 34.5547Z" fill="#FEC080"/>
<path id="Shape_5" d="M13.8502 34.5547C18.3393 35.2077 22.8717 35.5751 27.4154 35.6543C27.827 36.4949 29.3613 38.2623 29.3613 40.3004C29.3613 40.4386 29.3613 40.571 29.3551 40.7034C28.5848 41.7829 28.5318 43.169 29.2179 44.2959L27.6774 44.9407C23.0486 45.0154 18.4308 45.3828 13.8564 46.0404L13.8502 34.5547Z" fill="#FEC080"/>
</g>
<path id="Shape_6" d="M28.1077 40.7034C28.114 40.571 28.114 40.4386 28.114 40.3004C28.183 38.7256 27.9464 37.1522 27.4154 35.6543C28.4383 35.6831 29.5048 35.6946 30.6087 35.6946C31.4382 35.6946 32.249 35.6888 33.0348 35.6716C33.5383 37.076 33.7706 38.5512 33.7209 40.0298L28.1077 40.7034Z" fill="#0066CB"/>
<path id="Shape_7" d="M31.2324 46.0577L29.5734 49.725C29.4811 49.9425 29.2557 50.087 29.0027 50.0908C28.7498 50.0945 28.5194 49.9569 28.4196 49.7423L27.9643 48.7751L26.9165 49.1896C26.686 49.2829 26.4173 49.2382 26.2366 49.0764C26.056 48.9147 25.9993 48.6682 26.0932 48.4527L27.6774 44.9407L27.9705 44.2959L31.2324 46.0577Z" fill="#0066CB"/>
<path id="Shape_8" d="M34.4943 44.2959L34.7999 44.9753L36.3716 48.4527C36.4655 48.6682 36.4088 48.9147 36.2281 49.0764C36.0475 49.2382 35.7788 49.2829 35.5483 49.1896L34.5005 48.7751L34.0452 49.7423C33.9454 49.9569 33.715 50.0945 33.462 50.0908C33.2091 50.087 32.9836 49.9425 32.8914 49.725L31.2324 46.0577L34.4943 44.2959Z" fill="#0066CB"/>
<path id="Shape_9" d="M21.8771 30.5131V24.1801C21.8771 23.2244 25.7876 22.4529 30.6087 22.4529C35.4298 22.4529 39.3403 23.2244 39.3403 24.1801V30.5131H21.8771Z" fill="#464F5E"/>
<path id="Shape_10" d="M43.7061 25.3315C43.3617 25.3315 43.0825 25.0738 43.0825 24.7558V20.979C43.0825 20.6611 43.3617 20.4033 43.7061 20.4033C44.0506 20.4033 44.3298 20.6611 44.3298 20.979V24.7558C44.3298 25.0738 44.0506 25.3315 43.7061 25.3315Z" fill="#EDC100"/>
<path id="Shape_11" d="M42.4588 25.9073V27.6344C42.4588 27.9524 42.738 28.2102 43.0825 28.2102H44.3298C44.6743 28.2102 44.9535 27.9524 44.9535 27.6344V25.9073C44.9535 25.2713 44.3951 24.7558 43.7062 24.7558C43.0172 24.7558 42.4588 25.2713 42.4588 25.9073Z" fill="#F1D24B"/>
<path id="Oval" d="M30.6087 32.2402C35.4311 32.2402 39.3403 31.467 39.3403 30.5131C39.3403 29.5592 35.4311 28.7859 30.6087 28.7859C25.7863 28.7859 21.8771 29.5592 21.8771 30.5131C21.8771 31.467 25.7863 32.2402 30.6087 32.2402Z" fill="#393F4B"/>
<path id="Shape_12" d="M15.0165 40.3004C15.0165 43.3402 14.5051 45.8331 13.8564 46.0404C13.8291 46.0522 13.7993 46.0581 13.7691 46.0577C13.0831 46.0577 12.5217 43.4784 12.5217 40.3004C12.5217 37.1224 13.0831 34.5431 13.7691 34.5431C13.776 34.5424 13.7828 34.5445 13.7878 34.5489C13.8003 34.5489 13.819 34.5547 13.844 34.5547H13.8502C14.4988 34.7562 15.0165 37.2491 15.0165 40.3004V40.3004Z" fill="#E2BE50"/>
<path id="Shape_13" d="M34.9745 42.6033C34.9745 44.5111 33.2991 46.0577 31.2324 46.0577C29.1657 46.0577 27.4902 44.5111 27.4902 42.6033C27.4902 40.6955 29.1657 39.1489 31.2324 39.1489C32.1522 39.144 33.0405 39.4584 33.7209 40.0298C34.5191 40.6821 34.9757 41.6192 34.9745 42.6033Z" fill="#E04C34"/>
</g>
</g>
</g>
</g>
</g>
</svg>
