<svg width="64" height="64" viewBox="0 0 64 64" fill="none" xmlns="http://www.w3.org/2000/svg">
<g id="Group 3">
<ellipse id="Ellipse 2" cx="30.9333" cy="33.6842" rx="24.5333" ry="25.8246" fill="#0BCAD4"/>
<mask id="mask0" mask-type="alpha" maskUnits="userSpaceOnUse" x="0" y="0" width="64" height="64">
<circle id="Ellipse 1" cx="32" cy="32" r="32" fill="#C4C4C4"/>
</mask>
<g mask="url(#mask0)">
<g id="Group 4">
<g id="hr 1" clip-path="url(#clip0)">
<path id="Vector" d="M27.9383 19.1641V14.4965H40.2805V19.1641H35.2314L31.8654 22.0813V19.1641H27.9383Z" fill="#E6E9ED"/>
<path id="Vector_2" d="M35.2314 43.669V49.5035H32.9874L31.8654 47.1697H22.8892L21.7672 49.5035H19.5231V41.3352H35.2314V43.669Z" fill="#E6E9ED"/>
<path id="Vector_3" d="M35.2314 39.0014V41.3352H19.5231V39.0014H35.2314Z" fill="#E6E9ED"/>
<path id="Vector_4" d="M36.9144 36.6676V39.0014H18.4011V36.6676H36.9144Z" fill="#AAB2BD"/>
<path id="Vector_5" d="M31.8654 47.1697L32.9874 49.5035H21.7672L22.8892 47.1697H31.8654Z" fill="#838F9B"/>
<path id="Vector_6" d="M41.4025 43.669L41.9635 49.5035H39.7195L39.1585 43.669H41.4025Z" fill="#838F9B"/>
<path id="Vector_7" d="M44.7686 33.1669V40.1683C44.7686 42.0996 43.2595 43.669 41.4025 43.669H35.2314V41.3352H40.2805C41.5203 41.3352 42.5245 40.2908 42.5245 39.0014V33.1669H44.7686Z" fill="#CF9E76"/>
<path id="Vector_8" d="M41.0546 32.3618C41.279 32.1285 41.4025 31.8134 41.4025 31.4866C41.4025 31.1482 41.2678 30.8331 41.0546 30.6115C40.8807 30.4363 40.6621 30.3081 40.2805 30.2553V30.2496H41.0546C41.2847 30.2496 41.5091 30.3021 41.711 30.4129C42.2103 30.6699 42.5245 31.2006 42.5245 31.7784V39.0014C42.5245 40.2908 41.5203 41.3352 40.2805 41.3352H35.2314V39.0014H36.9144V36.6676H36.6843C36.8303 36.6676 36.9761 36.6035 37.0772 36.4984L41.0546 32.3618Z" fill="#FCD770"/>
<path id="Vector_9" d="M30.7433 36.6676H20.6452V33.9019C20.6452 33.1202 21.1445 32.4376 21.8683 32.2216L24.5722 31.4165C24.5722 31.4165 25.1332 32.5834 26.2553 32.5834C27.3773 32.5834 27.9383 31.4165 27.9383 31.4165L30.6423 32.2216C31.366 32.4376 31.8654 33.1202 31.8654 33.9019V34.3338H30.7433C30.4349 34.3338 30.1544 34.4623 29.9522 34.6779C29.7449 34.8882 29.6213 35.1799 29.6213 35.5007C29.6213 36.1425 30.1262 36.6676 30.7433 36.6676Z" fill="#69D6F4"/>
<g id="Group">
<path id="Vector_10" d="M40.2805 30.2553C40.6621 30.3081 40.8807 30.4363 41.0546 30.6115C41.2677 30.8331 41.4025 31.1482 41.4025 31.4866C41.4025 31.8134 41.279 32.1285 41.0546 32.3618L37.0772 36.4984C36.9761 36.6035 36.8303 36.6676 36.6843 36.6676H30.7433C30.1262 36.6676 29.6213 36.1426 29.6213 35.5007C29.6213 35.1799 29.7449 34.8882 29.9522 34.6779C30.1544 34.4623 30.4349 34.3338 30.7433 34.3338H35.7924L39.3716 30.6115C39.5959 30.3781 39.8989 30.2496 40.2131 30.2496C40.2356 30.2496 40.258 30.2496 40.2805 30.2553Z" fill="#F0D0B4"/>
<path id="Vector_11" d="M42.5245 26.1655V27.3324C42.5245 28.9426 41.2678 30.2496 39.7195 30.2496C38.1712 30.2496 36.9144 28.9426 36.9144 27.3324V26.1655C36.9144 24.5553 38.1712 23.2482 39.7195 23.2482C40.4936 23.2482 41.1949 23.575 41.7055 24.1001C42.2103 24.6311 42.5245 25.3604 42.5245 26.1655Z" fill="#F0D0B4"/>
<path id="Vector_12" d="M24.5722 29.6662C25.0379 30.0337 25.6214 30.2497 26.2553 30.2497C26.8891 30.2497 27.4726 30.0337 27.9383 29.6662V31.4166C27.9383 31.4166 27.3773 32.5835 26.2553 32.5835C25.1332 32.5835 24.5722 31.4166 24.5722 31.4166V29.6662Z" fill="#F0D0B4"/>
<path id="Vector_13" d="M29.0603 26.1655V27.3324C29.0603 28.2834 28.6171 29.1352 27.9383 29.6662C27.4726 30.0337 26.8891 30.2496 26.2553 30.2496C25.6214 30.2496 25.0379 30.0337 24.5722 29.6662C23.8934 29.1352 23.4502 28.2834 23.4502 27.3324V26.1655C23.4502 24.5553 24.707 23.2482 26.2553 23.2482C27.0294 23.2482 27.7307 23.575 28.2413 24.1001C28.7461 24.6311 29.0603 25.3604 29.0603 26.1655Z" fill="#F0D0B4"/>
</g>
<path id="Vector_14" d="M31.3043 23.3269L35.4344 19.7475H40.8415V13.913H27.3773V19.7475H31.3043V23.3269ZM28.4993 18.5806V15.0799H39.7195V18.5806H35.0284L32.4264 20.8358V18.5806H28.4993Z" fill="black"/>
<path id="Vector_15" d="M29.6213 16.2468H30.7433V17.4137H29.6213V16.2468Z" fill="black"/>
<path id="Vector_16" d="M31.8654 16.2468H36.3534V17.4137H31.8654V16.2468Z" fill="black"/>
<path id="Vector_17" d="M37.4755 16.2468H38.5975V17.4137H37.4755V16.2468Z" fill="black"/>
<path id="Vector_18" d="M42.4711 48.9201L42.0175 44.1969C43.8906 43.8889 45.3296 42.2021 45.3296 40.1683V32.5834H43.0856V31.7772C43.0856 30.9841 42.6664 30.2719 41.9926 29.9066C42.6626 29.2665 43.0856 28.3512 43.0856 27.3324V26.1655C43.0856 24.2348 41.5759 22.6648 39.7195 22.6648C37.8631 22.6648 36.3534 24.2348 36.3534 26.1655V27.3324C36.3534 28.8429 37.2796 30.1289 38.5712 30.6189L35.5601 33.7503H32.414C32.3513 32.7777 31.7089 31.9299 30.7989 31.6593L28.4993 30.9767V29.9346C29.186 29.2933 29.6213 28.3663 29.6213 27.3324V26.1655C29.6213 24.2348 28.1117 22.6648 26.2553 22.6648C24.3988 22.6648 22.8892 24.2348 22.8892 26.1655V27.3324C22.8892 28.3657 23.3245 29.2927 24.0112 29.9346V30.9773L21.7116 31.6598C20.7534 31.9439 20.0841 32.8669 20.0841 33.9039V36.0841H17.8401V39.5848H18.9621V48.9201H13.913V50.087H48.6957V48.9201H42.4711ZM37.4755 39.5848V36.9092L41.4507 32.7749C41.7381 32.476 41.909 32.0746 41.9474 31.6559C41.9523 31.6966 41.9635 31.7351 41.9635 31.7772V39.0014C41.9635 39.9663 41.2083 40.7517 40.2805 40.7517H35.7924V39.5848H37.4755ZM35.7924 44.2525H38.6509L39.0996 48.9201H35.7924V44.2525ZM39.7784 44.2525H40.8949L41.3436 48.9201H40.2271L39.7784 44.2525ZM43.0856 39.0014V33.7503H44.2076V40.1683C44.2076 41.7768 42.9491 43.0855 41.4025 43.0855H35.7924V41.9186H40.2805C41.8271 41.9186 43.0856 40.6099 43.0856 39.0014ZM37.4755 27.3324V26.1655C37.4755 24.8784 38.4819 23.8317 39.7195 23.8317C40.9571 23.8317 41.9635 24.8784 41.9635 26.1655V27.3324C41.9635 28.6195 40.9571 29.6662 39.7195 29.6662C38.4819 29.6662 37.4755 28.6195 37.4755 27.3324ZM36.0247 34.9172L39.7677 31.0245C39.8849 30.9026 40.0471 30.8331 40.2126 30.8331C40.5594 30.8331 40.8415 31.1265 40.8415 31.4872C40.8415 31.6593 40.7747 31.8279 40.6574 31.9499L36.6822 36.0841H30.7433C30.4338 36.0841 30.1823 35.8226 30.1823 35.5007C30.1823 35.1788 30.4338 34.9172 30.7433 34.9172H36.0247ZM24.0112 26.1655C24.0112 24.8784 25.0176 23.8317 26.2553 23.8317C27.4929 23.8317 28.4993 24.8784 28.4993 26.1655V27.3324C28.4993 28.6195 27.4929 29.6662 26.2553 29.6662C25.0176 29.6662 24.0112 28.6195 24.0112 27.3324V26.1655ZM26.2553 30.8331C26.6492 30.8331 27.0256 30.7585 27.3773 30.6288V31.2556C27.2381 31.4789 26.8516 32 26.2553 32C25.6589 32 25.2724 31.4789 25.1332 31.2556V30.6288C25.485 30.7585 25.8613 30.8331 26.2553 30.8331ZM21.2062 33.9039C21.2062 33.3851 21.5412 32.9242 22.0197 32.7817L24.3309 32.0951C24.6563 32.5362 25.2897 33.1669 26.2553 33.1669C27.2209 33.1669 27.8542 32.5362 28.1796 32.0946L30.4908 32.7812C30.9206 32.9091 31.2202 33.2977 31.2802 33.7498H30.7433C29.8155 33.7498 29.0603 34.5352 29.0603 35.5001C29.0603 35.7055 29.1006 35.9004 29.1636 36.0836H21.2062V33.9039ZM18.9621 37.251H36.3534V38.4179H18.9621V37.251ZM20.0841 41.9186H21.7672V40.7517H20.0841V39.5848H34.6704V40.7517H22.8892V41.9186H34.6704V48.9201H33.3342L32.2122 46.5863H22.5424L21.4204 48.9201H20.0841V41.9186ZM32.0796 48.9201H22.675L23.236 47.7532H31.5186L32.0796 48.9201Z" fill="black"/>
</g>
</g>
</g>
</g>
<defs>
<clipPath id="clip0">
<rect width="34.7826" height="36.1739" fill="white" transform="translate(13.913 13.913)"/>
</clipPath>
</defs>
</svg>
