<svg width="64" height="64" viewBox="0 0 64 64" fill="none" xmlns="http://www.w3.org/2000/svg">
<g id="Group 2">
<ellipse id="Ellipse 2" cx="30.9333" cy="33.6842" rx="24.5333" ry="25.8246" fill="#0BCAD4"/>
<mask id="mask0" mask-type="alpha" maskUnits="userSpaceOnUse" x="0" y="0" width="64" height="64">
<circle id="Ellipse 1" cx="32" cy="32" r="32" fill="#C4C4C4"/>
</mask>
<g mask="url(#mask0)">
<g id="iconpelyanankeuangan">
<g id="Group">
<path id="Vector" d="M21.4858 34.6166C19.9534 34.6166 18.5659 33.9694 17.5521 32.9224V37.5742C17.5521 38.2267 18.0562 38.7573 18.676 38.7573H24.2956C24.9154 38.7573 25.4195 38.2267 25.4195 37.5742V32.9224C24.4057 33.9694 23.0182 34.6166 21.4858 34.6166Z" fill="#FEBC79"/>
</g>
<g id="Group_2">
<g id="Group_3">
<path id="Vector_2" d="M44.5259 19.8283H28.7912V16.2792H44.5259V19.8283Z" fill="#FEBC79"/>
</g>
</g>
<g id="Group_4">
<path id="Vector_3" d="M28.7912 21.6029V23.9691V26.3352H37.7824V23.9691H44.5259V21.6029H28.7912Z" fill="#FEBC79"/>
</g>
<g id="Group_5">
<path id="Vector_4" d="M46.5073 31.2898L46.4107 31.1029L49.3991 27.9571C49.8802 27.4508 50.1454 26.777 50.1454 26.0607C50.1454 24.5813 49.0018 23.3775 47.5964 23.3775C47.3109 23.3775 47.0361 23.4372 46.7737 23.5313V15.6876C46.7737 14.7092 46.0173 13.913 45.0878 13.913H27.5712C27.1211 13.913 26.6974 14.0976 26.3787 14.433L21.4178 19.655C21.0992 19.9898 20.9239 20.4358 20.9239 20.9102V22.2246C17.7781 22.5245 15.3044 25.313 15.3044 28.7013V47.6302C15.3044 49.261 16.5648 50.5878 18.1141 50.5878H24.8575C26.4068 50.5878 27.6673 49.261 27.6673 47.6302V47.0386H41.1542H41.7161H49.6852L48.4579 39.2873C48.4477 36.5006 47.7751 33.7364 46.5073 31.2898V31.2898ZM47.3222 38.901L41.8437 40.4739L40.5225 39.3612C39.8527 38.7963 39.4683 37.9545 39.4683 37.0513V32.2504V31.6589C40.0881 31.6589 40.5922 32.1895 40.5922 32.842V36.9827H41.7161V36.0445L45.579 31.9783C46.6596 34.1078 47.2558 36.4881 47.3222 38.901ZM39.4683 30.4758C38.8485 30.4758 38.3444 31.0064 38.3444 31.6589V32.2504C38.3444 32.5764 38.0921 32.842 37.7824 32.842C37.4728 32.842 37.2205 32.5764 37.2205 32.2504V31.6589C37.2205 30.354 38.2286 29.2928 39.4683 29.2928H40.9215L39.7673 30.5078C39.6684 30.4936 39.5706 30.4758 39.4683 30.4758V30.4758ZM33.3144 40.5744L34.0539 38.6271L35.6583 40.3159L33.8078 41.095C33.5701 41.1967 33.2868 40.995 33.2868 40.7229C33.2868 40.6714 33.2958 40.6217 33.3144 40.5744ZM36.6585 39.6954L34.6434 37.5742L38.0415 33.9972C38.1466 33.9801 38.2472 33.9523 38.3444 33.9156V37.0507C38.3444 37.3192 38.3736 37.5819 38.4208 37.8398L36.6585 39.6954ZM36.2 32.842H29.9151V30.4758H36.2933C36.1685 30.8467 36.0966 31.2436 36.0966 31.6589V32.2504C36.0966 32.4586 36.137 32.6562 36.2 32.842ZM29.9151 34.025H36.4259L34.1781 36.3911H29.9151V34.025ZM29.9151 37.5742H33.2436L32.3444 39.9403H29.9151V37.5742ZM29.9151 41.1234H32.218C32.3877 41.8018 32.9704 42.3064 33.6678 42.3064C33.8606 42.3064 34.0488 42.2686 34.2264 42.1934L35.5346 41.6421V43.4895H29.9151V41.1234ZM36.6585 41.1689L36.9744 41.0358L38.8457 39.066C38.8659 39.1045 38.8844 39.1435 38.9064 39.1814V43.4895H36.6585V41.1689ZM40.0303 40.4608L41.1542 41.4073V43.4895H40.0303V40.4608ZM49.0215 26.0607C49.0215 26.4611 48.8731 26.8379 48.604 27.1213L41.7161 34.3717V32.842C41.7161 32.1014 41.3846 31.4471 40.8766 31.013L46.5888 25.0001C46.858 24.7167 47.2159 24.5606 47.5964 24.5606C48.382 24.5606 49.0215 25.2337 49.0215 26.0607V26.0607ZM26.5434 15.9325V19.2368C26.5434 19.5627 26.2911 19.8283 25.9814 19.8283H22.8424L26.5434 15.9325ZM21.4858 23.3775C24.2742 23.3775 26.5434 25.7661 26.5434 28.7013C26.5434 31.6364 24.2742 34.025 21.4858 34.025C18.6974 34.025 16.4283 31.6364 16.4283 28.7013C16.4283 25.7661 18.6974 23.3775 21.4858 23.3775ZM24.8575 49.4048H18.1141C17.1846 49.4048 16.4283 48.6086 16.4283 47.6302V32.4308C17.5477 34.1072 19.3954 35.2081 21.4858 35.2081C23.5763 35.2081 25.424 34.1072 26.5434 32.4308V47.6302C26.5434 48.6086 25.787 49.4048 24.8575 49.4048ZM27.6673 45.8556V28.7013C27.6673 25.313 25.1936 22.5245 22.0478 22.2246V21.0114H25.9814C26.9109 21.0114 27.6673 20.2152 27.6673 19.2368V15.0961H45.0878C45.3975 15.0961 45.6498 15.3617 45.6498 15.6876V24.3157L42.0454 28.1097H39.4683C38.4731 28.1097 37.5801 28.5688 36.962 29.2928H28.7912V44.6725H41.1542V45.8556H27.6673ZM42.2781 45.8556V41.5753L47.4452 40.0917L48.3578 45.8556H42.2781Z" fill="#FBFEFE"/>
<path id="Vector_5" d="M20.9239 31.5731V32.842H22.0478V31.5731C22.6968 31.3566 23.1717 30.7243 23.1717 29.9707C23.1717 29.3277 22.8323 28.7486 22.2849 28.4605L21.1891 27.8844C21.0256 27.798 20.9239 27.6247 20.9239 27.4318C20.9239 27.1532 21.1391 26.9267 21.4038 26.9267H21.5679C21.8326 26.9267 22.0478 27.1532 22.0478 27.4318V28.1097H23.1717V27.4318C23.1717 26.6782 22.6968 26.0459 22.0478 25.8294V24.5606H20.9239V25.8294C20.2748 26.0459 19.8 26.6782 19.8 27.4318C19.8 28.0748 20.1394 28.6539 20.6867 28.942L21.7825 29.5182C21.9461 29.6045 22.0478 29.7778 22.0478 29.9707C22.0478 30.2493 21.8326 30.4758 21.5679 30.4758H21.4038C21.1391 30.4758 20.9239 30.2493 20.9239 29.9707V29.2928H19.8V29.9707C19.8 30.7243 20.2748 31.3566 20.9239 31.5731Z" fill="#FBFEFE"/>
<path id="Vector_6" d="M24.2956 39.9403H18.676C18.0562 39.9403 17.5521 40.4709 17.5521 41.1234V47.0387C17.5521 47.6911 18.0562 48.2217 18.676 48.2217H24.2956C24.9154 48.2217 25.4195 47.6911 25.4195 47.0387V41.1234C25.4195 40.4709 24.9154 39.9403 24.2956 39.9403ZM24.2956 42.3064H23.1717V41.1234H24.2956V42.3064ZM22.0478 47.0387H20.9239V45.8556H22.0478V47.0387ZM22.0478 44.6725H20.9239V43.4895H22.0478V44.6725ZM19.7999 44.6725H18.676V43.4895H19.7999V44.6725ZM20.9239 42.3064V41.1234H22.0478V42.3064H20.9239ZM19.7999 41.1234V42.3064H18.676V41.1234H19.7999ZM18.676 45.8556H19.7999V47.0387H18.676V45.8556ZM23.1717 47.0387V43.4895H24.2961L24.2967 47.0387H23.1717Z" fill="#FBFEFE"/>
<path id="Vector_7" d="M28.7912 21.0114H44.5259V22.1944H28.7912V21.0114Z" fill="#FBFEFE"/>
<path id="Vector_8" d="M28.7912 23.3775H44.5259V24.5606H28.7912V23.3775Z" fill="#FBFEFE"/>
<path id="Vector_9" d="M28.7912 25.7436H37.7824V26.9267H28.7912V25.7436Z" fill="#FBFEFE"/>
</g>
</g>
</g>
</g>
</svg>
